<?xml version="1.0" encoding="utf-8"?>
<!-- Generator: Adobe Illustrator 27.9.0, SVG Export Plug-In . SVG Version: 6.00 Build 0)  -->
<svg version="1.1" id="Слой_1" xmlns="http://www.w3.org/2000/svg" xmlns:xlink="http://www.w3.org/1999/xlink" x="0px" y="0px"
	 viewBox="0 0 184 171" style="enable-background:new 0 0 184 171;" xml:space="preserve">
<style type="text/css">
	.st0{fill:#74388D;}
	.st1{opacity:0.41;fill:#71378D;}
	.st2{fill:#5E257E;}
	.st3{fill:#71378D;}
	.st4{fill:#7A4796;}
	.st5{fill:#67348B;}
	.st6{fill:#996EAD;}
	.st7{fill:#287130;}
	.st8{fill:#172D1A;}
	.st9{fill:#1A381D;}
	.st10{fill:#339A37;}
	.st11{fill:#2D6C2E;}
	.st12{fill:#5BB13F;}
</style>
<g>
	<polygon class="st0" points="176.6,82.1 176.6,156.1 51.8,170.6 51.8,73.5 	"/>
	<g>
		<polygon class="st1" points="51.8,73.5 176.6,82.1 176.6,94.5 51.8,108.9 		"/>
	</g>
	<polygon class="st2" points="51.8,73.5 51.8,170.6 9,147.2 9,70.5 	"/>
	<g>
		<polygon class="st3" points="9,70.5 51.8,73.5 51.8,108.4 9,84 		"/>
	</g>
	<polygon class="st4" points="183.5,51.1 183.5,84.3 52.2,98 52.6,66.1 	"/>
	<polygon class="st5" points="52.2,98 0.5,70.2 0.5,45.6 52.6,66.1 	"/>
	<polygon class="st6" points="183.5,51.1 52.6,66.1 0.5,45.6 104.3,33.5 	"/>
	<polygon class="st7" points="121,58.1 88.5,40.2 85.8,40.4 95,61.6 88.8,168 112.9,164.5 	"/>
	<path class="st7" d="M110.5,93.1c-5.7,0.6-11.5,1.1-17.2,1.8l1.9-33.6l-8.8-20.5l2.6-0.3l31.5,17.4l-2.6,34.3
		C115.4,92.5,112.9,92.8,110.5,93.1z"/>
	<path class="st8" d="M112.3,58.8c-5.8,0.6-11.5,1.2-17.3,1.8l-8.6-20l2.6-0.3l31.5,17.4l0,0.1C117.7,58.3,115,58.6,112.3,58.8z"/>
	<path class="st8" d="M111.5,106.3c-6.5,0.4-12.9,0.9-19.4,1.4l0.6-10.1c8.4-1,16.9-1.6,25.3-2.7l-0.8,11.1
		C115.2,106.1,113.3,106.2,111.5,106.3z"/>
	<path class="st7" d="M101.9,40.1c0,0,26-3.6,51.6,11.8c-7.6-0.2-7.6-0.2-7.6-0.2s4.7,3.8,6,9.1c-9.8-7.6-63.3-16.3-63.3-16.3
		S90.6,42.3,101.9,40.1z"/>
	<path class="st9" d="M122.4,51.1c-16.6-3.8-33.7-6.6-33.7-6.6s1.9-2.1,13.3-4.4c0,0,12.2-1.7,28.1,2.2
		C127.5,45.2,124.9,48.1,122.4,51.1z"/>
	<path class="st7" d="M92.1,41.1c0,0-4.3,8.4-18.7,18.3l-3.8-7.9l-14.3,6.9l8.1-16.3C63.4,42.1,87.7,32.4,92.1,41.1z"/>
	<path class="st9" d="M85.3,49.5c-0.9-0.2-1.7-0.4-2.6-0.5c-7.5-1-15.1-0.9-22.7-0.1l3.4-6.8c0,0,24.3-9.7,28.6-1
		C92.1,41.1,90.3,44.5,85.3,49.5z"/>
	<polygon class="st7" points="65.8,44.1 26.4,50.2 38.2,46 33.9,43.2 60.4,39.5 	"/>
	<path class="st9" d="M46.8,41.4l13.6-1.9l5.4,4.6l-14.1,2.2C50,44.7,48.3,43.1,46.8,41.4z"/>
	<path class="st10" d="M87.7,38.6c0,0-6.5-8.6-16.6-13.8c-10.1-5.2-21.3-7.8-22.4-0.5s-2.6,17.4,12.7,21.1
		C68.7,46.7,83,43,87.7,38.6z"/>
	<g>
		<path class="st11" d="M68.9,27.9c4.7,0,8.8,1.7,12.2,3.9c4.1,3.6,6.5,6.7,6.5,6.7c-4.6,4.3-18.2,7.9-25.7,6.8
			C57.4,40.1,58.5,27.9,68.9,27.9z"/>
	</g>
	<path class="st8" d="M63.4,42.1c-3.1-2.2-0.8-11,3.6-11.7c4.8-0.7,15.6,5.9,20,8.8C82.1,43.7,66.3,43.4,63.4,42.1z"/>
	<path class="st10" d="M89,40.4c0,0,4.4-7.5,20.5-21.6c9.9-8.6,12-8.8,17.7-1.8c5.7,7,4.7,13.3-2.9,19C116.8,41.7,98.1,46.7,89,40.4
		z"/>
	<g>
		<path class="st11" d="M129.5,22.7c0.6,0.7,1,1.4,1.3,2.2c0.3,3.9-1.9,7.6-6.5,11.1c-7.5,5.7-26.3,10.7-35.4,4.4
			C104.6,26.1,123.6,16.5,129.5,22.7z"/>
	</g>
	<path class="st8" d="M125.9,24.3c2.6,1.3,2.6,7-10.9,12.7c-8.4,3.6-18.3,3-24.5,2C103.7,27.8,125.6,22.4,125.9,24.3z"/>
	<path class="st10" d="M89,40.4c0,0,9.9-8.6,11.2-22.4c1.3-13.8-3.9-19.5-8.8-17.2C86.4,3.2,76,4.5,76.5,7.1S83.8,38.3,89,40.4z"/>
	<g>
		<path class="st11" d="M95.6,1c3.1,1.7,5.4,7.4,4.5,17.1C98.9,31.8,89,40.4,89,40.4c-0.1,0-0.2-0.1-0.4-0.2
			c0.7-11.5,4-31.8,5.8-37.5C94.7,1.8,95.2,1.2,95.6,1z"/>
	</g>
	<path class="st8" d="M95,7.1c9.9,8.1-0.7,30-5.5,32.7c-0.1,0-0.2-0.1-0.3-0.2C90.4,29,91.7,12.4,95,7.1z"/>
	<path class="st12" d="M91.7,2.9c0,0-4.4-0.9-6.8,1.5c-2.8,1.7-7.6,0-6.3,4.4c1.3,4.4,4.4,16.1,4.4,16.1s-2.1-10.6-1.7-14.8
		c0.4-4.2,0.6,0.2,4.6-2.7C89.8,4.6,87.9,4.2,91.7,2.9z"/>
	<path class="st12" d="M63.4,27.2c0,0-0.4-3.6-3.8-2.7c-3.4,0.9-4.2-0.6-6.8-1.7c-2.7-1.1-4.9,4.7-2.3,13.5c0-6.8-0.4-13.3,2.1-10.6
		C55,28.3,56.9,27,59,26C61.1,25.1,63.4,27.2,63.4,27.2z"/>
	<path class="st12" d="M119.7,13c0,0,2.9,0.9,2.9,2.5c0,1.6,0.9,1.4,2.3,2.5s-8.4,0.9-23.1,10.6C108.1,19.8,114.9,14.3,119.7,13z"/>
</g>
</svg>
