<?xml version="1.0" encoding="utf-8"?>
<!-- Generator: Adobe Illustrator 27.9.0, SVG Export Plug-In . SVG Version: 6.00 Build 0)  -->
<svg version="1.1" id="Слой_1" xmlns="http://www.w3.org/2000/svg" xmlns:xlink="http://www.w3.org/1999/xlink" x="0px" y="0px"
	 viewBox="0 0 253 117" style="enable-background:new 0 0 253 117;" xml:space="preserve">
<style type="text/css">
	.st0{fill:#E54792;}
	.st1{opacity:0.41;fill:#09070C;}
	.st2{fill:#EDA4C8;}
	.st3{fill:#733C8F;}
	.st4{fill:#3F1A44;}
	.st5{fill:#8B348B;}
	.st6{fill:#A1599F;}
	.st7{fill:#C6559A;}
	.st8{fill:#D28DBC;}
	.st9{fill:#90388D;}
	.st10{fill:#C5333B;}
	.st11{fill:#E94D38;}
	.st12{fill:#6EA754;}
</style>
<g>
	<g>
		<polygon class="st0" points="1.1,39.8 1.1,104.4 119.4,117 119.4,32.4 		"/>
		<g>
			<polygon class="st1" points="119.4,32.4 1.1,39.8 1.1,50.7 119.4,63.2 			"/>
		</g>
		<polygon class="st2" points="119.4,32.4 119.4,117 160,96.6 160,33.6 		"/>
		<g>
			<polygon class="st3" points="160,33.6 119.4,32.4 119.4,62.8 160,41.5 			"/>
		</g>
		<polygon class="st4" points="141,41.6 65.5,36.1 42.3,43.7 119.4,51.3 		"/>
		<polygon class="st5" points="160,33 63.8,25.1 65.5,36.1 141,41.6 		"/>
		<polygon class="st6" points="0.5,39.6 42.3,43.7 65.5,36.1 63.8,25.1 		"/>
	</g>
	<g>
		<polygon class="st7" points="81.7,16.9 71.2,45.1 188.1,95.2 197.9,68 		"/>
		<polygon class="st8" points="188.1,95.2 244.7,86.7 252.5,65.8 197.9,68 		"/>
		<polygon class="st9" points="81.7,16.9 197.9,68 252.5,65.8 160.5,25.2 		"/>
		<path class="st10" d="M135.8,73.9c5.1,2.2,10.3,4.3,15.3,6.5l8.9-29.1l14.7-14.8l-2.3-1l-34.6,5.6L129.3,71
			C131.5,72,133.6,73,135.8,73.9z"/>
		<path class="st10" d="M145.1,44.4c5.1,2.2,10.3,4.4,15.4,6.6l14.3-14.4l-2.3-1l-34.6,5.6l0,0.1C140.2,42.3,142.7,43.3,145.1,44.4z
			"/>
		<path class="st10" d="M160.6,31.5c0,0-22.9-10.6-51.4-5.1c7.1,2,7.1,2,7.1,2s-5.5,1.8-8.5,6c11.5-3.6,63.7,4.7,63.7,4.7
			S170.4,36.7,160.6,31.5z"/>
		<path class="st10" d="M138.2,34.8c16.6,1.6,33.3,4.3,33.3,4.3s-1.1-2.4-10.9-7.6c0,0-10.7-5-26.7-6.3
			C135.4,28.4,136.8,31.6,138.2,34.8z"/>
		<path class="st10" d="M169.4,35.2c0,0,1.3,8.4,11.4,21l6-5.6l11,10.1l-2.3-16.2C195.5,44.4,176.2,29.1,169.4,35.2z"/>
		<path class="st10" d="M172.9,44.3c0.8,0.1,1.7,0.2,2.5,0.3c7.3,1.3,14.3,3.7,21,6.6l-1-6.8c0,0-19.3-15.4-26.1-9.3
			C169.4,35.2,169.9,38.6,172.9,44.3z"/>
		<polygon class="st10" points="192.7,45.5 227.1,62.1 217.6,55.2 222.5,54 199.1,43.2 		"/>
		<path class="st10" d="M211.1,48.7l-12-5.6l-6.4,2.3l12.3,6C207.1,50.6,209.1,49.7,211.1,48.7z"/>
		<path class="st11" d="M174.2,34.4c0,0,8.7-5.4,19.8-6.8c11-1.4,22.2-0.4,20.8,6.1c-1.4,6.5-3.1,15.5-18.5,14.1
			C189.2,46.8,177.2,39.5,174.2,34.4z"/>
		<g>
			<path class="st10" d="M194.9,30.8c-4.3-1.4-8.7-1.2-12.6-0.3c-4.9,1.9-8.1,3.8-8.1,3.8c2.8,5,14.3,12,21.5,13.3
				C201.7,44.5,204.6,33.9,194.9,30.8z"/>
		</g>
		<g>
			<path class="st12" d="M195.5,44.4c3.6-1,4.2-9.1,0.4-11c-4.2-2-16.3,0.5-21.3,1.6c0.8,1.2,2.1,2.5,3.6,3.7
				C183.9,41.3,193.1,45.1,195.5,44.4z"/>
		</g>
		<path class="st11" d="M172.5,35.5c0,0-1.7-7.7-12.1-24.3c-6.4-10.2-8.2-11-15.8-6.7c-7.5,4.3-8.5,9.9-3.4,16.9
			C146.3,28.5,162.1,38.2,172.5,35.5z"/>
		<g>
			<path class="st10" d="M140.6,8.7c-0.8,0.4-1.4,0.9-1.9,1.5c-1.5,3.2-0.7,7,2.5,11.3c5.1,7.1,20.9,16.7,31.3,14.1
				C162.6,18.8,148.1,5.1,140.6,8.7z"/>
		</g>
		<g>
			<path class="st12" d="M143.5,11.1c-2.8,0.3-4.6,5.2,6,14c6.7,5.5,16,7.9,22,8.9c-0.7-1.1-1.4-2.2-2.1-3.2
				C156.2,16.2,146.2,10.7,143.5,11.1z"/>
		</g>
		<path class="st11" d="M172.5,35.5c0,0-6.4-10.2-3.2-22.3c3.2-12.1,9.8-15.4,13.6-12c3.8,3.4,13,7.6,11.7,9.6
			C193.3,13,177.9,35.3,172.5,35.5z"/>
		<g>
			<path class="st10" d="M178.9,0.1c-3.5,0.6-7.4,4.7-9.6,13.2c-3.2,12.1,3.2,22.3,3.2,22.3c0.1,0,0.3,0,0.4-0.1
				c3-10,6.4-28.1,6.6-33.5C179.4,1,179.2,0.5,178.9,0.1z"/>
		</g>
		<g>
			<path class="st12" d="M177.5,5.5c-2.9,0.5-6.1,3.9-8,10.9c-2.6,10,2.7,18.4,2.7,18.4c0.1,0,0.2,0,0.3-0.1
				c2.5-8.3,5.3-23.3,5.4-27.8C178,6.3,177.8,5.8,177.5,5.5z"/>
		</g>
		<path class="st10" d="M181.9,2.9c0,0,4.3,0.5,5.8,3.3c2.1,2.3,7,2.2,4.4,5.5c-2.6,3.3-9.2,12.4-9.2,12.4s5.3-8.4,6.3-12.1
			c1-3.7-0.6,0-3.4-3.6C183.1,4.9,185,5.1,181.9,2.9z"/>
		<path class="st10" d="M200.3,31.8c0,0,1.5-3,4.4-1.1c2.9,1.8,4,0.7,6.9,0.5c2.8-0.2,3,5.5-2.2,12.1c2.2-5.8,4.6-11.2,1.5-9.6
			c-3.1,1.5-4.5-0.1-6.1-1.6C203.1,30.7,200.3,31.8,200.3,31.8z"/>
		<path class="st10" d="M152.8,3.3c0,0-2.9-0.1-3.4,1.3c-0.5,1.4-1.3,1-2.9,1.4c-1.7,0.5,7.5,3.2,18,15.7
			C161.4,12.5,156.8,5.8,152.8,3.3z"/>
	</g>
</g>
</svg>
