<?xml version="1.0" encoding="utf-8"?>
<!-- Generator: Adobe Illustrator 27.9.0, SVG Export Plug-In . SVG Version: 6.00 Build 0)  -->
<svg version="1.1" id="Слой_1" xmlns="http://www.w3.org/2000/svg" xmlns:xlink="http://www.w3.org/1999/xlink" x="0px" y="0px"
	 viewBox="0 0 918 390" style="enable-background:new 0 0 918 390;" xml:space="preserve">
<style type="text/css">
	.st0{fill:url(#SVGID_1_);}
	.st1{fill:#F9B97C;}
	.st2{opacity:0.41;fill:#3D694F;enable-background:new    ;}
	.st3{fill:#CA9365;}
	.st4{fill:#B0A34A;}
	.st5{fill:#4B1D12;}
	.st6{fill:#4D2912;}
	.st7{fill:#6A3717;}
	.st8{fill:#FCD9BB;}
	.st9{fill:#CC9F89;}
	.st10{fill:#D0462A;}
	.st11{fill:#C5333B;}
	.st12{fill:#931829;}
	.st13{fill:#E94D38;}
</style>
<g>
	
		<radialGradient id="SVGID_1_" cx="662.274" cy="1753.1321" r="257.1717" gradientTransform="matrix(1.8096 4.436046e-03 1.809342e-03 -0.2254 -742.623 724.2881)" gradientUnits="userSpaceOnUse">
		<stop  offset="8.427820e-07" style="stop-color:#040304;stop-opacity:0.3"/>
		<stop  offset="0.3726" style="stop-color:#060506;stop-opacity:0.1882"/>
		<stop  offset="0.5069" style="stop-color:#0E0A0B;stop-opacity:0.1479"/>
		<stop  offset="0.6026" style="stop-color:#1B1415;stop-opacity:0.1192"/>
		<stop  offset="0.68" style="stop-color:#2B2525;stop-opacity:9.600224e-02"/>
		<stop  offset="0.7463" style="stop-color:#413B3C;stop-opacity:7.612176e-02"/>
		<stop  offset="0.805" style="stop-color:#5C5858;stop-opacity:5.850782e-02"/>
		<stop  offset="0.8581" style="stop-color:#7B7778;stop-opacity:4.256964e-02"/>
		<stop  offset="0.9069" style="stop-color:#A09D9E;stop-opacity:2.792695e-02"/>
		<stop  offset="0.9523" style="stop-color:#CAC9C8;stop-opacity:1.430288e-02"/>
		<stop  offset="0.9926" style="stop-color:#F6F6F6;stop-opacity:2.214074e-03"/>
		<stop  offset="1" style="stop-color:#FFFFFF;stop-opacity:0"/>
	</radialGradient>
	<ellipse class="st0" cx="459" cy="332.1" rx="458.8" ry="57.9"/>
	<g>
		<polygon class="st1" points="39,114.3 39,320.7 386.6,361 386.6,90.4 		"/>
		<g>
			<polygon class="st2" points="386.6,90.4 39,114.3 39,149.1 386.6,189.2 			"/>
		</g>
		<polygon class="st3" points="386.6,90.4 386.6,361 505.9,295.9 505.9,94.2 		"/>
		<g>
			<polygon class="st4" points="505.9,94.2 386.6,90.4 386.6,187.8 505.9,119.6 			"/>
		</g>
		<polygon class="st5" points="450.2,119.8 228.3,102.4 160,126.5 386.6,150.8 		"/>
		<polygon class="st6" points="505.9,92.6 223.2,67.1 228.3,102.4 450.2,119.8 		"/>
		<polygon class="st7" points="37.1,113.4 160,126.5 228.3,102.4 223.2,67.1 		"/>
		<polygon class="st8" points="407.5,9.4 360.3,92.3 668.3,313.2 712.9,233 		"/>
		<polygon class="st1" points="668.3,313.2 836.9,317.4 871.8,256 712.9,233 		"/>
		<polygon class="st9" points="407.5,9.4 712.9,233 871.8,256 630.1,78.2 		"/>
		<path class="st10" d="M529.9,218.1c13.4,9.7,27.1,19.1,40.5,28.9l42.9-86.6l51.3-38.7l-6.1-4.3l-103.3-1.3l-42.3,89.3
			C518.5,209.7,524.2,213.9,529.9,218.1z"/>
		<path class="st11" d="M574.2,130.1c13.5,9.7,27.1,19.4,40.6,29.1l49.8-37.6l-6.1-4.3L555.2,116l-0.1,0.3
			C561.4,120.9,567.8,125.6,574.2,130.1z"/>
		<path class="st10" d="M626.6,98.1c0,0-59.9-45.9-145.6-44c19.2,10.2,19.2,10.2,19.2,10.2s-17,2.8-28,14.2
			c35.2-5,181.2,49.3,181.2,49.3S651.8,119.8,626.6,98.1z"/>
		<path class="st11" d="M560,96.3c46.9,14.2,93.6,31.5,93.6,31.5s-1.7-8.1-26.9-29.8c0,0-28.1-21.5-73.2-34.4
			C555.6,74.5,557.9,85.4,560,96.3z"/>
		<path class="st10" d="M649.8,114.5c0,0-1.1,27.1,20.6,72.1l20.6-14.3l25.9,37.7l2.8-52.2C719.8,157.8,673,99,649.8,114.5z"/>
		<path class="st11" d="M654.7,145c2.4,0.7,4.8,1.5,7.2,2.5c20.2,8.1,39,19.4,56.8,32.1l1.2-21.8c0,0-46.7-58.8-69.9-43.3
			C649.8,114.5,649.4,125.5,654.7,145z"/>
		<polygon class="st10" points="711,159.5 800.6,230.5 777.2,203.5 792,202.5 731,155.7 		"/>
		<path class="st11" d="M762.3,179.7l-31.2-24l-20,3.8l32.1,25.4C749.6,183.5,756,181.8,762.3,179.7z"/>
		<path class="st10" d="M664.3,114.6c0,0,28.4-12.2,61.1-10.7c32.7,1.4,64.3,10.8,56.5,30.5c-7.8,19.6-18.3,47.2-61.7,34.4
			C700.2,161.7,669.7,132.3,664.3,114.6z"/>
		<g>
			<path class="st11" d="M726.2,114.6c-11.7-6.7-24.4-8.3-36.1-7.6c-15.4,3.2-25.8,7.6-25.8,7.6c5.3,17.2,34.3,45.5,54.3,53.5
				C737.6,161.4,752.2,129.4,726.2,114.6z"/>
		</g>
		<g>
			<path class="st12" d="M719.8,157.8c10.8-1.1,17.5-26.3,7.7-34.4c-10.9-8.5-47.2-7.4-62.3-6.5c1.7,4.2,4.5,8.9,8.1,13.7
				C688.1,141.5,712.4,158.5,719.8,157.8z"/>
		</g>
		<path class="st13" d="M658.5,117.3c0,0-0.3-25.1-20.6-83.1C625.4-1.3,620.6-4.9,596.4,4.5c-24.3,9.4-30.5,26.4-19.9,51.4
			S626.9,119.9,658.5,117.3z"/>
		<g>
			<path class="st10" d="M582.4,15.5c-2.5,0.7-4.6,2-6.3,3.7c-6.3,9.4-6.1,21.6,0.4,36.8c10.7,25,50.4,63.9,82,61.3
				C639.9,59.4,606.2,8.4,582.4,15.5z"/>
		</g>
		<g>
			<path class="st12" d="M589.2,24.5c-8.3-0.5-16.5,13.8,9.1,47.3c16,20.9,41.4,33.5,58.3,40c-1.3-3.8-2.6-7.5-4-11.2
				C622.9,47.7,597.3,25,589.2,24.5z"/>
		</g>
		<path class="st10" d="M658.5,117.3c0,0-12.5-35.5,3.9-71.7s37.5-43.1,46.5-30.3c9,12.9,33.1,30.9,28.1,36.6
			C731.9,57.7,674.4,119.5,658.5,117.3z"/>
		<g>
			<path class="st11" d="M697.9,9.4c-10.3-0.1-24.1,10.8-35.5,36.2c-16.4,36.2-3.9,71.7-3.9,71.7c0.4,0.1,0.8,0,1.2,0
				c14.5-29.7,35.2-85,38.8-101.9C699,12.6,698.8,10.7,697.9,9.4z"/>
		</g>
		<g>
			<path class="st12" d="M690.8,25.5c-8.6-0.1-20,9-29.5,30c-13.5,30-3.2,59.4-3.2,59.4c0.3,0,0.6,0,1,0
				c12-24.6,29.2-70.4,32.1-84.4C691.7,28.2,691.5,26.6,690.8,25.5z"/>
		</g>
		<path class="st11" d="M705,19.7c0,0,12.2,3.8,14.9,13.5c4.7,8.3,19,10.8,9.4,19.8c-9.5,9-33.8,34.1-33.8,34.1s20.3-23.6,25.3-34.5
			c5-11-1.7-0.3-7.6-13.1C707.3,26.7,712.6,28.4,705,19.7z"/>
		<path class="st11" d="M741.1,120.6c0,0,6.1-8.5,13.3-1.2c7.2,7.2,11.2,4.5,19.5,5.5c8.3,0.9,5.6,18.9-13.5,36.9
			c9.7-17.1,19.8-32.6,9.9-29.5c-9.9,3.1-12.8-2.9-16.7-8.2C749.7,118.6,741.1,120.6,741.1,120.6z"/>
		<path class="st11" d="M620.7,5.2c0,0-8.4-1.8-10.7,2.2s-4.3,2.3-9.4,2.9c-5.1,0.6,19.7,14.2,42.6,59.2
			C640.1,38.8,631,15.2,620.7,5.2z"/>
	</g>
</g>
</svg>
