<?xml version="1.0" encoding="utf-8"?>
<!-- Generator: Adobe Illustrator 27.9.0, SVG Export Plug-In . SVG Version: 6.00 Build 0)  -->
<svg version="1.1" id="Слой_1" xmlns="http://www.w3.org/2000/svg" xmlns:xlink="http://www.w3.org/1999/xlink" x="0px" y="0px"
	 viewBox="0 0 230 210" style="enable-background:new 0 0 230 210;" xml:space="preserve">
<style type="text/css">
	.st0{fill:#C0181B;}
	.st1{opacity:0.41;fill:#3D694F;}
	.st2{fill:#8C1812;}
	.st3{fill:#6EA754;}
	.st4{fill:#CD2825;}
	.st5{fill:#A01A16;}
	.st6{fill:#E54F4E;}
	.st7{fill:#E9E555;}
	.st8{fill:#DEC516;}
	.st9{fill:#F7EA56;}
	.st10{fill:#998919;}
	.st11{fill:#5A4E17;}
	.st12{fill:#FDF7C5;}
</style>
<g>
	<polygon class="st0" points="15.3,102 15.3,192.2 167.4,209.9 167.4,91.5 	"/>
	<g>
		<polygon class="st1" points="167.4,91.5 15.3,102 15.3,117.2 167.4,134.7 		"/>
	</g>
	<polygon class="st2" points="167.4,91.5 167.4,209.9 219.5,181.4 219.5,87.9 	"/>
	<g>
		<polygon class="st3" points="219.5,87.9 167.4,91.5 167.4,134.1 219.5,104.3 		"/>
	</g>
	<polygon class="st4" points="0,64.2 0,106 165,123.2 164.6,83.1 	"/>
	<polygon class="st5" points="165,123.2 230,88.3 230,57.4 164.6,83.1 	"/>
	<polygon class="st6" points="0,64.2 164.6,83.1 230,57.4 99.6,42.2 	"/>
	<polygon class="st7" points="79.3,72.8 118.8,50.9 122.1,51.2 111,77 118.5,206.7 89.1,202.5 	"/>
	<path class="st7" d="M91.8,117c7.2,0.8,14.4,1.4,21.6,2.2L111,77l11.1-25.8l-3.3-0.3L79.3,72.8l3.3,43.1
		C85.6,116.3,88.7,116.7,91.8,117z"/>
	<path class="st8" d="M89.6,74c7.2,0.8,14.5,1.5,21.7,2.2l10.8-25.1l-3.3-0.3L79.3,72.8l0,0.2C82.7,73.3,86.1,73.7,89.6,74z"/>
	<path class="st8" d="M90.6,131.5c7.9,0.4,15.8,1,23.6,1.7l-0.7-12.3c-10.3-1.2-20.6-1.9-30.9-3.3l1,13.5
		C86,131.2,88.3,131.3,90.6,131.5z"/>
	<path class="st7" d="M102.5,50.1c0,0-32.7-4.5-64.9,14.8c9.5-0.3,9.5-0.3,9.5-0.3s-5.9,4.8-7.5,11.5c12.3-9.5,79.6-20.5,79.6-20.5
		S116.8,52.9,102.5,50.1z"/>
	<path class="st8" d="M76.8,64.2c20.9-4.8,42.4-8.3,42.4-8.3s-2.4-2.7-16.7-5.5c0,0-15.3-2.1-35.3,2.8
		C70.5,56.9,73.7,60.5,76.8,64.2z"/>
	<path class="st7" d="M114.9,51.7c0,0,5.5,10.6,23.5,23l4.7-9.9l18,8.7L150.9,53C150.9,53,120.4,40.8,114.9,51.7z"/>
	<path class="st8" d="M123.4,62.2c1.1-0.2,2.1-0.5,3.3-0.6c9.5-1.3,19-1.1,28.5-0.1l-4.3-8.5c0,0-30.5-12.2-36-1.3
		C114.9,51.7,117.1,55.9,123.4,62.2z"/>
	<polygon class="st7" points="147.9,55.6 197.4,63.1 182.6,57.9 188,54.4 154.7,49.8 	"/>
	<path class="st8" d="M171.8,52.1l-17.1-2.4l-6.8,5.8l17.7,2.7C167.8,56.3,169.9,54.3,171.8,52.1z"/>
	<path class="st9" d="M120.4,48.6c0,0,8.2-10.8,20.9-17.3c12.7-6.5,26.8-9.8,28.1-0.7c1.3,9.1,3.3,21.9-16,26.5
		C144.3,58.7,126.3,54.1,120.4,48.6z"/>
	<g>
		<path class="st10" d="M144,35.2c-5.9,0-11.1,2.1-15.4,4.9c-5.2,4.5-8.1,8.5-8.1,8.5c5.7,5.4,22.9,9.9,32.2,8.6
			C158.5,50.5,157.1,35.2,144,35.2z"/>
	</g>
	<path class="st11" d="M150.9,53c3.9-2.8,1-13.8-4.5-14.8c-6-0.9-19.6,7.4-25.1,11C127.5,55,147.2,54.6,150.9,53z"/>
	<path class="st9" d="M118.8,50.9c0,0-5.6-9.5-25.8-27.1C80.6,13,78,12.6,70.8,21.5s-5.9,16.7,3.6,23.9
		C83.8,52.5,107.4,58.7,118.8,50.9z"/>
	<g>
		<path class="st10" d="M67.8,28.7c-0.8,0.8-1.3,1.8-1.6,2.8c-0.3,4.9,2.4,9.5,8.1,13.9c9.5,7.2,33,13.4,44.4,5.6
			C99.2,32.9,75.3,20.8,67.8,28.7z"/>
	</g>
	<path class="st11" d="M72.4,30.6c-3.3,1.6-3.3,8.8,13.7,16c10.6,4.5,23,3.8,30.8,2.6C100.3,35.1,72.8,28.2,72.4,30.6z"/>
	<path class="st9" d="M118.5,50.4c0,0-12.4-10.8-14.1-28.1C102.8,5,109.4-2.2,115.6,0.7c6.2,2.9,19.3,4.6,18.6,7.8
		C133.5,11.8,125,47.8,118.5,50.4z"/>
	<g>
		<path class="st10" d="M110.1,0.8c-3.9,2.2-6.8,9.3-5.7,21.5c1.6,17.3,14.1,28.1,14.1,28.1c0.2-0.1,0.3-0.2,0.5-0.3
			c-0.9-14.4-5-39.9-7.3-47.1C111.3,1.8,110.7,1.1,110.1,0.8z"/>
	</g>
	<path class="st11" d="M110.9,8.5c-12.4,10.2,0.9,37.7,6.9,41.1c0.1-0.1,0.3-0.1,0.4-0.2C116.8,36.1,115.1,15.2,110.9,8.5z"/>
	<path class="st12" d="M115.1,3.2c0,0,5.5-1.2,8.6,1.9c3.6,2.1,9.5,0,7.9,5.5c-1.7,5.5-5.5,20.3-5.5,20.3s2.6-13.4,2.1-18.6
		c-0.5-5.2-0.7,0.2-5.7-3.3C117.5,5.4,119.8,4.9,115.1,3.2z"/>
	<path class="st12" d="M150.9,34.2c0,0,0.5-4.5,4.8-3.3c4.3,1.2,5.2-0.7,8.6-2.1c3.3-1.4,6.2,6,2.9,16.9c0-8.6,0.5-16.7-2.6-13.4
		c-3.1,3.3-5.5,1.7-8.1,0.5C153.8,31.6,150.9,34.2,150.9,34.2z"/>
	<path class="st12" d="M80.2,16.5c0,0-3.6,1.1-3.6,3.1c0,2-1.1,1.8-2.9,3.1c-1.8,1.3,10.6,1.1,29,13.3C94.8,25,86.3,18,80.2,16.5z"
		/>
</g>
</svg>
