<?xml version="1.0" encoding="utf-8"?>
<!-- Generator: Adobe Illustrator 27.9.0, SVG Export Plug-In . SVG Version: 6.00 Build 0)  -->
<svg version="1.1" id="Слой_1" xmlns="http://www.w3.org/2000/svg" xmlns:xlink="http://www.w3.org/1999/xlink" x="0px" y="0px"
	 viewBox="0 0 269 150" style="enable-background:new 0 0 269 150;" xml:space="preserve">
<style type="text/css">
	.st0{fill:#3D694F;}
	.st1{opacity:0.41;fill:#3D694F;}
	.st2{fill:#6EA754;}
	.st3{fill:#233A2D;}
	.st4{fill:#58856C;}
	.st5{fill:#B2CE57;}
	.st6{fill:#7AB55E;}
	.st7{fill:#C5333B;}
	.st8{fill:#E94D38;}
</style>
<g>
	<polygon class="st0" points="0.9,53.2 0.9,133.8 136.6,149.5 136.6,43.9 	"/>
	<g>
		<polygon class="st1" points="136.6,43.9 0.9,53.2 0.9,66.8 136.6,82.5 		"/>
	</g>
	<polygon class="st2" points="136.6,43.9 136.6,149.5 183.2,124.1 183.2,45.4 	"/>
	<g>
		<polygon class="st2" points="183.2,45.4 136.6,43.9 136.6,81.9 183.2,55.3 		"/>
	</g>
	<polygon class="st3" points="161.4,55.4 74.8,48.6 48.2,58 136.6,67.5 	"/>
	<polygon class="st0" points="183.2,44.7 72.8,34.8 74.8,48.6 161.4,55.4 	"/>
	<polygon class="st2" points="0.2,52.9 48.2,58 74.8,48.6 72.8,34.8 	"/>
	<g>
		<polygon class="st4" points="96.4,0.5 75.3,31.1 187.7,127.3 207.8,97.6 		"/>
		<polygon class="st5" points="187.7,127.3 253.2,134.5 268.8,111.8 207.8,97.6 		"/>
		<polygon class="st6" points="96.4,0.5 207.8,97.6 268.8,111.8 180.7,34.6 		"/>
		<path class="st7" d="M137.1,85.7c4.9,4.2,9.9,8.3,14.8,12.6L171.4,66l21.2-13.3l-2.2-1.9l-40.1-3.9l-19.4,33.3
			C132.9,82,135,83.9,137.1,85.7z"/>
		<path class="st7" d="M157.2,52.9c4.9,4.2,9.9,8.4,14.8,12.7l20.6-13l-2.2-1.9l-40.1-3.9l-0.1,0.1
			C152.6,48.9,154.9,50.9,157.2,52.9z"/>
		<path class="st7" d="M178.7,42.2c0,0-21.8-19.8-55.2-21.9c7.1,4.6,7.1,4.6,7.1,4.6s-6.7,0.5-11.3,4.6
			c13.8-0.8,68.8,25.2,68.8,25.2S187.8,51.5,178.7,42.2z"/>
		<path class="st7" d="M152.8,39.3c17.8,7.1,35.3,15.4,35.3,15.4s-0.4-3.2-9.5-12.5c0,0-10.2-9.3-27.3-15.8
			C151.9,30.7,152.4,35,152.8,39.3z"/>
		<path class="st7" d="M187.2,49.3c0,0-1.3,10.5,5.6,28.7l8.5-4.9l8.8,15.5l2.8-20.2C212.9,68.5,196.7,44.1,187.2,49.3z"/>
		<path class="st7" d="M188,61.4c0.9,0.4,1.8,0.7,2.7,1.2c7.6,3.8,14.5,8.8,21,14.4l1.2-8.4c0,0-16.2-24.4-25.8-19.2
			C187.2,49.3,186.7,53.6,188,61.4z"/>
		<polygon class="st7" points="209.5,68.9 242,99.5 233.8,88.2 239.5,88.3 217.4,68.1 		"/>
		<path class="st7" d="M228.7,78.5l-11.4-10.4l-7.9,0.8l11.6,11C223.7,79.5,226.2,79.1,228.7,78.5z"/>
		<path class="st8" d="M192.8,49.9c0,0,11.5-3.8,24.1-2.1c12.7,1.6,24.7,6.4,21,13.7c-3.7,7.4-8.7,17.7-25.2,11.3
			C205.2,69.4,194.3,56.9,192.8,49.9z"/>
		<g>
			<path class="st7" d="M216.9,51.9c-4.3-3-9.2-4.1-13.8-4.2c-6.1,0.7-10.3,2.1-10.3,2.1c1.5,6.9,11.8,18.8,19.3,22.6
				C219.8,70.5,226.5,58.6,216.9,51.9z"/>
		</g>
		<g>
			<path class="st2" d="M212.9,68.5c4.3-0.1,7.7-9.6,4.1-13.1c-3.9-3.7-18.1-4.4-24-4.6c0.5,1.7,1.5,3.6,2.7,5.6
				C201.1,61.1,210,68.6,212.9,68.5z"/>
		</g>
		<path class="st8" d="M190.4,50.7c0,0,0.7-9.8-5.2-33C181.5,3.5,179.8,2,170,4.8c-9.7,2.8-12.8,9.3-9.4,19.3
			C163.9,34.2,178.1,50.7,190.4,50.7z"/>
		<g>
			<path class="st7" d="M164.2,8.6c-1,0.2-1.8,0.6-2.6,1.2c-2.7,3.4-3.1,8.2-1.1,14.3c3.3,10.1,17.5,26.5,29.8,26.6
				C185.1,27.6,173.7,6.6,164.2,8.6z"/>
		</g>
		<g>
			<path class="st2" d="M166.6,12.4c-3.2-0.5-6.9,4.8,2,18.7c5.5,8.7,15,14.4,21.3,17.5c-0.4-1.5-0.8-3-1.2-4.5
				C178.9,22.5,169.7,12.8,166.6,12.4z"/>
		</g>
		<path class="st8" d="M190.4,50.7c0,0-3.7-14.2,3.9-27.8c7.6-13.6,16-15.5,19.1-10.2c3.1,5.3,11.9,13.1,9.7,15.2
			C221,30,196.6,52.1,190.4,50.7z"/>
		<g>
			<path class="st7" d="M209.4,10.1c-4-0.4-9.7,3.4-15,12.9c-7.6,13.6-3.9,27.8-3.9,27.8c0.1,0,0.3,0,0.5,0
				c6.6-11.1,16.5-31.9,18.5-38.3C209.7,11.4,209.7,10.6,209.4,10.1z"/>
		</g>
		<g>
			<path class="st2" d="M206.1,16.1c-3.3-0.3-8.1,2.8-12.5,10.7c-6.3,11.2-3.2,23-3.2,23c0.1,0,0.3,0,0.4,0
				c5.5-9.2,13.7-26.4,15.3-31.8C206.3,17.2,206.3,16.6,206.1,16.1z"/>
		</g>
		<path class="st7" d="M211.8,14.3c0,0,4.6,1.9,5.3,5.7c1.5,3.4,7,4.8,3,8c-4,3.2-14.3,12.1-14.3,12.1s8.7-8.5,11-12.6
			c2.3-4.1-0.6-0.2-2.5-5.4C212.5,17.1,214.5,18,211.8,14.3z"/>
		<path class="st7" d="M222.5,54.8c0,0,2.6-3.1,5.2,0c2.6,3.1,4.2,2.1,7.4,2.8c3.2,0.6,1.5,7.5-6.5,13.9c4.3-6.3,8.8-12,4.8-11.1
			c-4,0.9-4.9-1.5-6.2-3.8C225.9,54.3,222.5,54.8,222.5,54.8z"/>
		<path class="st7" d="M179.5,5.9c0,0-3.2-1-4.2,0.5c-1,1.5-1.7,0.8-3.7,0.8c-2,0.1,7.2,6.2,14.6,24.4
			C185.9,19.6,183.1,10.1,179.5,5.9z"/>
	</g>
</g>
</svg>
