<?xml version="1.0" encoding="utf-8"?>
<!-- Generator: Adobe Illustrator 27.9.0, SVG Export Plug-In . SVG Version: 6.00 Build 0)  -->
<svg version="1.1" id="Слой_1" xmlns="http://www.w3.org/2000/svg" xmlns:xlink="http://www.w3.org/1999/xlink" x="0px" y="0px"
	 viewBox="0 0 566 495" style="enable-background:new 0 0 566 495;" xml:space="preserve">
<style type="text/css">
	.st0{fill:url(#SVGID_1_);}
	.st1{fill:#F9B97C;}
	.st2{opacity:0.41;fill:#3D694F;enable-background:new    ;}
	.st3{fill:#CA9365;}
	.st4{fill:#6A602E;}
	.st5{fill:#FCD9BB;}
	.st6{fill:#CC9F89;}
	.st7{fill:#D0462A;}
	.st8{fill:#C5333B;}
	.st9{fill:#DD4633;}
	.st10{fill:#931829;}
	.st11{fill:#E94D38;}
</style>
<g>
	
		<radialGradient id="SVGID_1_" cx="310.2272" cy="1585.1263" r="257.0811" gradientTransform="matrix(1 4.436046e-03 9.998411e-04 -0.2254 0.3879 792.9402)" gradientUnits="userSpaceOnUse">
		<stop  offset="6.121258e-07" style="stop-color:#040304;stop-opacity:0.6"/>
		<stop  offset="0.3726" style="stop-color:#060506;stop-opacity:0.3764"/>
		<stop  offset="0.5069" style="stop-color:#0E0A0B;stop-opacity:0.2959"/>
		<stop  offset="0.6026" style="stop-color:#1B1415;stop-opacity:0.2385"/>
		<stop  offset="0.68" style="stop-color:#2B2525;stop-opacity:0.192"/>
		<stop  offset="0.7463" style="stop-color:#413B3C;stop-opacity:0.1522"/>
		<stop  offset="0.805" style="stop-color:#5C5858;stop-opacity:0.117"/>
		<stop  offset="0.8581" style="stop-color:#7B7778;stop-opacity:8.513927e-02"/>
		<stop  offset="0.9069" style="stop-color:#A09D9E;stop-opacity:5.585390e-02"/>
		<stop  offset="0.9523" style="stop-color:#CAC9C8;stop-opacity:2.860576e-02"/>
		<stop  offset="0.9926" style="stop-color:#F6F6F6;stop-opacity:4.428148e-03"/>
		<stop  offset="1" style="stop-color:#FFFFFF;stop-opacity:0"/>
	</radialGradient>
	<ellipse class="st0" cx="312.2" cy="437" rx="253.5" ry="57.9"/>
	<g>
		<polygon class="st1" points="35.1,230.9 35.1,436.6 381.5,476.8 381.5,207.1 		"/>
		<g>
			<polygon class="st2" points="381.5,207.1 35.1,230.9 35.1,265.6 381.5,305.5 			"/>
		</g>
		<polygon class="st3" points="381.5,207.1 381.5,476.8 500.3,411.9 500.3,198.9 		"/>
		<g>
			<polygon class="st4" points="500.3,198.9 381.5,207.1 381.5,304.2 500.3,236.2 			"/>
		</g>
		<polygon class="st5" points="0.3,145 0.3,240.1 376,279.4 375.1,188 		"/>
		<polygon class="st1" points="376,279.4 524.1,199.9 524.1,129.5 375.1,188 		"/>
		<polygon class="st6" points="0.3,145 375.1,188 524.1,129.5 227,94.7 		"/>
		<polygon class="st7" points="180.8,164.4 270.9,114.6 278.3,115.3 253,174.1 270.1,469.6 203.1,460 		"/>
		<path class="st8" d="M209.3,265.3c16.4,1.8,32.9,3.2,49.3,5.1l-5.6-96.2l25.3-58.8l-7.4-0.7l-90.1,49.9l7.4,98.2
			C195.2,263.6,202.3,264.5,209.3,265.3z"/>
		<path class="st8" d="M204.2,167.3c16.5,1.7,33,3.4,49.5,5.1l24.6-57.1l-7.4-0.7l-90.1,49.9v0.3
			C188.6,165.6,196.4,166.5,204.2,167.3z"/>
		<path class="st8" d="M206.6,298.2c18,1,35.9,2.4,53.8,3.9l-1.6-27.9c-23.4-2.7-46.9-4.3-70.3-7.5l2.3,30.8
			C196.1,297.6,201.3,297.9,206.6,298.2z"/>
		<path class="st7" d="M233.8,113.7c0,0-74.5-10.2-147.7,33.7c21.6-0.6,21.6-0.6,21.6-0.6s-13.4,10.8-17.2,26.1
			c28-21.6,181.2-46.7,181.2-46.7S266.3,120,233.8,113.7z"/>
		<path class="st9" d="M175.2,145c47.6-10.9,96.5-18.9,96.5-18.9s-5.5-6.1-38-12.5c0,0-34.9-4.8-80.4,6.3
			C160.7,128.3,168.1,136.6,175.2,145z"/>
		<path class="st7" d="M262,116.4c0,0,12.4,24,53.4,52.3l10.8-22.5l41,19.8l-23.3-46.6C343.9,119.4,274.5,91.5,262,116.4z"/>
		<path class="st9" d="M281.3,140.4c2.4-0.5,4.9-1,7.4-1.4c21.5-2.9,43.4-2.4,65-0.2l-9.7-19.4c0,0-69.5-27.9-81.9-3
			C262,116.4,267.1,126.1,281.3,140.4z"/>
		<polygon class="st7" points="337.2,125.2 449.8,142.5 416.2,130.7 428.5,122.5 352.7,112.1 		"/>
		<path class="st8" d="M391.6,117.4l-38.9-5.4l-15.4,13.2l40.3,6.2C382.4,126.9,387.2,122.3,391.6,117.4z"/>
		<path class="st7" d="M274.6,109.4c0,0,18.6-24.6,47.6-39.5s61-22.3,64-1.5s7.4,49.9-36.5,60.3C328.9,132.4,288,122,274.6,109.4z"
			/>
		<g>
			<path class="st8" d="M328.2,78.8c-13.4,0-25.2,4.8-35,11.2c-11.7,10.4-18.5,19.3-18.5,19.3c13,12.3,52.1,22.5,73.4,19.6
				C361.2,113.7,358,78.8,328.2,78.8z"/>
		</g>
		<g>
			<path class="st10" d="M343.9,119.4c8.9-6.3,2.2-31.4-10.3-33.6c-13.6-2-44.5,16.9-57.2,25.1c3.5,2.8,8.3,5.5,13.8,7.8
				C308.4,120.9,337.9,123.7,343.9,119.4z"/>
		</g>
		<path class="st7" d="M270.9,114.6c0,0-12.7-21.6-58.8-61.8c-28.3-24.6-34.2-25.3-50.6-5.2s-13.4,38,8.2,54.3
			C191.2,118.3,244.8,132.4,270.9,114.6z"/>
		<g>
			<path class="st8" d="M154.8,64c-1.8,1.9-3,4-3.6,6.3c-0.8,11.2,5.4,21.7,18.5,31.7c21.6,16.4,75.2,30.5,101.2,12.7
				C226.2,73.6,171.9,46.1,154.8,64z"/>
		</g>
		<g>
			<path class="st10" d="M165.2,68.4c-7.4,3.7-7.4,20.1,31.3,36.5c24.2,10.2,52.4,8.6,70.2,5.9c-3-2.6-6-5.2-9-7.7
				C205.8,71.8,172.4,64.8,165.2,68.4z"/>
		</g>
		<path class="st7" d="M270.9,114.6c0,0-28.3-24.6-32-64s11.2-55.8,25.3-49.1c14.1,6.7,43.9,10.4,42.4,17.9
			C305.1,26.7,285.8,108.6,270.9,114.6z"/>
		<g>
			<path class="st8" d="M251.8,1.7c-9,5-15.5,21.3-12.9,48.9c3.7,39.5,32,64,32,64c0.3-0.1,0.7-0.4,1-0.6
				c-2.1-32.9-11.4-90.9-16.7-107.4C254.4,3.9,253.2,2.4,251.8,1.7z"/>
		</g>
		<g>
			<path class="st10" d="M253.6,19.1c-7.5,4.1-12.9,17.6-10.7,40.5c3.1,32.7,26.5,53,26.5,53c0.3-0.1,0.6-0.3,0.9-0.5
				c-1.8-27.3-9.5-75.4-13.8-89C255.7,21,254.8,19.7,253.6,19.1z"/>
		</g>
		<path class="st11" d="M263,7.1c0,0,12.5-2.7,19.6,4.3c8.2,4.9,21.7,0,17.9,12.5C296.7,36.4,288,70.1,288,70.1s6-30.4,4.9-42.4
			s-1.6,0.5-13-7.6S273.9,10.9,263,7.1z"/>
		<path class="st11" d="M344,76.7c0,0,1.1-10.3,10.9-7.6c9.8,2.7,12-1.6,19.6-4.9c7.6-3.3,14.1,13.6,6.5,38.6c0-19.6,1.1-38-6-30.4
			s-12.5,3.8-18.5,1.1C350.6,70.7,344,76.7,344,76.7z"/>
		<path class="st11" d="M182.9,36.2c0,0-8.2,2.6-8.2,7.2s-2.6,4.1-6.7,7.2s24.1,2.6,66.1,30.2C216.2,55.7,196.7,39.8,182.9,36.2z"/>
	</g>
</g>
</svg>
