<?xml version="1.0" encoding="utf-8"?>
<!-- Generator: Adobe Illustrator 27.9.0, SVG Export Plug-In . SVG Version: 6.00 Build 0)  -->
<svg version="1.1" id="Слой_1" xmlns="http://www.w3.org/2000/svg" xmlns:xlink="http://www.w3.org/1999/xlink" x="0px" y="0px"
	 viewBox="0 0 230 210" style="enable-background:new 0 0 230 210;" xml:space="preserve">
<style type="text/css">
	.st0{fill:#3D694F;}
	.st1{opacity:0.41;fill:#3D694F;}
	.st2{fill:#6EA754;}
	.st3{fill:#74AC5B;}
	.st4{fill:#58856C;}
	.st5{fill:#B2CE57;}
	.st6{fill:#7AB55E;}
	.st7{fill:#C5333B;}
	.st8{fill:#DD4633;}
	.st9{fill:#E94D38;}
	.st10{fill:#931829;}
</style>
<g>
	<g>
		<polygon class="st0" points="15.3,101.7 15.3,192 167.4,209.7 167.4,91.3 		"/>
		<g>
			<polygon class="st1" points="167.4,91.3 15.3,101.7 15.3,116.9 167.4,134.5 			"/>
		</g>
		<polygon class="st2" points="167.4,91.3 167.4,209.7 219.5,181.2 219.5,87.7 		"/>
		<g>
			<polygon class="st2" points="219.5,87.7 167.4,91.3 167.4,133.9 219.5,104 			"/>
		</g>
	</g>
	<g>
		<path class="st3" d="M63.8,132.6c0.9,1.5,0.8,3.2-0.2,3.8c-1,0.6-2.5-0.2-3.4-1.7c-0.9-1.5-0.8-3.2,0.2-3.8
			C61.4,130.4,62.9,131.1,63.8,132.6z"/>
		<path class="st3" d="M57,165c0.9,1.5,0.8,3.2-0.2,3.8c-1,0.6-2.5-0.2-3.4-1.7c-0.9-1.5-0.8-3.2,0.2-3.8
			C54.6,162.7,56.2,163.5,57,165z"/>
		<path class="st3" d="M144.6,151.6c0.9,1.5,0.8,3.2-0.2,3.8c-1,0.6-2.5-0.2-3.4-1.7c-0.9-1.5-0.8-3.2,0.2-3.8
			C142.2,149.4,143.7,150.1,144.6,151.6z"/>
		<path class="st2" d="M197.4,152.2c-0.9,1.5-2.4,2.3-3.4,1.7c-1-0.6-1.1-2.3-0.2-3.8c0.9-1.5,2.4-2.3,3.4-1.7
			C198.1,149,198.2,150.7,197.4,152.2z"/>
		<path class="st2" d="M210.4,159.7c-1.4,2.5-3.9,3.8-5.6,2.8c-1.6-0.9-1.8-3.7-0.4-6.2c1.4-2.5,3.9-3.7,5.6-2.8
			C211.6,154.4,211.8,157.2,210.4,159.7z"/>
		<path class="st3" d="M137,154.7c0.5,0.9,0.5,1.9-0.1,2.3c-0.6,0.3-1.5-0.1-2-1c-0.5-0.9-0.5-1.9,0.1-2.3
			C135.5,153.4,136.4,153.8,137,154.7z"/>
	</g>
	<polygon class="st4" points="0,64 0,105.7 165,123 164.6,82.9 	"/>
	<g>
		<polygon class="st5" points="165,123 230,88.1 230,57.2 164.6,82.9 		"/>
		<polygon class="st6" points="0,64 164.6,82.9 230,57.2 99.6,41.9 		"/>
	</g>
	<polygon class="st7" points="79.3,72.5 118.8,50.6 122.1,51 111,76.8 118.5,206.5 89.1,202.3 	"/>
	<path class="st7" d="M91.8,116.8c7.2,0.8,14.4,1.4,21.6,2.2L111,76.8L122.1,51l-3.3-0.3L79.3,72.5l3.3,43.1
		C85.6,116.1,88.7,116.5,91.8,116.8z"/>
	<path class="st7" d="M89.6,73.8c7.2,0.8,14.5,1.5,21.7,2.2L122.1,51l-3.3-0.3L79.3,72.5l0,0.2C82.7,73.1,86.1,73.4,89.6,73.8z"/>
	<path class="st7" d="M90.6,131.2c7.9,0.4,15.8,1,23.6,1.7l-0.7-12.3c-10.3-1.2-20.6-1.9-30.9-3.3l1,13.5
		C86,131,88.3,131.1,90.6,131.2z"/>
	<path class="st8" d="M102.5,50.2c0,0-32.7-4.5-64.9,14.8c9.5-0.3,9.5-0.3,9.5-0.3s-5.9,4.8-7.5,11.5c12.3-9.5,79.6-20.5,79.6-20.5
		S116.8,53,102.5,50.2z"/>
	<path class="st8" d="M76.8,64c20.9-4.8,42.4-8.3,42.4-8.3s-2.4-2.7-16.7-5.5c0,0-15.3-2.1-35.3,2.8C70.5,56.7,73.7,60.3,76.8,64z"
		/>
	<path class="st8" d="M114.9,51.4c0,0,5.5,10.6,23.5,23l4.7-9.9l18,8.7l-10.2-20.5C150.9,52.8,120.4,40.5,114.9,51.4z"/>
	<path class="st8" d="M123.4,62c1.1-0.2,2.1-0.5,3.3-0.6c9.5-1.3,19-1.1,28.5-0.1l-4.3-8.5c0,0-30.5-12.2-36-1.3
		C114.9,51.4,117.1,55.7,123.4,62z"/>
	<polygon class="st8" points="147.9,55.3 197.4,62.9 182.6,57.7 188,54.1 154.7,49.5 	"/>
	<path class="st7" d="M171.8,51.9l-17.1-2.4l-6.8,5.8l17.7,2.7C167.8,56.1,169.9,54,171.8,51.9z"/>
	<path class="st9" d="M120.4,48.4c0,0,8.2-10.8,20.9-17.3c12.7-6.5,26.8-9.8,28.1-0.7c1.3,9.1,3.3,21.9-16,26.5
		C144.3,58.5,126.3,53.9,120.4,48.4z"/>
	<g>
		<path class="st7" d="M144,35c-5.9,0-11.1,2.1-15.4,4.9c-5.2,4.5-8.1,8.5-8.1,8.5c5.7,5.4,22.9,9.9,32.2,8.6
			C158.5,50.3,157.1,35,144,35z"/>
	</g>
	<g>
		<path class="st10" d="M150.9,52.8c3.9-2.8,1-13.8-4.5-14.8c-6-0.9-19.6,7.4-25.1,11c1.5,1.2,3.6,2.4,6.1,3.4
			C135.3,53.4,148.2,54.6,150.9,52.8z"/>
	</g>
	<path class="st9" d="M118.8,50.6c0,0-5.6-9.5-25.8-27.1c-12.4-10.8-15-11.1-22.2-2.3s-5.9,16.7,3.6,23.9
		C83.8,52.3,107.4,58.5,118.8,50.6z"/>
	<g>
		<path class="st7" d="M67.8,28.4c-0.8,0.8-1.3,1.8-1.6,2.8c-0.3,4.9,2.4,9.5,8.1,13.9c9.5,7.2,33,13.4,44.4,5.6
			C99.2,32.7,75.3,20.6,67.8,28.4z"/>
	</g>
	<g>
		<path class="st10" d="M72.4,30.4c-3.3,1.6-3.3,8.8,13.7,16c10.6,4.5,23,3.8,30.8,2.6c-1.3-1.2-2.6-2.3-4-3.4
			C90.2,31.9,75.6,28.8,72.4,30.4z"/>
	</g>
	<path class="st9" d="M118.8,50.6c0,0-12.4-10.8-14.1-28.1C103.1,5.2,109.7-2,115.9,1c6.2,2.9,19.3,4.6,18.6,7.8
		C133.8,12.1,125.3,48,118.8,50.6z"/>
	<g>
		<path class="st7" d="M110.4,1.1c-3.9,2.2-6.8,9.3-5.7,21.5c1.6,17.3,14.1,28.1,14.1,28.1c0.2-0.1,0.3-0.2,0.5-0.3
			c-0.9-14.4-5-39.9-7.3-47.1C111.6,2.1,111,1.4,110.4,1.1z"/>
	</g>
	<g>
		<path class="st10" d="M111.2,8.7c-3.3,1.8-5.6,7.7-4.7,17.8c1.4,14.4,11.6,23.3,11.6,23.3c0.1-0.1,0.3-0.1,0.4-0.2
			c-0.8-12-4.2-33.1-6.1-39.1C112.2,9.6,111.7,9,111.2,8.7z"/>
	</g>
	<path class="st9" d="M115.4,3.5c0,0,5.5-1.2,8.6,1.9c3.6,2.1,9.5,0,7.9,5.5c-1.7,5.5-5.5,20.3-5.5,20.3s2.6-13.4,2.1-18.6
		c-0.5-5.2-0.7,0.2-5.7-3.3C117.8,5.6,120.1,5.1,115.4,3.5z"/>
	<path class="st9" d="M150.9,34c0,0,0.5-4.5,4.8-3.3c4.3,1.2,5.2-0.7,8.6-2.1c3.3-1.4,6.2,6,2.9,16.9c0-8.6,0.5-16.7-2.6-13.4
		c-3.1,3.3-5.5,1.7-8.1,0.5C153.8,31.4,150.9,34,150.9,34z"/>
	<path class="st9" d="M80.2,16.2c0,0-3.6,1.1-3.6,3.1c0,2-1.1,1.8-2.9,3.1c-1.8,1.3,10.6,1.1,29,13.3C94.8,24.8,86.3,17.8,80.2,16.2
		z"/>
</g>
</svg>
