<?xml version="1.0" encoding="utf-8"?>
<!-- Generator: Adobe Illustrator 27.9.0, SVG Export Plug-In . SVG Version: 6.00 Build 0)  -->
<svg version="1.1" id="Слой_1" xmlns="http://www.w3.org/2000/svg" xmlns:xlink="http://www.w3.org/1999/xlink" x="0px" y="0px"
	 viewBox="0 0 336 248" style="enable-background:new 0 0 336 248;" xml:space="preserve">
<style type="text/css">
	.st0{opacity:0.38;fill:#1E1E1C;}
	.st1{fill:#BACEEC;}
	.st2{opacity:0.41;fill:#395CA7;}
	.st3{fill:#6A79B9;}
	.st4{fill:#796AAE;}
	.st5{fill:#07070A;}
	.st6{fill:#D0EBF9;}
	.st7{fill:#FFFFFF;}
	.st8{fill:#383E90;}
	.st9{fill:#514696;}
	.st10{fill:#6EA754;}
	.st11{fill:#4C5FA9;}
</style>
<g>
	<ellipse class="st0" cx="161.9" cy="211.9" rx="161.6" ry="35.6"/>
	<g>
		<g>
			<polygon class="st1" points="17.6,101.5 17.6,207.5 196.2,228.3 196.2,89.2 			"/>
			<g>
				<polygon class="st2" points="196.2,89.2 17.6,101.5 17.6,119.4 196.2,140 				"/>
			</g>
			<polygon class="st3" points="196.2,89.2 196.2,228.3 257.4,194.8 257.4,91.2 			"/>
			<g>
				<polygon class="st4" points="257.4,91.2 196.2,89.2 196.2,139.3 257.4,104.2 				"/>
			</g>
			<polygon class="st5" points="228.8,104.3 114.8,95.4 79.8,107.8 196.2,120.3 			"/>
			<polygon class="st1" points="257.4,90.3 112.2,77.3 114.8,95.4 228.8,104.3 			"/>
			<polygon class="st3" points="16.6,101 79.8,107.8 114.8,95.4 112.2,77.3 			"/>
		</g>
		<g>
			<polygon class="st6" points="143.3,0.5 107.9,34.3 227.1,188.3 260.8,155.4 			"/>
			<polygon class="st3" points="227.1,188.3 309.5,215.2 335.7,190.1 260.8,155.4 			"/>
			<polygon class="st7" points="143.3,0.5 260.8,155.4 335.7,190.1 242.8,67 			"/>
			<path class="st8" d="M173,121.2c5.2,6.7,10.5,13.4,15.7,20.2l33.9-36.3l30.9-11.5l-2.4-3l-50.7-15.8l-34,37.7
				C168.6,115.3,170.7,118.3,173,121.2z"/>
			<path class="st9" d="M207.7,84.4c5.2,6.8,10.5,13.5,15.7,20.3l30-11.2l-2.4-3l-50.7-15.8l-0.1,0.1
				C202.7,78,205.2,81.2,207.7,84.4z"/>
			<path class="st8" d="M238.2,76.3c0,0-22.7-31.4-65.2-43c7.9,7.8,7.9,7.8,7.9,7.8s-8.8-1.1-15.9,2.9c18,2.7,82,50.9,82,50.9
				S247.4,90.7,238.2,76.3z"/>
			<path class="st9" d="M205.6,65.6c21,13.9,41.4,29.3,41.4,29.3s0.3-4.2-8.9-18.6c0,0-10.7-14.7-31-27.7
				C206.7,54.3,206.2,60,205.6,65.6z"/>
			<path class="st8" d="M247.2,87.8c0,0-4.5,13.2-0.4,38.5l12.2-4l7.2,22.3l9.1-25.3C275.3,119.4,260.9,83.6,247.2,87.8z"/>
			<path class="st9" d="M245.1,103.5c1.1,0.7,2.1,1.5,3.2,2.3c8.8,7,16.4,15.3,23.2,24.1l3.8-10.5c0,0-14.4-35.8-28.1-31.6
				C247.2,87.8,245.4,93.1,245.1,103.5z"/>
			<polygon class="st8" points="270.7,119 304.4,167.1 296.8,150.3 304.3,152 281.1,120 			"/>
			<path class="st9" d="M293,136.4L281.1,120l-10.4-1.1l12.1,17.2C286.2,136.4,289.6,136.5,293,136.4z"/>
			<path class="st8" d="M254.3,90c0,0,15.8-1.8,31.7,3.7c15.9,5.5,30.1,14.8,23.4,23.3c-6.7,8.5-15.9,20.5-35.5,7.9
				C265.1,118.4,254.4,99.5,254.3,90z"/>
			<g>
				<path class="st9" d="M284.8,99.1c-4.8-5-10.8-7.7-16.7-9.1c-8-0.7-13.8,0-13.8,0c0.1,9.3,10.2,27.4,18.9,34.3
					C283.5,123.8,295.4,110.2,284.8,99.1z"/>
			</g>
			<g>
				<path class="st10" d="M275.3,119.4c5.5,1.1,12.5-10.4,8.8-15.8C280,97.7,262,93,254.4,91.2c0.2,2.3,0.9,5,2,7.9
					C262.1,106.7,271.6,118.6,275.3,119.4z"/>
			</g>
			<path class="st8" d="M251.1,90.4c0,0,3.5-12.4,2.1-43.9c-0.9-19.3-2.8-21.8-16.1-20.7c-13.3,1.1-18.9,8.5-17.3,22.4
				S235.1,87.1,251.1,90.4z"/>
			<g>
				<path class="st9" d="M228.6,29.1c-1.3,0-2.6,0.3-3.6,0.9c-4.5,3.7-6.2,9.8-5.2,18.2c1.6,13.9,15.4,38.9,31.3,42.2
					C250.4,59.2,241.3,29.2,228.6,29.1z"/>
			</g>
			<g>
				<path class="st10" d="M230.6,34.6c-4-1.4-10.1,4.4-2.5,24.6c4.8,12.6,15.5,22.6,22.8,28.2c-0.1-2-0.2-4.1-0.3-6.1
					C243.8,50.9,234.5,36,230.6,34.6z"/>
			</g>
			<path class="st8" d="M251.1,90.4c0,0-0.9-19.3,12.5-34.7c13.4-15.4,24.8-15.7,27.3-8.1c2.5,7.7,11.8,20.1,8.5,22.2
				C296,71.9,258.6,93.9,251.1,90.4z"/>
			<g>
				<path class="st9" d="M286.3,43.1c-5.1-1.6-13.5,1.8-22.8,12.6c-13.4,15.4-12.5,34.7-12.5,34.7c0.2,0.1,0.4,0.1,0.6,0.2
					c11.5-12.5,29.8-36.7,34.1-44.5C286.4,44.9,286.6,43.9,286.3,43.1z"/>
			</g>
			<g>
				<path class="st10" d="M280.5,50c-4.2-1.3-11.1,1.5-18.9,10.4c-11.1,12.8-10.3,28.8-10.3,28.8c0.1,0.1,0.3,0.1,0.5,0.2
					C261.3,79,276.4,59,280,52.5C280.5,51.5,280.7,50.6,280.5,50z"/>
			</g>
			<path class="st11" d="M288.3,49.2c0,0,5.5,3.7,5.3,8.8c1.1,4.8,7.7,8.1,1.7,11.1c-6,3-21.7,11.8-21.7,11.8s13.5-8.6,17.5-13.3
				c4.1-4.7-0.8-0.4-1.8-7.6C288.4,53,290.8,54.6,288.3,49.2z"/>
			<path class="st11" d="M291.2,104.2c0,0,4.2-3.3,6.7,1.3c2.5,4.6,4.9,3.9,8.8,5.5c3.9,1.7,0,10.1-12.1,16.2
				c7.3-7,14.6-13.1,9.2-13.1c-5.4,0.1-5.9-3.3-7-6.5C295.8,104.5,291.2,104.2,291.2,104.2z"/>
			<path class="st11" d="M248.9,29.7c0,0-3.9-2.1-5.6-0.5c-1.7,1.6-2.4,0.5-5,0.1c-2.6-0.4,7.6,9.9,12.3,35.4
				C253.5,49.1,252.5,36.2,248.9,29.7z"/>
		</g>
	</g>
</g>
</svg>
