<?xml version="1.0" encoding="utf-8"?>
<!-- Generator: Adobe Illustrator 27.9.0, SVG Export Plug-In . SVG Version: 6.00 Build 0)  -->
<svg version="1.1" id="Слой_1" xmlns="http://www.w3.org/2000/svg" xmlns:xlink="http://www.w3.org/1999/xlink" x="0px" y="0px"
	 viewBox="0 0 264 174" style="enable-background:new 0 0 264 174;" xml:space="preserve">
<style type="text/css">
	.st0{fill:#C0181B;}
	.st1{opacity:0.41;fill:#3D694F;}
	.st2{fill:#8C1812;}
	.st3{fill:#6EA754;}
	.st4{fill:#0F1413;}
	.st5{fill:#36160F;}
	.st6{fill:#CD2825;}
	.st7{fill:#A01A16;}
	.st8{fill:#E54F4E;}
	.st9{fill:#E9E555;}
	.st10{fill:#DEC516;}
	.st11{fill:#F7EA56;}
	.st12{fill:#998919;}
	.st13{fill:#5A4E17;}
	.st14{fill:#FDF7C5;}
</style>
<g>
	<polygon class="st0" points="60.5,66.3 60.5,156.1 211.7,173.7 211.7,55.9 	"/>
	<g>
		<polygon class="st1" points="211.7,55.9 60.5,66.3 60.5,81.5 211.7,98.9 		"/>
	</g>
	<polygon class="st2" points="211.7,55.9 211.7,173.7 263.6,145.4 263.6,57.6 	"/>
	<g>
		<polygon class="st3" points="263.6,57.6 211.7,55.9 211.7,98.3 263.6,68.6 		"/>
	</g>
	<polygon class="st4" points="239.4,68.7 142.8,61.2 113.1,71.7 211.7,82.2 	"/>
	<polygon class="st5" points="263.6,56.9 140.6,45.8 142.8,61.2 239.4,68.7 	"/>
	<polygon class="st2" points="59.6,65.9 113.1,71.7 142.8,61.2 140.6,45.8 	"/>
	<g>
		<polygon class="st6" points="0.4,114.1 20,150.7 172.7,88.5 153.5,53.5 		"/>
		<polygon class="st7" points="172.7,88.5 213.4,27.4 198.9,0.3 153.5,53.5 		"/>
		<polygon class="st8" points="0.4,114.1 153.5,53.5 198.9,0.3 77.3,48.1 		"/>
		<path class="st9" d="M105.4,117.1c6.7-2.7,13.3-5.6,20-8.2l-22-35.9l-2.4-27.9l-3,1.2L73.7,84.1l23.1,36.3
			C99.7,119.3,102.6,118.2,105.4,117.1z"/>
		<path class="st10" d="M83.5,80.7c6.7-2.7,13.4-5.5,20.1-8.2l-2.3-27l-3,1.2L73.9,84.4l0.1,0.1C77.1,83.3,80.3,82,83.5,80.7z"/>
		<path class="st9" d="M83.7,53.6c0,0-30.8,11.4-49.9,43.4c8.2-4.7,8.2-4.7,8.2-4.7s-2.9,6.9-1.2,13.6c6.3-14.1,60.2-55.3,60.2-55.3
			S97.5,49.4,83.7,53.6z"/>
		<path class="st10" d="M67.7,78.1C83.8,64.1,101,51,101,51s-3.4-1.2-17.2,3c0,0-14.4,5.4-29.7,19C58.7,74.6,63.2,76.3,67.7,78.1z"
			/>
		<path class="st9" d="M95.1,48.9c0,0,9.7,6.7,31.3,9.1l-0.5-10.9l19.9-0.8l-18.6-13.1C127.2,33.2,94.7,36.7,95.1,48.9z"/>
		<path class="st10" d="M107.6,54.5c0.8-0.7,1.7-1.4,2.6-2.1c7.7-5.6,16.2-9.9,25-13.5l-7.7-5.5c0,0-32.5,3.6-32.2,15.7
			C95.3,49.2,99.2,51.9,107.6,54.5z"/>
		<polygon class="st9" points="125.9,36.8 172.8,20.2 157.4,22.6 160.4,16.9 129.1,28.5 		"/>
		<path class="st10" d="M145.3,22.9l-16.1,5.9l-3.2,8.2l16.8-5.9C143.8,28.5,144.7,25.7,145.3,22.9z"/>
		<path class="st11" d="M98.7,43.9c0,0,2.1-13.3,10.2-25C117,7.2,127.8-2.3,133.2,5.2c5.4,7.4,13.1,17.7-1.6,30.7
			C124.3,41.6,106.4,46,98.7,43.9z"/>
		<g>
			<path class="st12" d="M113,21.1c-5.2,2.8-8.7,7-11.2,11.5c-2.4,6.4-3.2,11.3-3.2,11.3c7.6,2.1,24.7-2.1,32.3-7.6
				C132.9,27.8,124.5,15,113,21.1z"/>
		</g>
		<g>
			<path class="st13" d="M127.4,33.5c2.1-4.2-5.6-12.5-10.9-10.8c-5.7,2-13.7,15.7-16.8,21.4c1.9,0.4,4.3,0.4,6.9,0.2
				C114.1,41.4,126,36.4,127.4,33.5z"/>
		</g>
		<path class="st11" d="M98.3,46.7c0,0-9.3-5.7-35.4-11.7c-15.9-3.6-18.4-2.7-20.6,8.4C40.2,54.5,45,60.8,56.7,62.7
			S91.9,58.9,98.3,46.7z"/>
		<g>
			<path class="st12" d="M43.2,51.1c-0.3,1.1-0.3,2.2-0.1,3.2c2,4.5,6.6,7.3,13.7,8.4c11.7,1.9,35.2-3.7,41.6-16
				C72.7,40.1,46.1,40.7,43.2,51.1z"/>
		</g>
		<g>
			<path class="st13" d="M48.1,50.7c-2.1,3,1.3,9.3,19.5,7.6c11.4-1,21.9-7.5,28.2-12.2c-1.7-0.4-3.4-0.8-5.1-1.1
				C64.4,43.6,50.1,47.8,48.1,50.7z"/>
		</g>
		<path class="st11" d="M98.3,46.7c0,0-15.9-3.6-25.5-18.1c-9.6-14.4-7.2-23.8-0.4-24.1c6.8-0.3,19.1-5,20-1.9S102.8,41.3,98.3,46.7
			z"/>
		<g>
			<path class="st12" d="M67.7,7.1c-2.4,3.8-1.6,11.4,5.1,21.5c9.6,14.4,25.5,18.1,25.5,18.1c0.1-0.1,0.2-0.3,0.3-0.4
				C91,34,75.4,13.6,70,8.3C69.2,7.5,68.4,7.1,67.7,7.1z"/>
		</g>
		<g>
			<path class="st13" d="M72,13.5c-2,3.1-1.3,9.4,4.2,17.8c7.9,12,21.1,15,21.1,15c0.1-0.1,0.2-0.2,0.2-0.4
				c-6.3-10.1-19.2-27.1-23.6-31.4C73.2,13.8,72.6,13.5,72,13.5z"/>
		</g>
		<path class="st14" d="M73.1,6.9c0,0,4.3-3.6,8.4-2.4c4.1,0.2,8.4-4.5,9.5,1.1c1.1,5.6,4.7,20.4,4.7,20.4s-4-13-6.8-17.3
			c-2.9-4.4-0.5,0.5-6.6-0.2C76.2,7.7,78.1,6.1,73.1,6.9z"/>
		<path class="st14" d="M118.7,17c0,0-1.7-4.2,2.6-5.2c4.3-1,4.3-3.1,6.5-5.9c2.3-2.8,8.2,2.3,10.5,13.5c-4-7.5-7.4-14.9-8.6-10.5
			c-1.2,4.4-4,4-6.9,4.2C119.9,13.4,118.7,17,118.7,17z"/>
		<path class="st14" d="M48.3,34.6c0,0-2.6,2.7-1.7,4.5c0.9,1.8-0.1,2.1-1.1,4.1c-0.9,2,9.8-4,31.7-2C65.1,35.3,54.3,33.2,48.3,34.6
			z"/>
	</g>
</g>
</svg>
