<?xml version="1.0" encoding="utf-8"?>
<!-- Generator: Adobe Illustrator 27.9.0, SVG Export Plug-In . SVG Version: 6.00 Build 0)  -->
<svg version="1.1" id="Слой_1" xmlns="http://www.w3.org/2000/svg" xmlns:xlink="http://www.w3.org/1999/xlink" x="0px" y="0px"
	 viewBox="0 0 207 188" style="enable-background:new 0 0 207 188;" xml:space="preserve">
<style type="text/css">
	.st0{fill:#3D694F;}
	.st1{opacity:0.41;fill:#3D694F;}
	.st2{fill:#6EA754;}
	.st3{fill:#58856C;}
	.st4{fill:#B2CE57;}
	.st5{fill:#7AB55E;}
	.st6{fill:#C5333B;}
	.st7{fill:#DD4633;}
	.st8{fill:#E94D38;}
	.st9{fill:#491010;}
</style>
<g>
	<polygon class="st0" points="14,91.1 14,172.1 150.5,187.9 150.5,81.7 	"/>
	<g>
		<polygon class="st1" points="150.5,81.7 14,91.1 14,104.7 150.5,120.4 		"/>
	</g>
	<polygon class="st2" points="150.5,81.7 150.5,187.9 197.3,162.3 197.3,78.5 	"/>
	<g>
		<polygon class="st2" points="197.3,78.5 150.5,81.7 150.5,119.9 197.3,93.1 		"/>
	</g>
	<polygon class="st3" points="0.4,57.2 0.4,94.7 148.3,110.1 148,74.1 	"/>
	<polygon class="st4" points="148.3,110.1 206.6,78.8 206.6,51.1 148,74.1 	"/>
	<polygon class="st5" points="0.4,57.2 148,74.1 206.6,51.1 89.6,37.4 	"/>
	<polygon class="st6" points="71.4,64.9 106.9,45.2 109.8,45.5 99.9,68.7 106.6,185.1 80.2,181.3 	"/>
	<path class="st6" d="M82.7,104.6c6.5,0.7,13,1.2,19.4,2l-2.2-37.9l10-23.2l-2.9-0.3L71.4,64.9l2.9,38.7
		C77.1,103.9,79.9,104.3,82.7,104.6z"/>
	<path class="st6" d="M80.7,66c6.5,0.7,13,1.3,19.5,2l9.7-22.5l-2.9-0.3L71.4,64.9l0,0.1C74.5,65.3,77.6,65.7,80.7,66z"/>
	<path class="st6" d="M81.6,117.5c7.1,0.4,14.1,0.9,21.2,1.5l-0.6-11c-9.2-1.1-18.5-1.7-27.7-2.9l0.9,12.1
		C77.5,117.3,79.5,117.4,81.6,117.5z"/>
	<path class="st7" d="M92.3,44.9c0,0-29.3-4-58.2,13.3c8.5-0.3,8.5-0.3,8.5-0.3s-5.3,4.3-6.8,10.3c11-8.5,71.4-18.4,71.4-18.4
		S105.1,47.4,92.3,44.9z"/>
	<path class="st7" d="M69.2,57.2c18.8-4.3,38-7.4,38-7.4s-2.2-2.4-14.9-4.9c0,0-13.7-1.9-31.7,2.5C63.5,50.6,66.4,53.9,69.2,57.2z"
		/>
	<path class="st7" d="M103.4,45.9c0,0,4.9,9.5,21,20.6l4.2-8.9l16.1,7.8l-9.2-18.3C135.7,47.1,108.3,36.2,103.4,45.9z"/>
	<path class="st7" d="M111,55.4c1-0.2,1.9-0.4,2.9-0.5c8.5-1.2,17.1-1,25.6-0.1l-3.8-7.7c0,0-27.4-11-32.3-1.2
		C103.4,45.9,105.4,49.8,111,55.4z"/>
	<polygon class="st7" points="133,49.4 177.4,56.2 164.2,51.6 169,48.4 139.1,44.2 	"/>
	<path class="st6" d="M154.4,46.4l-15.3-2.1l-6.1,5.2l15.9,2.4C150.8,50.1,152.7,48.3,154.4,46.4z"/>
	<path class="st8" d="M108.4,43.2c0,0,7.3-9.7,18.8-15.5c11.4-5.9,24-8.8,25.2-0.6s2.9,19.6-14.4,23.7
		C129.8,52.3,113.7,48.2,108.4,43.2z"/>
	<g>
		<path class="st6" d="M129.5,31.2c-5.3,0-9.9,1.9-13.8,4.4c-4.6,4.1-7.3,7.6-7.3,7.6c5.1,4.9,20.5,8.9,28.9,7.7
			C142.5,44.9,141.2,31.2,129.5,31.2z"/>
	</g>
	<path class="st9" d="M135.7,47.1c3.5-2.5,0.9-12.4-4.1-13.2c-5.4-0.8-17.5,6.7-22.5,9.9C114.7,48.9,132.4,48.6,135.7,47.1z"/>
	<path class="st8" d="M106.9,45.2c0,0-5-8.5-23.2-24.3c-11.1-9.7-13.5-10-19.9-2.1S58.5,33.8,67,40.3
		C75.5,46.7,96.7,52.3,106.9,45.2z"/>
	<g>
		<path class="st6" d="M61.2,25.3c-0.7,0.7-1.2,1.6-1.4,2.5c-0.3,4.4,2.1,8.6,7.3,12.5c8.5,6.4,29.6,12,39.9,5
			C89.3,29.1,67.9,18.3,61.2,25.3z"/>
	</g>
	<path class="st9" d="M65.3,27.1c-2.9,1.5-2.9,7.9,12.3,14.4c9.5,4,20.6,3.4,27.6,2.3C90.3,31.1,65.7,24.9,65.3,27.1z"/>
	<path class="st8" d="M106.9,45.2c0,0-11.1-9.7-12.6-25.2c-1.5-15.5,4.4-22,10-19.3c5.6,2.6,17.3,4.1,16.7,7S112.8,42.9,106.9,45.2z
		"/>
	<g>
		<path class="st6" d="M99.4,0.8c-3.5,2-6.1,8.4-5.1,19.3c1.5,15.5,12.6,25.2,12.6,25.2c0.1-0.1,0.3-0.1,0.4-0.2
			c-0.8-13-4.5-35.8-6.6-42.3C100.4,1.7,99.9,1.1,99.4,0.8z"/>
	</g>
	<path class="st9" d="M100.1,7.7c-11.2,9.2,0.8,33.8,6.2,36.8c0.1,0,0.2-0.1,0.3-0.2C105.3,32.4,103.9,13.7,100.1,7.7z"/>
	<path class="st8" d="M103.8,2.9c0,0,4.9-1.1,7.7,1.7c3.2,1.9,8.6,0,7.1,4.9c-1.5,4.9-4.9,18.2-4.9,18.2s2.4-12,1.9-16.7
		c-0.4-4.7-0.6,0.2-5.1-3C106,4.8,108.1,4.4,103.8,2.9z"/>
	<path class="st8" d="M135.7,30.3c0,0,0.4-4.1,4.3-3c3.9,1.1,4.7-0.6,7.7-1.9c3-1.3,5.6,5.4,2.6,15.2c0-7.7,0.4-15-2.4-12
		c-2.8,3-4.9,1.5-7.3,0.4C138.3,28,135.7,30.3,135.7,30.3z"/>
	<path class="st8" d="M72.3,14.4c0,0-3.2,1-3.2,2.8c0,1.8-1,1.6-2.6,2.8c-1.6,1.2,9.5,1,26,11.9C85.4,22,77.7,15.8,72.3,14.4z"/>
</g>
</svg>
