<?xml version="1.0" encoding="utf-8"?>
<!-- Generator: Adobe Illustrator 27.9.0, SVG Export Plug-In . SVG Version: 6.00 Build 0)  -->
<svg version="1.1" id="Слой_1" xmlns="http://www.w3.org/2000/svg" xmlns:xlink="http://www.w3.org/1999/xlink" x="0px" y="0px"
	 viewBox="0 0 326 155" style="enable-background:new 0 0 326 155;" xml:space="preserve">
<style type="text/css">
	.st0{fill:#414898;}
	.st1{opacity:0.41;fill:#263574;}
	.st2{fill:#343674;}
	.st3{fill:#2B4998;}
	.st4{fill:#100D18;}
	.st5{fill:#363A7C;}
	.st6{fill:#414999;}
	.st7{fill:#345BA7;}
	.st8{fill:#464394;}
	.st9{fill:#077EC2;}
	.st10{fill:#312051;}
	.st11{fill:#181025;}
	.st12{fill:#38275F;}
	.st13{fill:#171414;}
	.st14{fill:#232450;}
	.st15{fill:#4F338A;}
</style>
<g>
	<polygon class="st0" points="1,47.5 1,137.3 152.3,154.8 152.3,37.1 	"/>
	<g>
		<polygon class="st1" points="152.3,37.1 1,47.5 1,62.6 152.3,80.1 		"/>
	</g>
	<polygon class="st2" points="152.3,37.1 152.3,154.8 204.1,126.5 204.1,38.7 	"/>
	<g>
		<polygon class="st3" points="204.1,38.7 152.3,37.1 152.3,79.4 204.1,49.8 		"/>
	</g>
	<polygon class="st4" points="179.9,49.9 83.4,42.3 53.6,52.8 152.3,63.4 	"/>
	<polygon class="st5" points="204.1,38 81.1,26.9 83.4,42.3 179.9,49.9 	"/>
	<polygon class="st6" points="0.2,47.1 53.6,52.8 83.4,42.3 81.1,26.9 	"/>
	<g>
		<polygon class="st7" points="115.3,11.9 98,49.6 239.7,133.9 256.1,97.5 		"/>
		<polygon class="st8" points="239.7,133.9 313,129.5 325.8,101.6 256.1,97.5 		"/>
		<polygon class="st9" points="115.3,11.9 256.1,97.5 325.8,101.6 214.4,33.4 		"/>
		<path class="st10" d="M176.2,97.8c6.2,3.7,12.5,7.3,18.6,11l15.4-39.2L231,51l-2.8-1.7l-44.8,3.3l-15,40.3
			C170.9,94.6,173.5,96.2,176.2,97.8z"/>
		<path class="st11" d="M192.1,58c6.2,3.7,12.5,7.4,18.7,11.1L231,51l-2.8-1.7l-44.8,3.3l-0.1,0.1C186.2,54.5,189.2,56.3,192.1,58z"
			/>
		<path class="st10" d="M213.7,42.2c0,0-27.7-17.7-64.7-13.6c8.7,3.7,8.7,3.7,8.7,3.7s-7.3,1.8-11.6,7.2
			c15.1-3.5,80.4,14.6,80.4,14.6S225.4,50.6,213.7,42.2z"/>
		<path class="st11" d="M184.7,43.9c20.9,4.4,41.7,10.2,41.7,10.2s-1.1-3.4-12.8-11.9c0,0-13-8.3-33-12.2
			C182,34.6,183.4,39.2,184.7,43.9z"/>
		<path class="st10" d="M224.3,48.4c0,0,0.5,11.8,11.6,30.5l8.4-7L257,87.3l-0.7-22.7C256.3,64.6,233.8,40.8,224.3,48.4z"/>
		<path class="st11" d="M227.6,61.5c1.1,0.2,2.1,0.5,3.2,0.8c9.1,2.8,17.6,7,25.8,11.8l-0.3-9.5c0,0-22.5-23.8-31.9-16.2
			C224.3,48.4,224.6,53.2,227.6,61.5z"/>
		<polygon class="st10" points="252.5,65.7 294,93.1 282.9,82.3 289.2,81.3 261.1,63.3 		"/>
		<path class="st11" d="M275.5,72.5l-14.4-9.2l-8.5,2.4l14.9,9.8C270.2,74.6,272.9,73.7,275.5,72.5z"/>
		<path class="st12" d="M230.6,47.9c0,0,11.9-6.3,26.1-6.9c14.2-0.6,28.3,2.3,25.7,11.1c-2.6,8.8-6.2,21.1-25.5,17.2
			C247.9,67,233.6,55.4,230.6,47.9z"/>
		<g>
			<path class="st13" d="M257.4,45.6c-5.3-2.5-10.9-2.7-15.9-2c-6.6,2-10.9,4.3-10.9,4.3c2.9,7.3,16.6,18.5,25.5,21.2
				C264.1,65.5,269.3,51.1,257.4,45.6z"/>
		</g>
		<path class="st14" d="M256.3,64.6c4.7-0.9,6.6-12,2-15.2c-5-3.3-20.8-1.4-27.3-0.5c0.9,1.8,2.3,3.7,4,5.6
			C241.9,58.7,253.1,65.2,256.3,64.6z"/>
		<path class="st12" d="M228.2,49.3c0,0-1.1-10.9-12-35.3c-6.7-14.9-8.9-16.3-19.1-11.3s-12.3,12.6-6.7,23
			C195.9,36.2,214.6,51.6,228.2,49.3z"/>
		<g>
			<path class="st13" d="M191.4,8c-1.1,0.4-1.9,1-2.6,1.8c-2.4,4.3-1.8,9.6,1.5,16c5.6,10.4,24.2,25.9,37.8,23.5
				C218,24.9,201.5,4.1,191.4,8z"/>
		</g>
		<path class="st12" d="M228.2,49.3c0,0-6.7-14.9-1-31.2c5.7-16.3,14.6-20.1,19-14.8c4.4,5.2,15.5,12.2,13.6,14.8
			C257.8,20.8,235.2,49.7,228.2,49.3z"/>
		<g>
			<path class="st13" d="M241.3,1.1c-4.5,0.3-10,5.6-14.1,17c-5.7,16.3,1,31.2,1,31.2c0.2,0,0.3,0,0.5,0c5.2-13.4,12.1-38.1,13-45.6
				C241.9,2.4,241.7,1.6,241.3,1.1z"/>
		</g>
		<path class="st14" d="M238.8,8.3c-3.7,0.3-8.3,4.6-11.7,14.1c-4.8,13.5,0.8,25.9,0.8,25.9c0.1,0,0.3,0,0.4,0
			c4.3-11.1,10-31.6,10.8-37.8C239.3,9.5,239.1,8.8,238.8,8.3z"/>
		<path class="st15" d="M244.7,5.3c0,0,5.5,1.2,7,5.3c2.3,3.4,8.6,4,4.8,8.2c-3.8,4.3-13.4,16-13.4,16s7.9-11,9.7-15.9
			c1.8-4.9-0.7-0.1-3.8-5.4C246,8.2,248.4,8.8,244.7,5.3z"/>
		<path class="st15" d="M264.1,47.7c0,0,2.3-3.9,5.7-1c3.4,2.9,5,1.5,8.7,1.6c3.6,0.1,3.1,8-4.5,16.5c3.6-7.8,7.4-14.9,3.2-13.2
			c-4.2,1.7-5.7-0.8-7.5-2.9C267.8,46.5,264.1,47.7,264.1,47.7z"/>
		<path class="st15" d="M207.6,2.1c0,0-3.7-0.5-4.6,1.3s-1.8,1.2-4,1.6c-2.2,0.5,9.1,5.4,20.7,24.1C217.3,16,212.5,6.1,207.6,2.1z"
			/>
		<path class="st14" d="M193.7,12.4c-3.6,0.1-6.6,6.6,5.7,20.2c7.7,8.5,19.2,13,26.8,15.2c-0.7-1.6-1.4-3.2-2.2-4.7
			C209.2,21.1,197.3,12.3,193.7,12.4z"/>
	</g>
</g>
</svg>
