<?xml version="1.0" encoding="utf-8"?>
<!-- Generator: Adobe Illustrator 27.9.0, SVG Export Plug-In . SVG Version: 6.00 Build 0)  -->
<svg version="1.1" id="Слой_1" xmlns="http://www.w3.org/2000/svg" xmlns:xlink="http://www.w3.org/1999/xlink" x="0px" y="0px"
	 viewBox="0 0 179 150" style="enable-background:new 0 0 179 150;" xml:space="preserve">
<style type="text/css">
	.st0{fill:#E54792;}
	.st1{opacity:0.41;fill:#09070C;}
	.st2{fill:#EDA4C8;}
	.st3{fill:#733C8F;}
	.st4{fill:#C6559A;}
	.st5{fill:#D28DBC;}
	.st6{fill:#90388D;}
	.st7{fill:#C5333B;}
	.st8{fill:#DD4633;}
	.st9{fill:#E94D38;}
	.st10{fill:#4B0F0F;}
</style>
<g>
	<polygon class="st0" points="12,72.7 12,137.1 130.2,149.7 130.2,65.2 	"/>
	<g>
		<polygon class="st1" points="130.2,65.2 12,72.7 12,83.5 130.2,96 		"/>
	</g>
	<polygon class="st2" points="130.2,65.2 130.2,149.7 170.7,129.4 170.7,62.6 	"/>
	<g>
		<polygon class="st3" points="170.7,62.6 130.2,65.2 130.2,95.6 170.7,74.3 		"/>
	</g>
	<polygon class="st4" points="0.2,45.7 0.2,75.5 128.3,87.8 128,59.2 	"/>
	<polygon class="st5" points="128.3,87.8 178.8,62.9 178.8,40.9 128,59.2 	"/>
	<polygon class="st6" points="0.2,45.7 128,59.2 178.8,40.9 77.5,30 	"/>
	<polygon class="st7" points="61.7,51.8 92.5,36.2 95,36.4 86.4,54.9 92.2,147.5 69.4,144.4 	"/>
	<path class="st7" d="M71.5,83.4c5.6,0.5,11.2,1,16.8,1.6l-1.9-30.1L95,36.4l-2.5-0.2L61.7,51.8l2.5,30.8
		C66.7,82.9,69.1,83.2,71.5,83.4z"/>
	<path class="st7" d="M69.7,52.7c5.6,0.5,11.3,1.1,16.9,1.6L95,36.4l-2.5-0.2L61.7,51.8l0,0.1C64.4,52.2,67.1,52.5,69.7,52.7z"/>
	<path class="st7" d="M70.5,93.7c6.1,0.3,12.2,0.7,18.4,1.2l-0.6-8.8c-8-0.9-16-1.4-24-2.3l0.8,9.6C66.9,93.6,68.7,93.6,70.5,93.7z"
		/>
	<path class="st8" d="M81.4,34.6c0,0-25.4-3.2-50.4,10.6c7.4-0.2,7.4-0.2,7.4-0.2s-4.6,3.4-5.9,8.2c9.6-6.8,61.8-14.6,61.8-14.6
		S92.5,36.6,81.4,34.6z"/>
	<path class="st8" d="M61.4,44.4c16.2-3.4,32.9-5.9,32.9-5.9s-1.9-1.9-12.9-3.9c0,0-11.9-1.5-27.4,2C56.5,39.2,59,41.8,61.4,44.4z"
		/>
	<path class="st8" d="M89.4,36.8c0,0,4.2,7.5,18.2,16.4l3.7-7.1l14,6.2l-7.9-14.6C117.4,37.7,93.7,29,89.4,36.8z"/>
	<path class="st8" d="M96,44.3c0.8-0.2,1.7-0.3,2.5-0.4c7.3-0.9,14.8-0.8,22.2-0.1l-3.3-6.1c0,0-23.7-8.7-27.9-0.9
		C89.4,36.8,91.2,39.8,96,44.3z"/>
	<polygon class="st8" points="115.1,39.5 153.5,44.9 142,41.2 146.2,38.7 120.4,35.4 	"/>
	<path class="st7" d="M133.6,37.1l-13.3-1.7l-5.3,4.1l13.8,1.9C130.5,40.1,132.1,38.6,133.6,37.1z"/>
	<path class="st9" d="M93.7,34.6c0,0,6.3-7.7,16.2-12.4c9.9-4.7,20.8-7,21.8-0.5c1,6.5,2.5,15.6-12.4,18.9
		C112.3,41.8,98.3,38.5,93.7,34.6z"/>
	<path class="st7" d="M112,25c-4.6,0-8.6,1.5-12,3.5c-4,3.2-6.3,6-6.3,6c4.4,3.9,17.8,7,25,6.1C123.3,35.9,122.2,25,112,25z"/>
	<path class="st10" d="M117.4,37.7c3-2,0.8-9.8-3.5-10.5c-4.7-0.6-15.2,5.3-19.5,7.9c1.2,0.9,2.8,1.7,4.7,2.5
		C105.3,38.2,115.3,39,117.4,37.7z"/>
	<path class="st9" d="M92.5,36.2c0,0-4.3-6.8-20.1-19.4c-9.6-7.7-11.7-7.9-17.3-1.6s-4.6,11.9,2.8,17C65.3,37.4,83.6,41.8,92.5,36.2
		z"/>
	<path class="st7" d="M52.8,20.3c-0.6,0.6-1,1.3-1.2,2c-0.3,3.5,1.8,6.8,6.3,9.9c7.4,5.1,25.6,9.6,34.5,4
		C77.2,23.4,58.7,14.7,52.8,20.3z"/>
	<path class="st10" d="M56.4,21.7c-2.5,1.2-2.5,6.3,10.7,11.4c8.2,3.2,17.9,2.7,23.9,1.8c-1-0.8-2-1.6-3.1-2.4
		C70.3,22.8,58.9,20.6,56.4,21.7z"/>
	<path class="st9" d="M92.5,36.2c0,0-9.6-7.7-10.9-20.1C80.3,3.8,85.3-1.3,90.2,0.8c4.8,2.1,15,3.3,14.5,5.6
		C104.1,8.7,97.5,34.3,92.5,36.2z"/>
	<path class="st7" d="M85.9,0.8c-3.1,1.6-5.3,6.7-4.4,15.3c1.3,12.4,10.9,20.1,10.9,20.1c0.1,0,0.2-0.1,0.4-0.2
		c-0.7-10.3-3.9-28.5-5.7-33.6C86.8,1.5,86.4,1,85.9,0.8z"/>
	<path class="st10" d="M86.6,6.3C84,7.6,82.2,11.8,82.9,19c1.1,10.2,9,16.6,9,16.6c0.1,0,0.2-0.1,0.3-0.1
		c-0.6-8.5-3.2-23.6-4.7-27.9C87.3,6.9,87,6.5,86.6,6.3z"/>
	<path class="st9" d="M89.8,2.5c0,0,4.3-0.9,6.7,1.4c2.8,1.5,7.4,0,6.1,3.9c-1.3,3.9-4.3,14.5-4.3,14.5s2-9.5,1.7-13.3
		c-0.4-3.7-0.6,0.2-4.4-2.4C91.6,4.1,93.5,3.7,89.8,2.5z"/>
	<path class="st9" d="M117.4,24.3c0,0,0.4-3.2,3.7-2.4c3.3,0.9,4.1-0.5,6.7-1.5c2.6-1,4.8,4.3,2.2,12.1c0-6.1,0.4-11.9-2-9.5
		c-2.4,2.4-4.3,1.2-6.3,0.3C119.6,22.5,117.4,24.3,117.4,24.3z"/>
	<path class="st9" d="M62.4,11.6c0,0-2.8,0.8-2.8,2.2c0,1.4-0.9,1.3-2.3,2.2c-1.4,1,8.2,0.8,22.5,9.5C73.8,17.7,67.2,12.8,62.4,11.6
		z"/>
</g>
</svg>
