<?xml version="1.0" encoding="utf-8"?>
<!-- Generator: Adobe Illustrator 27.9.0, SVG Export Plug-In . SVG Version: 6.00 Build 0)  -->
<svg version="1.1" id="Слой_1" xmlns="http://www.w3.org/2000/svg" xmlns:xlink="http://www.w3.org/1999/xlink" x="0px" y="0px"
	 viewBox="0 0 177 102" style="enable-background:new 0 0 177 102;" xml:space="preserve">
<style type="text/css">
	.st0{fill:#D6D7D7;}
	.st1{opacity:0.41;}
	.st2{opacity:0.41;fill:#2E2E2D;enable-background:new    ;}
	.st3{fill:#919292;}
	.st4{fill:#767575;}
	.st5{fill:#20201F;}
	.st6{fill:#2D2E2D;}
	.st7{fill:#7C7C7C;}
	.st8{fill:#BDBCBC;}
	.st9{fill:#B5B4B4;}
	.st10{fill:#FFFFFF;}
	.st11{fill:#C5333B;}
	.st12{fill:#E94D38;}
	.st13{fill:#62170C;}
</style>
<g>
	<polygon class="st0" points="134,13.6 134,72.6 34.6,84.2 34.6,6.7 	"/>
	<g class="st1">
		<polygon class="st2" points="34.6,6.7 134,13.6 134,23.5 34.6,35 		"/>
	</g>
	<polygon class="st3" points="34.6,6.7 34.6,84.2 0.4,65.5 0.4,7.8 	"/>
	<g>
		<polygon class="st4" points="0.4,7.8 34.6,6.7 34.6,34.6 0.4,15.1 		"/>
	</g>
	<polygon class="st5" points="16.4,15.1 79.9,10.2 99.4,17.1 34.6,24 	"/>
	<polygon class="st6" points="0.4,7.3 81.3,0.1 79.9,10.2 16.4,15.1 	"/>
	<polygon class="st7" points="134.6,13.3 99.4,17.1 79.9,10.2 81.3,0.1 	"/>
	<g>
		<polygon class="st8" points="176.6,75.2 171.2,101.9 63.2,91.9 68.6,66.2 		"/>
		<polygon class="st9" points="63.2,91.9 26,61.2 30,41.4 68.6,66.2 		"/>
		<polygon class="st10" points="176.6,75.2 68.6,66.2 30,41.4 115.6,48.3 		"/>
		<path class="st11" d="M111,97.3c-4.7-0.4-9.4-1-14.2-1.3l7-26.8l-3.8-18l2.1,0.2l22.6,19.1l-7.6,27.2C115,97.6,113,97.5,111,97.3z
			"/>
		<path class="st11" d="M117.9,70c-4.7-0.4-9.5-0.9-14.2-1.3L100,51.2l2.1,0.2l22.6,19.1v0.1C122.4,70.4,120.1,70.2,117.9,70z"/>
		<path class="st11" d="M112.6,53.2c0,0,21.5,1.3,39.7,17.8c-6.1-1.4-6.1-1.4-6.1-1.4s3.2,3.8,3.4,8.3c-6.7-7.7-48.4-23.3-48.4-23.3
			S103.1,53.2,112.6,53.2z"/>
		<path class="st11" d="M127.3,65.4c-12.8-5.7-26.1-10.7-26.1-10.7s1.9-1.4,11.4-1.4c0,0,10.1,0.6,22.3,6.3
			C132.3,61.5,129.8,63.4,127.3,65.4z"/>
		<path class="st11" d="M104.5,52.4c0,0-4.9,6.1-18,11.7l-1.8-6.9L72,60.5l9.2-11.8C81.3,48.7,102.4,44.7,104.5,52.4z"/>
		<path class="st11" d="M97.7,58.1c-0.7-0.3-1.3-0.6-2-0.8c-5.9-2-12.1-3.1-18.3-3.7l3.8-4.9c0,0,21.1-3.9,23.2,3.8
			C104.5,52.4,102.5,54.9,97.7,58.1z"/>
		<polygon class="st11" points="82.8,50.7 50.1,49.2 60.3,47.8 57.3,44.8 79.2,46.1 		"/>
		<path class="st11" d="M68,45.4l11.2,0.7l3.6,4.6l-11.7-0.5C70,48.6,68.9,47.1,68,45.4z"/>
		<path class="st12" d="M101.3,49.7c0,0-3.9-8-11.2-13.8c-7.3-5.8-15.9-9.7-17.9-4s-4.9,13.6,6.9,19C84.8,53.2,96.9,52.6,101.3,49.7
			z"/>
		<g>
			<path class="st11" d="M88,38.1c3.8,0.8,6.8,2.8,9.2,5.1c2.7,3.6,4.1,6.5,4.1,6.5c-4.4,2.7-15.9,3.4-21.8,1.4
				C76.7,46.1,79.6,36.5,88,38.1z"/>
		</g>
		<path class="st13" d="M81.3,48.7c-2.1-2.3,1.1-9,4.8-8.9c4,0.2,11.6,7.3,14.7,10.3c-1.1,0.6-2.6,1.1-4.3,1.4
			C91.2,51.1,82.7,50.2,81.3,48.7z"/>
		<path class="st12" d="M102.1,51.4c0,0,4.8-5.4,20-14.1c9.3-5.3,11.1-5.2,14.5,1.4s1.6,11.4-5.4,14.8
			C124.3,56.9,108.4,57.9,102.1,51.4z"/>
		<g>
			<path class="st11" d="M137.6,43.7c0.4,0.6,0.6,1.3,0.7,2c-0.4,3.2-2.7,5.8-7,7.9c-7,3.4-22.9,4.4-29.2-2.1
				C117,42.4,133.8,37.7,137.6,43.7z"/>
		</g>
		<path class="st13" d="M134.5,44.4c1.9,1.5,1,6.1-10.8,8.5c-7.4,1.5-15.2-0.5-20.1-2.3c1-0.6,2-1.1,3-1.7
			C122.8,43,132.6,42.9,134.5,44.4z"/>
		<path class="st12" d="M102.1,51.4c0,0,9.3-5.3,12.6-16.2c3.3-10.9,0-16.3-4.4-15.3c-4.4,1.1-12.9,0.5-12.9,2.6
			S98.2,48.9,102.1,51.4z"/>
		<g>
			<path class="st11" d="M113.8,20.7c2.3,1.9,3.2,6.9,0.9,14.5c-3.3,10.9-12.6,16.2-12.6,16.2c-0.1-0.1-0.2-0.1-0.3-0.2
				c2.4-9.1,8.3-25,10.7-29.3C113,21.2,113.4,20.8,113.8,20.7z"/>
		</g>
		<path class="st13" d="M112.3,25.5c1.9,1.6,2.6,5.7,0.7,12c-2.7,9-10.4,13.4-10.4,13.4c-0.1,0-0.1-0.1-0.2-0.2
			c2-7.6,6.9-20.7,8.9-24.3C111.6,25.9,112,25.6,112.3,25.5z"/>
		<path class="st11" d="M110.3,21.6c0,0-3.4-1.5-5.8,0.1c-2.6,0.9-6.1-1.2-5.8,2.5c0.4,3.7,0.9,13.7,0.9,13.7s0-8.9,1-12.2
			s0.4,0.2,4.1-1.4C108.5,22.7,107.1,22.1,110.3,21.6z"/>
		<path class="st11" d="M83.6,36.6c0,0,0.3-3-2.6-2.8s-3.3-1.1-5.2-2.5c-2-1.3-4.7,3-4,10.5c1.1-5.5,1.8-10.8,3.4-8.2
			c1.6,2.5,3.3,1.8,5.1,1.3C82.1,34.6,83.6,36.6,83.6,36.6z"/>
		<path class="st11" d="M131.3,34.3c0,0,2.2,1.2,1.9,2.5s0.5,1.3,1.5,2.4c1,1.1-6.9-0.6-20.3,4.8C120.8,37.9,127.2,34.5,131.3,34.3z
			"/>
	</g>
</g>
</svg>
