<?xml version="1.0" encoding="utf-8"?>
<!-- Generator: Adobe Illustrator 27.9.0, SVG Export Plug-In . SVG Version: 6.00 Build 0)  -->
<svg version="1.1" id="Слой_1" xmlns="http://www.w3.org/2000/svg" xmlns:xlink="http://www.w3.org/1999/xlink" x="0px" y="0px"
	 viewBox="0 0 195 122" style="enable-background:new 0 0 195 122;" xml:space="preserve">
<style type="text/css">
	.st0{fill:#74388D;}
	.st1{opacity:0.41;fill:#71378D;}
	.st2{fill:#5E257E;}
	.st3{fill:#71378D;}
	.st4{fill:#24112D;}
	.st5{fill:#7A4796;}
	.st6{fill:#67348B;}
	.st7{fill:#996EAD;}
	.st8{fill:#287130;}
	.st9{fill:#172D1A;}
	.st10{fill:#1A381D;}
	.st11{fill:#339A37;}
	.st12{fill:#469C35;}
	.st13{fill:#5BB13F;}
</style>
<g>
	<polygon class="st0" points="193.9,17.2 193.9,90.9 69.8,105.3 69.8,8.7 	"/>
	<g>
		<polygon class="st1" points="69.8,8.7 193.9,17.2 193.9,29.6 69.8,44 		"/>
	</g>
	<polygon class="st2" points="69.8,8.7 69.8,105.3 27.2,82.1 27.2,10.1 	"/>
	<g>
		<polygon class="st3" points="27.2,10.1 69.8,8.7 69.8,43.5 27.2,19.1 		"/>
	</g>
	<polygon class="st4" points="47.1,19.2 126.3,13 150.7,21.6 69.8,30.3 	"/>
	<polygon class="st0" points="27.2,9.5 128.2,0.4 126.3,13 47.1,19.2 	"/>
	<polygon class="st5" points="194.6,16.9 150.7,21.6 126.3,13 128.2,0.4 	"/>
	<g>
		<polygon class="st5" points="182.6,76.4 182.3,109.4 51.6,121.6 52.2,89.9 		"/>
		<polygon class="st6" points="51.6,121.6 0.4,93.4 0.7,68.9 52.2,89.9 		"/>
		<polygon class="st7" points="182.6,76.4 52.2,89.9 0.7,68.9 104,58 		"/>
		<path class="st8" d="M109.5,117.4c-5.7,0.5-11.4,1-17.1,1.6l2.3-33.4L86.1,65l2.6-0.2l31.1,17.7l-3,34.1
			C114.4,116.8,112,117.1,109.5,117.4z"/>
		<path class="st9" d="M111.7,83.3c-5.7,0.5-11.5,1.1-17.2,1.6L86.1,65l2.6-0.2l31.1,17.7l0,0.1C117.1,82.8,114.4,83.1,111.7,83.3z"
			/>
		<path class="st8" d="M101.6,64.6c0,0,25.9-3.3,51.2,12.3c-7.5-0.3-7.5-0.3-7.5-0.3s4.6,3.8,5.9,9.1c-9.7-7.6-62.8-16.9-62.8-16.9
			S90.3,66.7,101.6,64.6z"/>
		<path class="st10" d="M121.8,75.7c-16.5-4-33.5-6.9-33.5-6.9s1.9-2.1,13.2-4.2c0,0,12.1-1.5,27.9,2.5
			C126.9,69.9,124.4,72.8,121.8,75.7z"/>
		<path class="st8" d="M91.8,65.4c0,0-4.4,8.3-18.8,18l-3.6-7.9L55,82.2l8.3-16.1C63.3,66.1,87.6,56.7,91.8,65.4z"/>
		<path class="st10" d="M85,73.7c-0.8-0.2-1.7-0.4-2.6-0.5c-7.5-1.1-15.1-1-22.6-0.3l3.4-6.7c0,0,24.3-9.4,28.5-0.7
			C91.8,65.4,90,68.8,85,73.7z"/>
		<polygon class="st8" points="65.6,68.2 26.4,73.8 38.2,69.8 33.9,66.9 60.3,63.6 		"/>
		<path class="st10" d="M46.8,65.3l13.5-1.7l5.3,4.6l-14,2C49.9,68.6,48.3,67,46.8,65.3z"/>
		<path class="st11" d="M87.5,62.9c0,0-6.4-8.6-16.4-13.9c-10-5.3-21.1-8-22.2-0.8c-1.1,7.2-2.8,17.3,12.4,21.1
			C68.5,70.7,82.8,67.3,87.5,62.9z"/>
		<g>
			<path class="st12" d="M69,52.1c4.7,0.1,8.7,1.8,12.1,4c4,3.6,6.4,6.8,6.4,6.8c-4.6,4.2-18.2,7.6-25.6,6.5
				C57.3,64.1,58.6,52,69,52.1z"/>
		</g>
		<g>
			<path class="st9" d="M63.3,66.1c-3.1-2.2-0.6-10.9,3.7-11.6c4.7-0.7,15.4,6,19.8,9c-1.2,1-2.9,1.9-4.8,2.7
				C75.7,66.8,65.4,67.7,63.3,66.1z"/>
		</g>
		<path class="st11" d="M88.7,64.8c0,0,4.5-7.5,20.7-21.2c9.9-8.4,12-8.7,17.6-1.6c5.6,7,4.5,13.2-3.1,18.8S97.7,71.1,88.7,64.8z"/>
		<g>
			<path class="st12" d="M129.3,47.6c0.6,0.7,1,1.4,1.2,2.2c0.2,3.9-2,7.5-6.6,10.9c-7.6,5.6-26.2,10.3-35.2,4
				C104.4,50.7,123.4,41.3,129.3,47.6z"/>
		</g>
		<g>
			<path class="st9" d="M125.6,49.1c2.6,1.3,2.5,7-11,12.6c-8.4,3.5-18.2,2.8-24.4,1.8c1-0.9,2.1-1.8,3.2-2.6
				C111.5,50.2,123.1,47.8,125.6,49.1z"/>
		</g>
		<path class="st11" d="M88.7,64.8c0,0,9.9-8.4,11.4-22.1c1.4-13.7-3.7-19.4-8.6-17.2c-4.9,2.3-15.3,3.5-14.8,6S83.6,62.6,88.7,64.8
			z"/>
		<g>
			<path class="st12" d="M95.8,25.6c3.1,1.8,5.3,7.4,4.3,17c-1.4,13.7-11.4,22.1-11.4,22.1c-0.1,0-0.2-0.1-0.4-0.2
				c0.9-11.4,4.3-31.6,6.2-37.2C94.9,26.4,95.3,25.8,95.8,25.6z"/>
		</g>
		<g>
			<path class="st9" d="M95.1,31.7c2.6,1.5,4.4,6.2,3.6,14.1c-1.2,11.3-9.4,18.3-9.4,18.3c-0.1,0-0.2-0.1-0.3-0.2
				c0.7-9.5,3.6-26.2,5.1-30.9C94.3,32.3,94.7,31.9,95.1,31.7z"/>
		</g>
		<path class="st13" d="M91.9,27.4c0,0-4.3-1-6.8,1.4c-2.9,1.7-7.6-0.1-6.3,4.3c1.3,4.4,4.2,16.1,4.2,16.1s-2-10.6-1.5-14.8
			c0.4-4.2,0.6,0.2,4.6-2.6C90,29.1,88.1,28.7,91.9,27.4z"/>
		<path class="st13" d="M63.5,51.3c0,0-0.3-3.6-3.7-2.7c-3.4,0.9-4.1-0.6-6.8-1.8c-2.6-1.2-5,4.7-2.4,13.4
			c0.1-6.8-0.2-13.2,2.2-10.6c2.4,2.7,4.3,1.4,6.4,0.4C61.2,49.2,63.5,51.3,63.5,51.3z"/>
		<path class="st13" d="M119.6,37.9c0,0,2.8,0.9,2.8,2.5c0,1.6,0.9,1.4,2.3,2.5c1.4,1.1-8.4,0.8-23.1,10.2
			C108,44.5,114.8,39.1,119.6,37.9z"/>
	</g>
</g>
</svg>
