<?xml version="1.0" encoding="utf-8"?>
<!-- Generator: Adobe Illustrator 27.9.0, SVG Export Plug-In . SVG Version: 6.00 Build 0)  -->
<svg version="1.1" id="Слой_1" xmlns="http://www.w3.org/2000/svg" xmlns:xlink="http://www.w3.org/1999/xlink" x="0px" y="0px"
	 viewBox="0 0 245 294" style="enable-background:new 0 0 245 294;" xml:space="preserve">
<style type="text/css">
	.st0{fill:url(#SVGID_1_);}
	.st1{fill:#2C2F7C;}
	.st2{opacity:0.41;fill:#3D694F;}
	.st3{fill:#4871B7;}
	.st4{opacity:0.41;}
	.st5{fill:#3D694F;}
	.st6{fill:#33519F;}
	.st7{fill:#6F88C0;}
	.st8{fill:#8DB9E4;}
	.st9{fill:#C5333B;}
	.st10{fill:#DD4633;}
	.st11{fill:#E94D38;}
	.st12{fill:#362917;}
</style>
<g>
	
		<radialGradient id="SVGID_1_" cx="-429.2877" cy="223.2956" r="168.5799" fx="-450.3494" fy="172.9869" gradientTransform="matrix(0.6924 -7.053058e-03 1.117704e-03 0.2144 419.4758 165.8192)" gradientUnits="userSpaceOnUse">
		<stop  offset="1.241994e-07" style="stop-color:#0B1D1B;stop-opacity:0.6"/>
		<stop  offset="0.142" style="stop-color:#212723;stop-opacity:0.5129"/>
		<stop  offset="0.4399" style="stop-color:#553A2E;stop-opacity:0.3303"/>
		<stop  offset="0.8653" style="stop-color:#B2462C;stop-opacity:6.952262e-02"/>
		<stop  offset="0.9787" style="stop-color:#D04529;stop-opacity:0"/>
	</radialGradient>
	<ellipse class="st0" cx="122.5" cy="216.7" rx="122.2" ry="77.1"/>
	<g>
		<polygon class="st1" points="228.5,107.9 228.5,203.9 66.8,222.6 66.8,96.8 		"/>
		<g>
			<polygon class="st2" points="66.8,96.8 228.5,107.9 228.5,124.1 66.8,142.7 			"/>
		</g>
		<polygon class="st3" points="66.8,96.8 66.8,222.6 11.4,192.4 11.4,93 		"/>
		<g class="st4">
			<polygon class="st5" points="11.4,93 66.8,96.8 66.8,142.1 11.4,110.4 			"/>
		</g>
		<polygon class="st6" points="244.7,67.8 244.7,112.2 69.4,130.5 69.8,87.9 		"/>
		<polygon class="st7" points="69.4,130.5 0.3,93.4 0.3,60.6 69.8,87.9 		"/>
		<polygon class="st8" points="244.7,67.8 69.8,87.9 0.3,60.6 138.9,44.4 		"/>
		<polygon class="st9" points="160.5,76.9 118.5,53.6 115,54 126.8,81.4 118.8,219.3 150.1,214.8 		"/>
		<path class="st9" d="M147.2,123.9c-7.7,0.8-15.3,1.5-23,2.4l2.6-44.9L115,54l3.5-0.3l42,23.3l-3.5,45.8
			C153.7,123.2,150.5,123.6,147.2,123.9z"/>
		<path class="st9" d="M149.5,78.2c-7.7,0.8-15.4,1.6-23.1,2.4L115,54l3.5-0.3l42,23.3l0,0.2C156.8,77.4,153.2,77.8,149.5,78.2z"/>
		<path class="st9" d="M148.5,139.3c-8.4,0.5-16.8,1.1-25.1,1.8l0.8-13c10.9-1.3,21.9-2,32.8-3.5l-1.1,14.4
			C153.3,139,150.9,139.1,148.5,139.3z"/>
		<path class="st10" d="M135.7,53.2c0,0,34.8-4.8,68.9,15.7c-10.1-0.3-10.1-0.3-10.1-0.3s6.2,5.1,8,12.2C189.5,70.7,118,59,118,59
			S120.6,56.2,135.7,53.2z"/>
		<path class="st10" d="M163.1,67.8C140.9,62.8,118,59,118,59s2.6-2.9,17.7-5.8c0,0,16.3-2.2,37.5,2.9
			C169.8,60,166.4,63.9,163.1,67.8z"/>
		<path class="st10" d="M122.6,54.5c0,0-5.8,11.2-24.9,24.4l-5-10.5l-19.1,9.3l10.9-21.7C84.4,55.9,116.8,42.9,122.6,54.5z"/>
		<path class="st10" d="M113.6,65.7c-1.1-0.3-2.3-0.5-3.5-0.6c-10.1-1.4-20.2-1.1-30.3-0.1l4.5-9.1c0,0,32.4-13,38.2-1.4
			C122.6,54.5,120.2,59,113.6,65.7z"/>
		<polygon class="st10" points="87.5,58.6 34.9,66.6 50.6,61.1 44.9,57.3 80.3,52.4 		"/>
		<path class="st9" d="M62.1,54.9l18.1-2.5l7.2,6.1l-18.8,2.9C66.4,59.4,64.2,57.2,62.1,54.9z"/>
		<path class="st11" d="M116.7,51.2c0,0-8.7-11.5-22.2-18.4C80.9,25.8,66,22.4,64.6,32.1c-1.4,9.7-3.5,23.3,17,28.1
			C91.4,62,110.5,57.1,116.7,51.2z"/>
		<g>
			<path class="st9" d="M91.7,36.9c6.3,0,11.8,2.2,16.4,5.2c5.5,4.8,8.7,9,8.7,9c-6.1,5.7-24.3,10.5-34.3,9.1
				C76.3,53.2,77.8,36.9,91.7,36.9z"/>
		</g>
		<g>
			<path class="st12" d="M84.4,55.9c-4.1-2.9-1-14.7,4.8-15.7c6.4-0.9,20.8,7.9,26.7,11.7c-1.6,1.3-3.9,2.5-6.4,3.7
				C100.9,56.6,87.2,57.9,84.4,55.9z"/>
		</g>
		<path class="st11" d="M118.5,53.6c0,0,5.9-10.1,27.4-28.8c13.2-11.5,16-11.8,23.6-2.4s6.3,17.7-3.8,25.4
			C155.6,55.4,130.6,62,118.5,53.6z"/>
		<g>
			<path class="st9" d="M172.6,30c0.8,0.9,1.4,1.9,1.7,2.9c0.4,5.2-2.5,10.1-8.6,14.8c-10.1,7.6-35.1,14.2-47.2,5.9
				C139.3,34.5,164.7,21.7,172.6,30z"/>
		</g>
		<g>
			<path class="st12" d="M167.8,32.1c3.5,1.7,3.5,9.4-14.6,17c-11.3,4.8-24.4,4-32.8,2.7c1.4-1.2,2.8-2.4,4.2-3.6
				C148.8,33.7,164.4,30.4,167.8,32.1z"/>
		</g>
		<path class="st11" d="M118.5,53.6c0,0,13.2-11.5,14.9-29.9c1.7-18.4-5.2-26-11.8-22.9c-6.6,3.1-20.5,4.9-19.8,8.3
			S111.5,50.8,118.5,53.6z"/>
		<g>
			<path class="st9" d="M127.4,0.9c4.2,2.3,7.2,9.9,6,22.8c-1.7,18.4-14.9,29.9-14.9,29.9c-0.2-0.1-0.3-0.2-0.5-0.3
				c1-15.4,5.3-42.4,7.8-50.1C126.2,2,126.7,1.3,127.4,0.9z"/>
		</g>
		<g>
			<path class="st12" d="M126.5,9.1c3.5,1.9,6,8.2,5,18.9c-1.4,15.3-12.4,24.8-12.4,24.8c-0.1-0.1-0.3-0.1-0.4-0.2
				c0.8-12.7,4.4-35.2,6.4-41.5C125.5,10,126,9.4,126.5,9.1z"/>
		</g>
		<path class="st11" d="M122.1,3.5c0,0-5.8-1.3-9.1,2c-3.8,2.3-10.1,0-8.4,5.8c1.8,5.8,5.8,21.6,5.8,21.6s-2.8-14.2-2.3-19.8
			c0.5-5.6,0.8,0.3,6.1-3.6C119.6,5.7,117,5.2,122.1,3.5z"/>
		<path class="st11" d="M84.3,35.9c0,0-0.5-4.8-5.1-3.6c-4.6,1.3-5.6-0.8-9.1-2.3c-3.6-1.5-6.6,6.3-3,18c0-9.1-0.5-17.8,2.8-14.2
			c3.3,3.6,5.8,1.8,8.6,0.5C81.3,33.1,84.3,35.9,84.3,35.9z"/>
		<path class="st11" d="M159.5,17c0,0,3.8,1.2,3.8,3.3c0,2.2,1.2,1.9,3.1,3.3c1.9,1.4-11.2,1.2-30.8,14.1
			C144,26.1,153.1,18.7,159.5,17z"/>
	</g>
</g>
</svg>
