<?xml version="1.0" encoding="utf-8"?>
<!-- Generator: Adobe Illustrator 27.9.0, SVG Export Plug-In . SVG Version: 6.00 Build 0)  -->
<svg version="1.1" id="Слой_1" xmlns="http://www.w3.org/2000/svg" xmlns:xlink="http://www.w3.org/1999/xlink" x="0px" y="0px"
	 viewBox="0 0 152 138" style="enable-background:new 0 0 152 138;" xml:space="preserve">
<style type="text/css">
	.st0{fill:#D6D7D7;}
	.st1{opacity:0.41;fill:#2E2E2D;}
	.st2{fill:#919292;}
	.st3{fill:#767575;}
	.st4{fill:#BDBCBC;}
	.st5{fill:#B5B4B4;}
	.st6{fill:#FFFFFF;}
	.st7{fill:#C5333B;}
	.st8{fill:#DD4633;}
	.st9{fill:#E94D38;}
	.st10{fill:#65121C;}
</style>
<g>
	<polygon class="st0" points="141.6,67 141.6,126.4 41.6,138 41.6,60.1 	"/>
	<g>
		<polygon class="st1" points="41.6,60.1 141.6,67 141.6,77 41.6,88.5 		"/>
	</g>
	<polygon class="st2" points="41.6,60.1 41.6,138 7.3,119.2 7.3,57.8 	"/>
	<g>
		<polygon class="st3" points="7.3,57.8 41.6,60.1 41.6,88.1 7.3,68.5 		"/>
	</g>
	<polygon class="st4" points="151.6,42.2 151.6,69.6 43.2,81 43.4,54.6 	"/>
	<polygon class="st5" points="43.2,81 0.4,58 0.4,37.7 43.4,54.6 	"/>
	<polygon class="st6" points="151.6,42.2 43.4,54.6 0.4,37.7 86.2,27.7 	"/>
	<polygon class="st7" points="99.5,47.8 73.5,33.4 71.4,33.6 78.7,50.6 73.7,135.9 93.1,133.1 	"/>
	<path class="st7" d="M91.3,76.9c-4.7,0.5-9.5,0.9-14.2,1.5l1.6-27.8l-7.3-17l2.1-0.2l26,14.4l-2.1,28.3
		C95.3,76.4,93.3,76.7,91.3,76.9z"/>
	<path class="st7" d="M92.7,48.6c-4.8,0.5-9.5,1-14.3,1.5l-7.1-16.5l2.1-0.2l26,14.4l0,0.1C97.2,48.1,95,48.4,92.7,48.6z"/>
	<path class="st7" d="M92.1,86.4c-5.2,0.3-10.4,0.7-15.5,1.1l0.5-8.1c6.8-0.8,13.5-1.3,20.3-2.2l-0.7,8.9
		C95.1,86.3,93.6,86.3,92.1,86.4z"/>
	<path class="st8" d="M84.2,33.1c0,0,21.5-2.9,42.6,9.7c-6.2-0.2-6.2-0.2-6.2-0.2s3.9,3.1,5,7.5c-8.1-6.2-52.3-13.5-52.3-13.5
		S74.8,35,84.2,33.1z"/>
	<path class="st8" d="M101.1,42.2c-13.7-3.1-27.9-5.4-27.9-5.4s1.6-1.8,11-3.6c0,0,10.1-1.4,23.2,1.8
		C105.3,37.4,103.2,39.8,101.1,42.2z"/>
	<path class="st8" d="M76.1,33.9c0,0-3.6,6.9-15.4,15.1l-3.1-6.5l-11.8,5.7l6.7-13.4C52.4,34.8,72.5,26.8,76.1,33.9z"/>
	<path class="st8" d="M70.5,40.9c-0.7-0.2-1.4-0.3-2.1-0.4c-6.2-0.8-12.5-0.7-18.8-0.1l2.8-5.6c0,0,20.1-8,23.6-0.9
		C76.1,33.9,74.6,36.7,70.5,40.9z"/>
	<polygon class="st8" points="54.3,36.5 21.8,41.5 31.5,38.1 28,35.7 49.9,32.7 	"/>
	<path class="st7" d="M38.7,34.2l11.2-1.5l4.5,3.8l-11.6,1.8C41.3,37,39.9,35.6,38.7,34.2z"/>
	<path class="st9" d="M72.4,31.9c0,0-5.4-7.1-13.8-11.4c-8.4-4.3-17.6-6.4-18.5-0.4c-0.9,6-2.1,14.4,10.5,17.4
		C56.7,38.6,68.6,35.6,72.4,31.9z"/>
	<g>
		<path class="st7" d="M57,23.1c3.9,0,7.3,1.4,10.1,3.2c3.4,3,5.4,5.6,5.4,5.6c-3.8,3.6-15.1,6.5-21.2,5.7
			C47.4,33.2,48.3,23.1,57,23.1z"/>
	</g>
	<path class="st10" d="M52.4,34.8c-2.6-1.8-0.6-9.1,3-9.7c3.9-0.6,12.9,4.9,16.5,7.2C67.8,36.1,54.8,35.9,52.4,34.8z"/>
	<path class="st9" d="M73.5,33.4c0,0,3.7-6.2,17-17.8c8.2-7.1,9.9-7.3,14.6-1.5c4.7,5.8,3.9,11-2.4,15.7
		C96.5,34.5,81,38.6,73.5,33.4z"/>
	<g>
		<path class="st7" d="M107,18.8c0.5,0.5,0.9,1.2,1.1,1.8c0.2,3.2-1.6,6.3-5.3,9.1c-6.2,4.7-21.7,8.8-29.2,3.7
			C86.4,21.6,102.1,13.6,107,18.8z"/>
	</g>
	<path class="st10" d="M104,20.1c2.1,1.1,2.1,5.8-9,10.5c-7,3-15.1,2.5-20.3,1.7C85.7,23,103.7,18.5,104,20.1z"/>
	<path class="st9" d="M73.7,33.1c0,0,8.2-7.1,9.2-18.5C84,3.2,79.7-1.5,75.6,0.4c-4.1,1.9-12.7,3-12.2,5.2S69.4,31.4,73.7,33.1z"/>
	<g>
		<path class="st7" d="M79.2,0.5c2.6,1.4,4.5,6.1,3.7,14.1c-1.1,11.4-9.2,18.5-9.2,18.5c-0.1,0-0.2-0.1-0.3-0.2
			c0.6-9.5,3.3-26.3,4.8-31C78.5,1.2,78.8,0.7,79.2,0.5z"/>
	</g>
	<path class="st10" d="M78.7,5.6c8.2,6.7-0.6,24.8-4.6,27c-0.1,0-0.2-0.1-0.2-0.1C74.8,23.7,75.9,10,78.7,5.6z"/>
	<path class="st9" d="M76,2.1c0,0-3.6-0.8-5.6,1.3c-2.4,1.4-6.3,0-5.2,3.6c1.1,3.6,3.6,13.3,3.6,13.3S67,11.5,67.3,8
		c0.3-3.5,0.5,0.2,3.8-2.2C74.4,3.5,72.8,3.2,76,2.1z"/>
	<path class="st9" d="M52.4,22.5c0,0-0.3-3-3.1-2.2c-2.8,0.8-3.5-0.5-5.6-1.4c-2.2-0.9-4.1,3.9-1.9,11.1c0-5.6-0.3-11,1.7-8.8
		c2,2.2,3.6,1.1,5.3,0.3C50.5,20.7,52.4,22.5,52.4,22.5z"/>
	<path class="st9" d="M98.9,10.8c0,0,2.4,0.7,2.4,2.1c0,1.3,0.7,1.2,1.9,2.1c1.2,0.9-7,0.7-19.1,8.7C89.3,16.4,94.9,11.8,98.9,10.8z
		"/>
</g>
</svg>
