<?xml version="1.0" encoding="utf-8"?>
<!-- Generator: Adobe Illustrator 27.9.0, SVG Export Plug-In . SVG Version: 6.00 Build 0)  -->
<svg version="1.1" id="Слой_1" xmlns="http://www.w3.org/2000/svg" xmlns:xlink="http://www.w3.org/1999/xlink" x="0px" y="0px"
	 viewBox="0 0 354 209" style="enable-background:new 0 0 354 209;" xml:space="preserve">
<style type="text/css">
	.st0{fill:url(#SVGID_1_);}
	.st1{fill:#6F88C0;}
	.st2{fill:#C5333B;}
	.st3{fill:#2C2F7C;}
	.st4{opacity:0.41;fill:#3D694F;}
	.st5{fill:#4871B7;}
	.st6{opacity:0.41;}
	.st7{fill:#3D694F;}
	.st8{fill:#171E35;}
	.st9{fill:#33519F;}
	.st10{fill:#8DB9E4;}
	.st11{fill:#E94D38;}
	.st12{fill:#362917;}
</style>
<g>
	
		<radialGradient id="SVGID_1_" cx="176.8143" cy="128.8422" r="174.8539" gradientTransform="matrix(1 0 0 0.4726 0 67.9475)" gradientUnits="userSpaceOnUse">
		<stop  offset="1.241994e-07" style="stop-color:#0B1D1B;stop-opacity:0.6"/>
		<stop  offset="0.1451" style="stop-color:#212723;stop-opacity:0.5129"/>
		<stop  offset="0.4494" style="stop-color:#553A2E;stop-opacity:0.3303"/>
		<stop  offset="0.8841" style="stop-color:#B2462C;stop-opacity:6.952262e-02"/>
		<stop  offset="1" style="stop-color:#D04529;stop-opacity:0"/>
	</radialGradient>
	<ellipse class="st0" cx="176.8" cy="128.8" rx="176.5" ry="79.7"/>
	<polygon class="st1" points="69.9,180.8 0.3,143.5 0.3,110.4 70.3,137.9 	"/>
	<polygon class="st2" points="88.1,108.4 35.2,116.5 51,111 45.2,107.2 80.8,102.3 	"/>
	<path class="st2" d="M62.6,104.8l18.3-2.5l7.2,6.2l-18.9,2.9C66.9,109.2,64.6,107.1,62.6,104.8z"/>
	<path class="st2" d="M84.9,85.6c0,0-0.5-4.8-5.1-3.6c-4.6,1.3-5.6-0.8-9.2-2.3c-3.6-1.5-6.6,6.4-3.1,18.1c0-9.2-0.5-17.9,2.8-14.3
		c3.3,3.6,5.9,1.8,8.7,0.5C81.8,82.8,84.9,85.6,84.9,85.6z"/>
	<g>
		<polygon class="st3" points="352.8,22.6 352.8,119.1 190.1,138 190.1,11.4 		"/>
		<g>
			<polygon class="st4" points="190.1,11.4 352.8,22.6 352.8,38.8 190.1,57.6 			"/>
		</g>
		<polygon class="st5" points="190.1,11.4 190.1,138 134.3,107.6 134.3,13.1 		"/>
		<g class="st6">
			<polygon class="st7" points="134.3,13.1 190.1,11.4 190.1,56.9 134.3,25 			"/>
		</g>
		<polygon class="st8" points="160.4,25.1 264.2,17 296.1,28.3 190.1,39.6 		"/>
		<polygon class="st3" points="134.3,12.4 266.6,0.5 264.2,17 160.4,25.1 		"/>
		<polygon class="st5" points="353.7,22.1 296.1,28.3 264.2,17 266.6,0.5 		"/>
		<polygon class="st9" points="246.3,117.7 246.3,162.4 69.9,180.8 70.3,137.9 		"/>
		<polygon class="st10" points="246.3,117.7 70.3,137.9 0.3,110.4 139.8,94.1 		"/>
		<path class="st2" d="M148.2,174.2c-7.7,0.8-15.4,1.5-23.1,2.4l2.6-45.2l-11.9-27.6l3.5-0.3l42.3,23.4L158,173
			C154.8,173.4,151.5,173.9,148.2,174.2z"/>
		<path class="st2" d="M150.5,128.2c-7.7,0.8-15.5,1.6-23.2,2.4l-11.5-26.8l3.5-0.3l42.3,23.4l0,0.2
			C157.9,127.4,154.2,127.8,150.5,128.2z"/>
		<path class="st2" d="M136.6,103c0,0,35-4.8,69.4,15.8c-10.2-0.3-10.2-0.3-10.2-0.3s6.3,5.1,8.1,12.3
			c-13.2-10.2-85.1-21.9-85.1-21.9S121.4,106,136.6,103z"/>
		<path class="st2" d="M164.1,117.7c-22.4-5.1-45.3-8.9-45.3-8.9s2.6-2.9,17.8-5.9c0,0,16.4-2.2,37.8,3
			C170.9,109.9,167.5,113.8,164.1,117.7z"/>
		<path class="st2" d="M123.4,104.3c0,0-5.8,11.3-25.1,24.5l-5.1-10.6L74,127.6l10.9-21.9C84.9,105.7,117.6,92.6,123.4,104.3z"/>
		<path class="st2" d="M114.4,115.6c-1.1-0.3-2.3-0.5-3.5-0.7c-10.1-1.4-20.4-1.1-30.5-0.1l4.6-9.1c0,0,32.6-13.1,38.5-1.4
			C123.4,104.3,121,108.9,114.4,115.6z"/>
		<path class="st11" d="M117.5,101c0,0-8.7-11.5-22.4-18.5c-13.6-7-28.7-10.5-30.1-0.7c-1.4,9.8-3.5,23.4,17.1,28.3
			C92,111.8,111.2,106.9,117.5,101z"/>
		<g>
			<path class="st2" d="M92.3,86.7c6.3,0,11.8,2.3,16.5,5.3c5.5,4.9,8.7,9.1,8.7,9.1c-6.1,5.8-24.5,10.6-34.5,9.2
				C76.8,103,78.3,86.7,92.3,86.7z"/>
		</g>
		<path class="st12" d="M84.9,105.7c-4.2-2.9-1-14.7,4.9-15.8c6.4-1,20.9,7.9,26.9,11.8c-1.6,1.3-3.9,2.6-6.5,3.7
			C101.6,106.4,87.8,107.7,84.9,105.7z"/>
		<path class="st11" d="M119.2,103.4c0,0,5.9-10.1,27.6-29c13.3-11.5,16.1-11.9,23.8-2.4c7.7,9.4,6.3,17.8-3.8,25.5
			C156.6,105.2,131.5,111.8,119.2,103.4z"/>
		<g>
			<path class="st2" d="M173.8,79.7c0.8,0.9,1.4,1.9,1.7,2.9c0.4,5.3-2.5,10.2-8.7,14.9c-10.1,7.7-35.3,14.3-47.5,5.9
				C140.2,84.2,165.7,71.3,173.8,79.7z"/>
		</g>
		<path class="st12" d="M168.9,81.8c3.5,1.7,3.5,9.4-14.7,17.1c-11.3,4.8-24.6,4-33,2.7c1.4-1.2,2.8-2.4,4.2-3.6
			C149.8,83.4,165.5,80.1,168.9,81.8z"/>
		<path class="st11" d="M119.2,103.4c0,0,13.3-11.5,15-30.1c1.7-18.5-5.2-26.2-11.9-23.1c-6.6,3.1-20.6,4.9-19.9,8.4
			C103.2,62.2,112.2,100.6,119.2,103.4z"/>
		<g>
			<path class="st2" d="M128.2,50.4c4.2,2.3,7.3,10,6.1,23c-1.7,18.5-15,30.1-15,30.1c-0.2-0.1-0.3-0.2-0.5-0.3
				c1-15.4,5.4-42.7,7.8-50.4C127,51.5,127.5,50.8,128.2,50.4z"/>
		</g>
		<path class="st12" d="M127.3,58.6c3.5,1.9,6,8.3,5,19c-1.4,15.4-12.5,24.9-12.5,24.9c-0.1-0.1-0.3-0.1-0.4-0.2
			c0.8-12.8,4.4-35.4,6.5-41.8C126.3,59.5,126.8,58.9,127.3,58.6z"/>
		<path class="st2" d="M122.9,53c0,0-5.9-1.3-9.2,2c-3.8,2.3-10.2,0-8.4,5.9c1.8,5.9,5.9,21.7,5.9,21.7s-2.8-14.3-2.3-19.9
			c0.5-5.6,0.8,0.3,6.1-3.6C120.4,55.3,117.8,54.8,122.9,53z"/>
		<path class="st2" d="M160.5,66.6c0,0,3.9,1.2,3.9,3.4c0,2.2,1.2,1.9,3.1,3.4c1.9,1.4-11.3,1.2-31,14.2
			C144.9,75.8,154.1,68.3,160.5,66.6z"/>
	</g>
</g>
</svg>
