<?xml version="1.0" encoding="utf-8"?>
<!-- Generator: Adobe Illustrator 27.9.0, SVG Export Plug-In . SVG Version: 6.00 Build 0)  -->
<svg version="1.1" id="Слой_1" xmlns="http://www.w3.org/2000/svg" xmlns:xlink="http://www.w3.org/1999/xlink" x="0px" y="0px"
	 viewBox="0 0 351 151" style="enable-background:new 0 0 351 151;" xml:space="preserve">
<style type="text/css">
	.st0{fill:#3D694F;}
	.st1{opacity:0.41;fill:#3D694F;}
	.st2{fill:#6EA754;}
	.st3{fill:#7BB05C;}
	.st4{fill:#233A2D;}
	.st5{fill:#58856C;}
	.st6{fill:#B2CE57;}
	.st7{fill:#7AB55E;}
	.st8{fill:#C5333B;}
	.st9{fill:#E94D38;}
</style>
<g>
	<g>
		<g>
			<polygon class="st0" points="1.1,47.7 1.1,134.3 147,151.3 147,37.7 			"/>
			<g>
				<polygon class="st1" points="147,37.7 1.1,47.7 1.1,62.3 147,79.1 				"/>
			</g>
			<polygon class="st2" points="147,37.7 147,151.3 197.1,123.9 197.1,39.2 			"/>
			<g>
				<polygon class="st2" points="197.1,39.2 147,37.7 147,78.5 197.1,49.9 				"/>
			</g>
		</g>
		<g>
			<path class="st3" d="M47.6,77.4c0.8,1.5,0.7,3.1-0.2,3.6c-1,0.6-2.4-0.2-3.3-1.6c-0.8-1.5-0.7-3.1,0.2-3.6
				C45.3,75.2,46.8,75.9,47.6,77.4z"/>
			<path class="st3" d="M41.1,108.4c0.8,1.5,0.7,3.1-0.2,3.6c-1,0.6-2.4-0.2-3.3-1.6c-0.8-1.5-0.7-3.1,0.2-3.6S40.3,107,41.1,108.4z
				"/>
			<path class="st3" d="M125.1,95.6c0.8,1.5,0.7,3.1-0.2,3.6c-1,0.6-2.4-0.2-3.3-1.6c-0.8-1.5-0.7-3.1,0.2-3.6
				S124.3,94.1,125.1,95.6z"/>
			<path class="st3" d="M175.8,96.1c-0.8,1.5-2.3,2.2-3.3,1.6c-1-0.6-1.1-2.2-0.2-3.6c0.8-1.5,2.3-2.2,3.3-1.6
				C176.5,93,176.6,94.6,175.8,96.1z"/>
			<path class="st3" d="M188.3,103.3c-1.4,2.4-3.8,3.6-5.3,2.7c-1.6-0.9-1.7-3.6-0.3-6c1.4-2.4,3.8-3.6,5.3-2.7
				S189.7,100.9,188.3,103.3z"/>
			<path class="st3" d="M117.9,98.5c0.5,0.9,0.4,1.8-0.1,2.2c-0.6,0.3-1.4-0.1-1.9-1c-0.5-0.9-0.4-1.8,0.1-2.2
				C116.5,97.2,117.4,97.7,117.9,98.5z"/>
		</g>
		<polygon class="st4" points="173.7,50 80.5,42.7 51.9,52.8 147,63 		"/>
		<polygon class="st0" points="197.1,38.6 78.4,27.9 80.5,42.7 173.7,50 		"/>
		<polygon class="st2" points="0.3,47.3 51.9,52.8 80.5,42.7 78.4,27.9 		"/>
	</g>
	<g>
		<polygon class="st5" points="155.8,3.7 135.9,38.5 265.3,131.2 284,97.5 		"/>
		<g>
			<polygon class="st6" points="265.3,131.2 336,133 350.7,107.2 284,97.5 			"/>
			<polygon class="st7" points="155.8,3.7 284,97.5 350.7,107.2 249.2,32.5 			"/>
		</g>
		<path class="st8" d="M207.2,91.3c5.6,4.1,11.4,8,17,12.1l18-36.4l21.5-16.2l-2.6-1.8l-43.4-0.5L200,85.9
			C202.4,87.7,204.8,89.5,207.2,91.3z"/>
		<path class="st8" d="M225.8,54.3c5.7,4.1,11.4,8.1,17.1,12.2l20.9-15.8l-2.6-1.8l-43.4-0.5l-0.1,0.1
			C220.4,50.5,223.1,52.4,225.8,54.3z"/>
		<path class="st8" d="M247.8,40.9c0,0-25.1-19.3-61.1-18.5c8.1,4.3,8.1,4.3,8.1,4.3s-7.2,1.2-11.7,6c14.8-2.1,76.1,20.7,76.1,20.7
			S258.3,50,247.8,40.9z"/>
		<path class="st8" d="M219.8,40.1c19.7,6,39.3,13.2,39.3,13.2s-0.7-3.4-11.3-12.5c0,0-11.8-9-30.7-14.5
			C218,31,218.9,35.6,219.8,40.1z"/>
		<path class="st8" d="M257.5,47.7c0,0-0.5,11.4,8.7,30.3l8.6-6l10.9,15.8l1.2-21.9C286.9,65.9,267.3,41.2,257.5,47.7z"/>
		<path class="st8" d="M259.6,60.6c1,0.3,2,0.6,3,1c8.5,3.4,16.4,8.1,23.8,13.5l0.5-9.1c0,0-19.6-24.7-29.4-18.2
			C257.5,47.7,257.3,52.4,259.6,60.6z"/>
		<polygon class="st8" points="283.2,66.7 320.8,96.5 311,85.1 317.2,84.7 291.6,65.1 		"/>
		<path class="st8" d="M304.7,75.1l-13.1-10.1l-8.4,1.6l13.5,10.7C299.4,76.7,302.1,76,304.7,75.1z"/>
		<path class="st9" d="M263.6,47.8c0,0,11.9-5.1,25.7-4.5c13.7,0.6,27,4.6,23.7,12.8c-3.3,8.2-7.7,19.8-25.9,14.5
			C278.7,67.6,265.9,55.2,263.6,47.8z"/>
		<g>
			<path class="st8" d="M289.6,47.8c-4.9-2.8-10.2-3.5-15.2-3.2c-6.5,1.3-10.8,3.2-10.8,3.2c2.2,7.2,14.4,19.1,22.8,22.5
				C294.4,67.5,300.5,54,289.6,47.8z"/>
		</g>
		<g>
			<path class="st2" d="M286.9,65.9c4.6-0.4,7.4-11,3.2-14.5c-4.6-3.6-19.8-3.1-26.2-2.7c0.7,1.8,1.9,3.7,3.4,5.7
				C273.6,59.1,283.8,66.2,286.9,65.9z"/>
		</g>
		<path class="st9" d="M261.1,48.9c0,0-0.1-10.5-8.6-34.9c-5.2-14.9-7.3-16.4-17.4-12.5c-10.2,3.9-12.8,11.1-8.3,21.6
			C231.2,33.7,247.9,50,261.1,48.9z"/>
		<g>
			<path class="st8" d="M229.2,6.2c-1.1,0.3-1.9,0.9-2.6,1.5c-2.6,3.9-2.6,9.1,0.2,15.5c4.5,10.5,21.2,26.8,34.4,25.7
				C253.3,24.6,239.2,3.2,229.2,6.2z"/>
		</g>
		<g>
			<path class="st2" d="M232.1,10c-3.5-0.2-6.9,5.8,3.8,19.9c6.7,8.8,17.4,14.1,24.5,16.8c-0.5-1.6-1.1-3.2-1.7-4.7
				C246.2,19.7,235.5,10.2,232.1,10z"/>
		</g>
		<path class="st9" d="M261.1,48.9c0,0-5.2-14.9,1.6-30.1c6.9-15.2,15.7-18.1,19.5-12.7c3.8,5.4,13.9,13,11.8,15.4
			C292,23.9,267.8,49.9,261.1,48.9z"/>
		<g>
			<path class="st8" d="M277.7,3.6c-4.3,0-10.1,4.5-14.9,15.2c-6.9,15.2-1.6,30.1-1.6,30.1c0.2,0,0.3,0,0.5,0
				c6.1-12.5,14.8-35.7,16.3-42.8C278.2,5,278.1,4.2,277.7,3.6z"/>
		</g>
		<g>
			<path class="st2" d="M274.7,10.4c-3.6,0-8.4,3.8-12.4,12.6c-5.7,12.6-1.4,24.9-1.4,24.9c0.1,0,0.3,0,0.4,0
				c5-10.3,12.3-29.6,13.5-35.4C275.1,11.5,275,10.9,274.7,10.4z"/>
		</g>
		<path class="st8" d="M280.7,8c0,0,5.1,1.6,6.3,5.7c2,3.5,8,4.5,4,8.3c-4,3.8-14.2,14.3-14.2,14.3s8.5-9.9,10.6-14.5
			c2.1-4.6-0.7-0.1-3.2-5.5C281.7,10.9,283.9,11.6,280.7,8z"/>
		<path class="st8" d="M295.8,50.3c0,0,2.6-3.6,5.6-0.5c3,3,4.7,1.9,8.2,2.3c3.5,0.4,2.3,7.9-5.7,15.5c4.1-7.2,8.3-13.7,4.2-12.4
			c-4.2,1.3-5.4-1.2-7-3.5C299.5,49.5,295.8,50.3,295.8,50.3z"/>
		<path class="st8" d="M245.3,1.9c0,0-3.5-0.8-4.5,0.9c-1,1.7-1.8,1-3.9,1.2c-2.1,0.3,8.3,6,17.9,24.9C253.4,16,249.6,6.1,245.3,1.9
			z"/>
	</g>
</g>
</svg>
