<?xml version="1.0" encoding="utf-8"?>
<!-- Generator: Adobe Illustrator 27.9.0, SVG Export Plug-In . SVG Version: 6.00 Build 0)  -->
<svg version="1.1" id="Слой_1" xmlns="http://www.w3.org/2000/svg" xmlns:xlink="http://www.w3.org/1999/xlink" x="0px" y="0px"
	 viewBox="0 0 324 267" style="enable-background:new 0 0 324 267;" xml:space="preserve">
<style type="text/css">
	.st0{opacity:0.38;fill:#1E1E1C;}
	.st1{fill:#BACEEC;}
	.st2{opacity:0.41;fill:#395CA7;}
	.st3{fill:#6A79B9;}
	.st4{fill:#796AAE;}
	.st5{fill:#D0EBF9;}
	.st6{fill:#BCD9F3;}
	.st7{fill:#FFFFFF;}
	.st8{fill:#383E90;}
	.st9{fill:#514696;}
	.st10{fill:#241A40;}
	.st11{fill:#0B0B12;}
	.st12{fill:#4C5FA9;}
</style>
<g>
	<ellipse class="st0" cx="162" cy="231.2" rx="161.6" ry="35.6"/>
	<g>
		<polygon class="st1" points="18.4,119.8 18.4,226.2 197.7,247 197.7,107.4 		"/>
		<g>
			<polygon class="st2" points="197.7,107.4 18.4,119.8 18.4,137.7 197.7,158.4 			"/>
		</g>
		<polygon class="st3" points="197.7,107.4 197.7,247 259.2,213.4 259.2,103.2 		"/>
		<g>
			<polygon class="st4" points="259.2,103.2 197.7,107.4 197.7,157.7 259.2,122.5 			"/>
		</g>
		<polygon class="st5" points="0.4,75.3 0.4,124.5 194.8,144.8 194.4,97.5 		"/>
		<polygon class="st6" points="194.8,144.8 271.5,103.7 271.5,67.2 194.4,97.5 		"/>
		<polygon class="st7" points="0.4,75.3 194.4,97.5 271.5,67.2 117.7,49.3 		"/>
		<polygon class="st8" points="93.8,85.3 140.4,59.5 144.3,59.9 131.2,90.4 140,243.3 105.4,238.3 		"/>
		<path class="st8" d="M108.6,137.5c8.5,0.9,17,1.6,25.5,2.6l-2.9-49.8l13.1-30.4l-3.9-0.4L93.8,85.3l3.8,50.8
			C101.3,136.7,104.9,137.1,108.6,137.5z"/>
		<path class="st9" d="M105.9,87.1c8.5,0.9,17.1,1.8,25.6,2.7l12.7-29.5l-3.9-0.4L93.8,85.6l0,0.2C97.9,86.2,101.9,86.6,105.9,87.1z
			"/>
		<path class="st9" d="M107.1,154.5c9.3,0.5,18.6,1.2,27.9,2l-0.8-14.5c-12.1-1.4-24.3-2.2-36.4-3.9l1.2,15.9
			C101.7,154.3,104.4,154.4,107.1,154.5z"/>
		<path class="st8" d="M122.2,56.9c0,0-38.6-5.3-76.5,17.5C57,74,57,74,57,74s-6.9,5.6-8.9,13.5c14.5-11.2,93.8-24.2,93.8-24.2
			S139,60.2,122.2,56.9z"/>
		<path class="st9" d="M91,73.1c24.6-5.6,50-9.8,50-9.8s-2.8-3.2-19.6-6.5c0,0-18.1-2.5-41.6,3.3C83.5,64.5,87.3,68.8,91,73.1z"/>
		<path class="st8" d="M135.8,60.5c0,0,6.4,12.4,27.7,27.1l5.6-11.7l21.2,10.3l-12-24.1C178.2,62,142.3,47.6,135.8,60.5z"/>
		<path class="st9" d="M145.8,72.7c1.3-0.3,2.5-0.5,3.8-0.7c11.1-1.5,22.4-1.3,33.6-0.1l-5-10.1c0,0-36-14.4-42.4-1.6
			C135.8,60.3,138.5,65.3,145.8,72.7z"/>
		<polygon class="st8" points="174.8,65 233.1,74 215.7,67.9 222,63.6 182.8,58.2 		"/>
		<path class="st9" d="M201.7,61l-20.1-2.8l-8,6.8l20.9,3.2C197,65.9,199.5,63.5,201.7,61z"/>
		<path class="st8" d="M142.3,56.8c0,0,9.6-12.7,24.7-20.4c15-7.7,31.6-11.6,33.1-0.8c1.5,10.8,3.9,25.8-18.9,31.2
			C170.5,68.8,149.3,63.4,142.3,56.8z"/>
		<g>
			<path class="st10" d="M170.1,41c-6.9,0-13.1,2.5-18.1,5.8c-6.1,5.4-9.6,10-9.6,10c6.8,6.4,27,11.6,38,10.1
				C187.2,59.1,185.5,41,170.1,41z"/>
		</g>
		<path class="st11" d="M178.2,62c4.6-3.3,1.1-16.3-5.4-17.4c-7.1-1.1-23.1,8.7-29.6,13c1.8,1.4,4.3,2.8,7.1,4.1
			C159.9,62.8,175.1,64.2,178.2,62z"/>
		<path class="st8" d="M140.4,59.5c0,0-6.5-11.2-30.4-32c-14.6-12.7-17.7-13.1-26.2-2.7S76.9,44.5,88,53
			C99.2,61.5,126.9,68.8,140.4,59.5z"/>
		<g>
			<path class="st10" d="M80.3,33.3c-0.9,1-1.5,2.1-1.9,3.3C78,42.4,81.2,47.8,88,53c11.2,8.5,38.9,15.8,52.4,6.5
				C117.3,38.3,89.2,24.1,80.3,33.3z"/>
		</g>
		<path class="st11" d="M85.7,35.7c-3.9,1.9-3.9,10.4,16.2,18.9c12.5,5.3,27.1,4.4,36.3,3c-1.5-1.4-3.1-2.7-4.7-4
			C106.7,37.4,89.5,33.8,85.7,35.7z"/>
		<path class="st8" d="M140.4,59.5c0,0-14.6-12.7-16.6-33.1C121.9,6,129.6-2.5,137,1c7.3,3.5,22.7,5.4,22,9.2
			C158.1,14.1,148.1,56.5,140.4,59.5z"/>
		<g>
			<path class="st10" d="M130.5,1.1c-4.7,2.6-8,11-6.7,25.3c1.9,20.4,16.6,33.1,16.6,33.1c0.2-0.1,0.4-0.2,0.5-0.3
				c-1.1-17-5.9-47.1-8.6-55.6C131.9,2.3,131.3,1.5,130.5,1.1z"/>
		</g>
		<path class="st11" d="M131.5,10.1c-3.9,2.1-6.7,9.1-5.5,21c1.6,16.9,13.7,27.5,13.7,27.5c0.1-0.1,0.3-0.2,0.4-0.2
			c-0.9-14.1-4.9-39-7.2-46C132.6,11.1,132.1,10.4,131.5,10.1z"/>
		<path class="st12" d="M136.4,3.9c0,0,6.5-1.4,10.1,2.3c4.2,2.5,11.3,0,9.3,6.5c-2,6.5-6.5,23.9-6.5,23.9s3.1-15.8,2.5-21.9
			c-0.6-6.2-0.8,0.3-6.8-3.9C139.2,6.4,142,5.9,136.4,3.9z"/>
		<path class="st12" d="M178.3,39.9c0,0,0.6-5.3,5.6-3.9c5.1,1.4,6.2-0.8,10.1-2.5c3.9-1.7,7.3,7,3.4,20c0-10.1,0.6-19.7-3.1-15.8
			c-3.7,3.9-6.5,2-9.6,0.6C181.7,36.8,178.3,39.9,178.3,39.9z"/>
		<path class="st12" d="M94.9,19c0,0-4.2,1.3-4.2,3.7c0,2.4-1.3,2.1-3.4,3.7C85.1,28,99.7,27.7,121.4,42
			C112.1,29,102.1,20.8,94.9,19z"/>
	</g>
</g>
</svg>
