<?xml version="1.0" encoding="utf-8"?>
<!-- Generator: Adobe Illustrator 27.9.0, SVG Export Plug-In . SVG Version: 6.00 Build 0)  -->
<svg version="1.1" id="Слой_1" xmlns="http://www.w3.org/2000/svg" xmlns:xlink="http://www.w3.org/1999/xlink" x="0px" y="0px"
	 viewBox="0 0 532 565" style="enable-background:new 0 0 532 565;" xml:space="preserve">
<style type="text/css">
	.st0{fill:#364A9E;}
	.st1{fill:#252E69;}
	.st2{fill:#DCE7FF;}
	.st3{fill:#89AAF3;}
	.st4{fill:#F3D17D;}
	.st5{opacity:0.3;fill:#FFFFFF;enable-background:new    ;}
	.st6{fill:#FAAF20;}
	.st7{fill:#05ACBC;}
	.st8{fill:#FA352D;}
	.st9{fill:#3A1B07;}
	.st10{fill:url(#SVGID_1_);}
	.st11{fill:url(#SVGID_00000111907087221306658960000001799520859701575840_);}
	.st12{fill:url(#SVGID_00000085938989453118768940000000872080786480100740_);}
	.st13{fill:url(#SVGID_00000072245256106977444100000006841293105576423071_);}
	.st14{fill:url(#SVGID_00000052089009091819599370000014363541411928829312_);}
</style>
<g>
	<g>
		<rect x="324.7" y="285.1" class="st0" width="25.5" height="33.8"/>
		<rect x="304.6" y="285.1" class="st1" width="20.1" height="33.8"/>
		<rect x="324.9" y="273.9" class="st2" width="28.4" height="11.3"/>
		<rect x="302.2" y="273.9" class="st3" width="22.4" height="11.3"/>
	</g>
	<polygon class="st0" points="234.8,520.9 435.1,520.9 444.2,423.9 234.8,423.9 	"/>
	<polygon class="st1" points="235.1,423.6 163,333.7 105.7,423.6 114.8,520.6 235.1,520.6 	"/>
	<path class="st2" d="M92.3,431c3.1,0,8.8,0,12.5,0c3.4,0,56.7-91.4,59-91.4c2.6,0,38.9,68.7,49.1,85.1c10.5,16.5,21.8,17,41.1,17
		h199.3c11.1,0,15.6-12.8,13.9-20.4c0-0.6-0.3-1.4-0.6-2c-3.1-7.4-57.6-70.9-72.1-88.8c-14.5-17.9-21.8-25-28.9-25H170.9
		c-6.5,0-11.6,2.8-15,7.4c-17.9,23.8-59,97-64.1,105.3C86.1,427.6,89.2,431,92.3,431z"/>
	<path class="st3" d="M92.3,431c3.1,0,8.8,0,12.5,0c3.4,0,56.7-91.4,59-91.4c2.6,0,38.9,68.7,49.1,85.1c10.5,16.5,21.8,17,41.1,17
		h199.3c11.1,0,15.6-12.8,13.9-20.4c-1.7,2-3.7,3.7-6,4.8c-16.2,5.4-33.5,5.1-50.5,3.1c-18.7-2-37.2-4.8-56.2-5.7
		c-20.4-0.9-40.6,0-61,2.3c-18.4,2-39.4,6.5-57-2.3c-25.5-13.1-31.5-46.3-43.1-69.8c-3.7-7.7-7.9-15-12.5-22.1
		c-3.7-5.4-7.4-11.9-12.8-15.6c-4-2.6-7.9-3.4-12.2-3.1c-17.9,23.8-59,97-64.1,105.3C86.1,427.6,89.2,431,92.3,431z"/>
	<rect x="149.9" y="392.1" class="st2" width="31.8" height="45.4"/>
	<g>
		<rect x="153.9" y="395.8" class="st4" width="10.2" height="17.3"/>
	</g>
	<g>
		<rect x="167.5" y="395.8" class="st4" width="10.2" height="17.3"/>
	</g>
	<g>
		<rect x="153.9" y="416.5" class="st4" width="10.2" height="17.3"/>
	</g>
	<g>
		<rect x="167.5" y="416.5" class="st4" width="10.2" height="17.3"/>
	</g>
	<rect x="381.9" y="459.6" class="st2" width="31.8" height="45.4"/>
	<g>
		<rect x="399.4" y="463.6" class="st4" width="10.2" height="17.3"/>
	</g>
	<g>
		<rect x="385.7" y="463.6" class="st4" width="10.2" height="17.3"/>
	</g>
	<g>
		<rect x="399.4" y="484" class="st4" width="10.2" height="17.3"/>
	</g>
	<g>
		<rect x="385.7" y="484" class="st4" width="10.2" height="17.3"/>
	</g>
	<rect x="265.4" y="459.6" class="st2" width="31.8" height="45.4"/>
	<g>
		<rect x="283" y="463.6" class="st4" width="10.2" height="17.3"/>
	</g>
	<g>
		<rect x="269.4" y="463.6" class="st4" width="10.2" height="17.3"/>
	</g>
	<g>
		<rect x="283" y="484" class="st4" width="10.2" height="17.3"/>
	</g>
	<g>
		<rect x="269.4" y="484" class="st4" width="10.2" height="17.3"/>
	</g>
	<path class="st2" d="M292.7,337.6c0,0,43.7,0,46,0c1.7,0,18.2,21.8,20.4,25.5c0.9,1.4-0.6,4-6,4c-3.7,0-42.8,0-42.8,0L292.7,337.6z
		"/>
	<polygon class="st0" points="327.6,362 327.6,397.8 353.1,397.8 353.1,362 340.3,346.1 	"/>
	<polygon class="st1" points="327.6,362 307.4,362 327.6,397.8 	"/>
	<rect x="333.9" y="362.6" class="st2" width="14.5" height="24.7"/>
	<g>
		<rect x="341.8" y="364.3" class="st4" width="4.8" height="7.9"/>
	</g>
	<g>
		<rect x="335.5" y="364.3" class="st4" width="4.8" height="7.9"/>
	</g>
	<g>
		<rect x="341.8" y="373.7" class="st4" width="4.8" height="11.6"/>
	</g>
	<g>
		<rect x="335.5" y="373.7" class="st4" width="4.8" height="11.6"/>
	</g>
	<rect x="324.4" y="457.4" class="st2" width="34.9" height="63.6"/>
	<g>
		<rect x="338.1" y="461.9" class="st4" width="7.7" height="9.4"/>
	</g>
	<path class="st5" d="M522.9,68.2C474.7,27.8,368-38.5,346.5,30.3s32.3,83,9,114s-62.8,63.2-42.6,90.8
		c20.2,27.5,23.6,29.7,24.1,14.6c0,0-17.2-41.7,18.5-44.3s15.5-29.7,33.1-58.1S571.1,108.7,522.9,68.2z M340.5,188.3
		c-12.5-7.7,22.8-28.4,22.8-28.4C372.3,190,353,196,340.5,188.3z M380.5,101.8c-46.9-11.6-23.7-58.1-3.4-85.2
		c20.2-27.1,69.3,24.1,86.5,45.2c17.2,21.1-21.9,20.2-66.7,25.4S382.2,102.2,380.5,101.8z M397.3,122c-1.7-9,15.9-17.2,15.9-17.2
		s81.7-40.9,80-20.2C491.5,105.2,399,131.1,397.3,122z"/>
	<g>
		<rect x="328.1" y="461.9" class="st4" width="7.7" height="9.4"/>
	</g>
	<rect x="333.8" y="503.6" class="st4" width="15.9" height="2.3"/>
	<g>
		<rect x="347.7" y="461.9" class="st4" width="7.7" height="9.4"/>
	</g>
	<g>
		<rect x="338.1" y="473.8" class="st4" width="7.7" height="9.4"/>
	</g>
	<g>
		<rect x="328.1" y="473.8" class="st4" width="7.7" height="9.4"/>
	</g>
	<g>
		<rect x="347.7" y="473.8" class="st4" width="7.7" height="9.4"/>
	</g>
	<g>
		<rect x="338.1" y="486" class="st4" width="7.7" height="9.4"/>
	</g>
	<g>
		<rect x="328.1" y="486" class="st4" width="7.7" height="9.4"/>
	</g>
	<g>
		<rect x="347.7" y="486" class="st4" width="7.7" height="9.4"/>
	</g>
	<g>
		<polygon class="st0" points="99.7,535.3 190.2,535.3 196.5,485.3 99.7,485.3 		"/>
		<polygon class="st1" points="99.7,485.3 50,439.1 10.6,485.3 16.8,535.3 99.7,535.3 		"/>
		<path class="st2" d="M2.7,486.2c2,0,6.2,0,8.5,0s39.2-47.1,40.9-47.1s26.7,35.2,34,43.7c7.1,8.5,15,8.8,28.4,8.8h82.3
			c7.7,0,10.8-6.5,9.6-10.5c0-0.3-0.3-0.6-0.3-0.9c-2-4-39.7-36.6-49.7-45.7s-15-12.8-19.9-12.8H57.4c-4.5,0-7.9,1.4-10.2,3.7
			c-12.5,12.2-40.6,49.9-44.3,54.2C-1.6,484.5,0.7,486.2,2.7,486.2z"/>
		<path class="st3" d="M2.7,486.2c2,0,6.2,0,8.5,0s37.2-45.4,38.9-45.4s28.7,33.8,35.8,42c7.1,8.5,15,8.8,28.4,8.8h82.3
			c7.7,0,10.8-6.5,9.6-10.5c-1.1,1.1-2.6,1.7-4,2.6c-11.3,2.8-23,2.6-34.9,1.7c-13.1-1.1,29.5-2.6,16.5-2.8c-13.9-0.3-28.1,0-42,1.1
			c-12.8,1.1-27.2,3.4-39.4-1.1c-17.6-6.8-21.8-23.8-29.8-36c-2.6-4-5.4-7.7-8.8-11.3c-2.6-2.8-5.1-6-8.8-7.9
			c-2.6-1.4-5.4-1.7-8.2-1.7c-12.5,12.2-40.6,49.9-44.3,54.2C-1.6,484.5,0.7,486.2,2.7,486.2z"/>
	</g>
	<g>
		<path d="M441.5,454.5c-6.3-2.3-12.8-4.3-19.4-4.9c-8.7-0.8-16.4,2.2-24.4,5.2c-8.2,3.1-16.7,5.2-25.4,5.3c-4.6,0-9.2-0.4-13.7-1.5
			c-4.3-1.1-8.5-2.7-12.7-4.1c-8-2.7-16.6-3.9-25.1-2.8c-8.8,1.2-16.5,5.5-24.8,8.2c-8.7,2.8-17.8,3-26.6,0.6
			c-9.2-2.4-17.1-7.5-26.1-10.6c-2.6-0.9-5.3-1.6-8-2.1v0.9c3.1,0.5,6.2,1.4,9.2,2.5c7.7,2.9,14.8,7.3,22.8,9.6
			c8,2.3,16.3,3,24.5,1.2c8.6-1.9,16.2-6.5,24.7-8.6c9.4-2.3,19.3-1.2,28.4,1.7c8.2,2.6,16,5.6,24.7,5.9c8.5,0.2,16.9-1.3,24.9-4
			c8.3-2.9,16.3-6.8,25.3-6.5c7.5,0.2,14.6,2.7,21.7,5.2L441.5,454.5L441.5,454.5z"/>
		<path class="st6" d="M256.3,461.4c-0.7,1.6-2.6,2.3-4.2,1.5c-1.6-0.7-2.3-2.6-1.5-4.2c0.7-1.6,2.6-2.3,4.2-1.5
			C256.4,457.9,257.1,459.8,256.3,461.4z"/>
		<path d="M256.1,456.1c-0.3-0.1-0.7-0.3-0.7-0.3s-0.5-0.2-0.7-0.3c-0.3-0.1-0.5,0-0.5,0l-0.7,1.4l1.1,0.5l1.1,0.5l0.7-1.4
			C256.4,456.5,256.4,456.3,256.1,456.1z"/>
		<path class="st6" d="M305.7,461.9c0.6,1.6-0.2,3.5-1.9,4.1c-1.6,0.6-3.5-0.2-4.1-1.9c-0.6-1.6,0.2-3.5,1.9-4.1
			C303.3,459.4,305.1,460.3,305.7,461.9z"/>
		<path d="M301.9,458.4c-0.3,0.1-0.8,0.3-0.8,0.3s-0.5,0.2-0.8,0.3s-0.3,0.3-0.3,0.3l0.5,1.4l1.2-0.5l1.2-0.5l-0.5-1.4
			C302.4,458.4,302.2,458.2,301.9,458.4z"/>
		<path class="st6" d="M390,462.8c0.3,1.7-0.8,3.4-2.5,3.7c-1.7,0.3-3.4-0.8-3.7-2.5c-0.3-1.7,0.8-3.4,2.5-3.7
			C388.1,460,389.7,461.1,390,462.8z"/>
		<path d="M386.9,458.7c-0.3,0.1-0.8,0.2-0.8,0.2s-0.5,0.1-0.8,0.2c-0.3,0.1-0.4,0.3-0.4,0.3l0.3,1.5l1.2-0.2l1.2-0.2l-0.3-1.5
			C387.3,458.8,387.2,458.7,386.9,458.7z"/>
		<path class="st6" d="M343.7,459c-0.5,1.7-2.3,2.6-3.9,2.1c-1.7-0.5-2.6-2.3-2.1-3.9c0.5-1.7,2.3-2.6,3.9-2.1
			C343.3,455.6,344.2,457.4,343.7,459z"/>
		<path d="M342.8,453.9c-0.3-0.1-0.8-0.2-0.8-0.2s-0.5-0.1-0.8-0.2c-0.3-0.1-0.5,0.1-0.5,0.1l-0.5,1.5l1.2,0.4l1.2,0.4l0.5-1.5
			C343.2,454.2,343.2,454,342.8,453.9z"/>
		<ellipse class="st6" cx="421.1" cy="455.2" rx="3.2" ry="3.2"/>
		<path d="M422.1,450.6c-0.3,0-0.8,0-0.8,0s-0.5,0-0.8,0s-0.4,0.2-0.4,0.2l-0.1,1.5l1.2,0.1l1.2,0.1l0.1-1.5
			C422.5,450.8,422.5,450.6,422.1,450.6z"/>
		<circle class="st7" cx="402.3" cy="448.7" r="3.2"/>
		<path d="M403,453.4c0.3-0.1,0.8-0.2,0.8-0.2s0.5-0.2,0.8-0.2c0.3-0.1,0.3-0.3,0.3-0.3l-0.5-1.4l-1.2,0.4l-1.2,0.4l0.5,1.4
			C402.6,453.3,402.7,453.5,403,453.4z"/>
		<ellipse class="st8" cx="366.1" cy="455.6" rx="3.2" ry="3.2"/>
		<path d="M364.6,460.1c0.3,0,0.8,0.1,0.8,0.1s0.5,0.1,0.8,0.1s0.4-0.1,0.4-0.1l0.2-1.5l-1.2-0.2l-1.2-0.2l-0.2,1.5
			C364.3,459.8,364.3,460,364.6,460.1z"/>
		<path class="st8" d="M434,447.7c0.5-1.6,2.3-2.6,4-2c1.6,0.5,2.6,2.3,2,4c-0.5,1.6-2.3,2.6-4,2C434.3,451.2,433.4,449.4,434,447.7
			z"/>
		<path d="M434.7,452.9c0.3,0.1,0.8,0.2,0.8,0.2s0.5,0.2,0.8,0.2c0.3,0.1,0.5,0,0.5,0l0.5-1.4l-1.2-0.4l-1.2-0.4l-0.5,1.4
			C434.4,452.6,434.4,452.8,434.7,452.9z"/>
		<path class="st8" d="M275.1,457.1c0.2-1.7,1.9-2.9,3.6-2.6c1.7,0.2,2.9,1.9,2.6,3.6c-0.2,1.7-1.9,2.9-3.6,2.6
			C276,460.4,274.9,458.8,275.1,457.1z"/>
		<path d="M276.7,462c0.3,0,0.8,0.1,0.8,0.1s0.5,0.1,0.8,0.1c0.3,0,0.4-0.1,0.4-0.1l0.2-1.5l-1.2-0.2l-1.2-0.2l-0.2,1.5
			C276.3,461.8,276.4,462,276.7,462z"/>
		<path class="st7" d="M240.9,444.5c0.6-1.6,2.4-2.4,4.1-1.8c1.6,0.6,2.4,2.4,1.8,4.1s-2.4,2.4-4.1,1.8
			C241.1,447.9,240.2,446.1,240.9,444.5z"/>
		<path class="st9" d="M241.4,449.6c0.3,0.1,0.8,0.3,0.8,0.3s0.5,0.2,0.8,0.3c0.3,0.1,0.5,0,0.5,0l0.5-1.4l-1.2-0.5l-1.2-0.5
			l-0.5,1.4C241.1,449.3,241.1,449.5,241.4,449.6z"/>
		<ellipse class="st7" cx="319.4" cy="447.9" rx="3.2" ry="3.2"/>
		<path d="M320,452.6c0.3-0.1,0.8-0.2,0.8-0.2s0.5-0.2,0.8-0.2c0.3-0.1,0.3-0.3,0.3-0.3l-0.5-1.5l-1.2,0.4l-1.2,0.4l0.5,1.5
			C319.6,452.5,319.7,452.7,320,452.6z"/>
	</g>
	<g>
		<path d="M99.2,508.3c-2.6-0.9-5.3-1.8-8.1-2.1c-3.6-0.3-6.9,0.9-10.2,2.2c-3.4,1.3-7,2.2-10.6,2.2c-1.9,0-3.9-0.2-5.7-0.6
			c-1.8-0.4-3.5-1.1-5.3-1.7c-3.4-1.1-7-1.6-10.5-1.2c-3.7,0.5-6.9,2.3-10.4,3.4c-3.7,1.2-7.4,1.2-11.1,0.3c-3.8-1-7.2-3.1-10.9-4.5
			c-1.1-0.4-2.2-0.7-3.4-0.9v0.4c1.3,0.2,2.6,0.6,3.8,1.1c3.2,1.2,6.2,3,9.5,4c3.3,1,6.8,1.3,10.3,0.5c3.6-0.8,6.8-2.7,10.3-3.6
			c3.9-1,8.1-0.5,11.9,0.7c3.4,1.1,6.7,2.3,10.3,2.5c3.5,0.1,7.1-0.5,10.4-1.7c3.5-1.2,6.8-2.8,10.6-2.7c3.1,0.1,6.1,1.1,9.1,2.2
			L99.2,508.3L99.2,508.3z"/>
		<path class="st6" d="M21.7,511.2c-0.3,0.7-1.1,0.9-1.8,0.6c-0.7-0.3-0.9-1.1-0.6-1.8c0.3-0.7,1.1-0.9,1.8-0.6
			C21.7,509.7,22,510.5,21.7,511.2z"/>
		<path d="M21.7,509c-0.1-0.1-0.3-0.1-0.3-0.1s-0.2-0.1-0.3-0.1c-0.1-0.1-0.2,0-0.2,0l-0.3,0.6l0.5,0.2l0.5,0.2l0.3-0.6
			C21.8,509.2,21.8,509.1,21.7,509z"/>
		<path class="st6" d="M42.4,511.4c0.3,0.7-0.1,1.4-0.8,1.7c-0.7,0.3-1.4-0.1-1.7-0.8c-0.3-0.7,0.1-1.4,0.8-1.7
			C41.4,510.4,42.1,510.7,42.4,511.4z"/>
		<path d="M40.8,509.9c-0.1,0.1-0.3,0.1-0.3,0.1s-0.2,0.1-0.3,0.1c-0.1,0.1-0.1,0.1-0.1,0.1l0.2,0.6l0.5-0.2l0.5-0.2l-0.2-0.6
			C41,510,40.9,509.9,40.8,509.9z"/>
		<path class="st6" d="M77.7,511.8c0.1,0.7-0.3,1.4-1.1,1.6c-0.7,0.1-1.4-0.3-1.6-1.1c-0.1-0.7,0.3-1.4,1.1-1.6
			C76.8,510.6,77.5,511.1,77.7,511.8z"/>
		<path d="M76.3,510.1c-0.1,0-0.3,0.1-0.3,0.1s-0.2,0-0.3,0.1c-0.1,0-0.2,0.1-0.2,0.1l0.1,0.6l0.5-0.1l0.5-0.1l-0.1-0.6
			C76.5,510.1,76.5,510.1,76.3,510.1z"/>
		<path class="st6" d="M58.3,510.2c-0.2,0.7-0.9,1.1-1.6,0.9c-0.7-0.2-1.1-0.9-0.9-1.6c0.2-0.7,0.9-1.1,1.6-0.9
			C58.1,508.8,58.5,509.5,58.3,510.2z"/>
		<path d="M57.9,508.1c-0.1,0-0.3-0.1-0.3-0.1s-0.2-0.1-0.3-0.1c-0.1,0-0.2,0-0.2,0l-0.2,0.6l0.5,0.2l0.5,0.2l0.2-0.6
			C58.1,508.2,58.1,508.1,57.9,508.1z"/>
		<ellipse class="st6" cx="90.7" cy="508.6" rx="1.3" ry="1.3"/>
		<path d="M91.1,506.7c-0.1,0-0.3,0-0.3,0s-0.2,0-0.3,0c-0.1,0-0.2,0.1-0.2,0.1l0,0.6l0.5,0l0.5,0l0-0.6
			C91.3,506.8,91.3,506.7,91.1,506.7z"/>
		<circle class="st7" cx="82.8" cy="505.9" r="1.3"/>
		<path d="M83.1,507.8c0.1-0.1,0.3-0.1,0.3-0.1s0.2-0.1,0.3-0.1c0.1-0.1,0.1-0.1,0.1-0.1l-0.2-0.6l-0.5,0.2l-0.5,0.2l0.2,0.6
			C82.9,507.8,83,507.9,83.1,507.8z"/>
		<ellipse class="st8" cx="67.7" cy="508.8" rx="1.3" ry="1.3"/>
		<path d="M67.1,510.6c0.1,0,0.3,0.1,0.3,0.1s0.2,0,0.3,0.1c0.1,0,0.2-0.1,0.2-0.1l0.1-0.6l-0.5-0.1l-0.5-0.1l-0.1,0.6
			C66.9,510.5,66.9,510.6,67.1,510.6z"/>
		<path class="st8" d="M96.1,505.5c0.2-0.7,1-1.1,1.7-0.8c0.7,0.2,1.1,1,0.8,1.7c-0.2,0.7-1,1.1-1.7,0.8
			C96.2,506.9,95.8,506.2,96.1,505.5z"/>
		<path d="M96.4,507.6c0.1,0.1,0.3,0.1,0.3,0.1s0.2,0.1,0.3,0.1c0.1,0.1,0.2,0,0.2,0l0.2-0.6l-0.5-0.2l-0.5-0.2l-0.2,0.6
			C96.2,507.5,96.3,507.6,96.4,507.6z"/>
		<path class="st8" d="M29.6,509.4c0.1-0.7,0.8-1.2,1.5-1.1c0.7,0.1,1.2,0.8,1.1,1.5c-0.1,0.7-0.8,1.2-1.5,1.1
			C30,510.8,29.5,510.1,29.6,509.4z"/>
		<path d="M30.3,511.5c0.1,0,0.3,0.1,0.3,0.1s0.2,0,0.3,0.1c0.1,0,0.2-0.1,0.2-0.1l0.1-0.6l-0.5-0.1l-0.5-0.1l-0.1,0.6
			C30.1,511.4,30.1,511.5,30.3,511.5z"/>
		<path class="st7" d="M15.3,504.1c0.3-0.7,1-1,1.7-0.8c0.7,0.3,1,1,0.8,1.7c-0.3,0.7-1,1-1.7,0.8C15.3,505.6,15,504.8,15.3,504.1z"
			/>
		<path class="st9" d="M15.5,506.3c0.1,0.1,0.3,0.1,0.3,0.1s0.2,0.1,0.3,0.1c0.1,0.1,0.2,0,0.2,0l0.2-0.6l-0.5-0.2l-0.5-0.2
			l-0.2,0.6C15.3,506.1,15.3,506.2,15.5,506.3z"/>
		<ellipse class="st7" cx="48.1" cy="505.6" rx="1.3" ry="1.3"/>
		<path d="M48.4,507.5c0.1,0,0.3-0.1,0.3-0.1s0.2-0.1,0.3-0.1c0.1,0,0.1-0.1,0.1-0.1l-0.2-0.6l-0.5,0.2l-0.5,0.2l0.2,0.6
			C48.2,507.5,48.2,507.6,48.4,507.5z"/>
	</g>
	<g>
		<path d="M193.1,512.1c-2.9-1-5.8-2-8.8-2.3c-3.9-0.4-7.5,1-11.1,2.3c-3.7,1.4-7.6,2.3-11.6,2.4c-2.1,0-4.2-0.2-6.2-0.7
			c-2-0.5-3.8-1.2-5.8-1.9c-3.7-1.2-7.6-1.8-11.4-1.3c-4,0.5-7.5,2.5-11.3,3.8c-4,1.3-8.1,1.4-12.1,0.3c-4.2-1.1-7.8-3.4-11.9-4.8
			c-1.2-0.4-2.4-0.8-3.7-1v0.4c1.4,0.2,2.8,0.6,4.2,1.1c3.5,1.3,6.8,3.3,10.4,4.4c3.6,1.1,7.4,1.4,11.2,0.5c3.9-0.9,7.4-3,11.3-3.9
			c4.3-1.1,8.8-0.6,12.9,0.8c3.7,1.2,7.3,2.6,11.2,2.7c3.8,0.1,7.7-0.6,11.3-1.8c3.8-1.3,7.4-3.1,11.5-3c3.4,0.1,6.7,1.2,9.9,2.4
			L193.1,512.1L193.1,512.1z"/>
		<path class="st6" d="M108.8,515.2c-0.3,0.7-1.2,1-1.9,0.7c-0.7-0.3-1-1.2-0.7-1.9c0.3-0.7,1.2-1,1.9-0.7
			C108.8,513.6,109.1,514.4,108.8,515.2z"/>
		<path d="M108.7,512.8c-0.1-0.1-0.3-0.2-0.3-0.2s-0.2-0.1-0.3-0.2c-0.1-0.1-0.2,0-0.2,0l-0.3,0.6l0.5,0.2l0.5,0.2l0.3-0.6
			C108.8,513,108.8,512.9,108.7,512.8z"/>
		<path class="st6" d="M131.3,515.4c0.3,0.8-0.1,1.6-0.8,1.9c-0.8,0.3-1.6-0.1-1.9-0.8c-0.3-0.8,0.1-1.6,0.8-1.9
			S131,514.7,131.3,515.4z"/>
		<path d="M129.5,513.8c-0.2,0.1-0.4,0.1-0.4,0.1s-0.2,0.1-0.4,0.1c-0.2,0.1-0.2,0.2-0.2,0.2l0.2,0.7l0.5-0.2l0.5-0.2l-0.2-0.7
			C129.7,513.8,129.7,513.7,129.5,513.8z"/>
		<path class="st6" d="M169.7,515.8c0.2,0.8-0.4,1.5-1.1,1.7c-0.8,0.2-1.5-0.4-1.7-1.1c-0.2-0.8,0.4-1.5,1.1-1.7
			C168.8,514.6,169.5,515.1,169.7,515.8z"/>
		<path d="M168.2,514c-0.2,0-0.4,0.1-0.4,0.1s-0.2,0-0.4,0.1c-0.2,0-0.2,0.1-0.2,0.1l0.1,0.7l0.5-0.1l0.5-0.1l-0.1-0.7
			C168.4,514,168.4,513.9,168.2,514z"/>
		<path class="st6" d="M148.6,514.1c-0.2,0.8-1,1.2-1.8,1c-0.8-0.2-1.2-1-1-1.8c0.2-0.8,1-1.2,1.8-1
			C148.4,512.5,148.8,513.4,148.6,514.1z"/>
		<path d="M148.2,511.8c-0.2,0-0.4-0.1-0.4-0.1s-0.2-0.1-0.4-0.1c-0.2,0-0.2,0-0.2,0l-0.2,0.7l0.5,0.2l0.5,0.2l0.2-0.7
			C148.3,511.9,148.3,511.8,148.2,511.8z"/>
		<ellipse class="st6" cx="183.8" cy="512.4" rx="1.4" ry="1.4"/>
		<path d="M184.3,510.3c-0.2,0-0.4,0-0.4,0s-0.2,0-0.4,0c-0.2,0-0.2,0.1-0.2,0.1l0,0.7l0.6,0l0.6,0l0-0.7
			C184.5,510.4,184.4,510.3,184.3,510.3z"/>
		<circle class="st7" cx="175.3" cy="509.4" r="1.4"/>
		<path d="M175.6,511.5c0.2-0.1,0.4-0.1,0.4-0.1s0.2-0.1,0.4-0.1c0.2-0.1,0.2-0.2,0.2-0.2l-0.2-0.7l-0.5,0.2l-0.5,0.2l0.2,0.7
			C175.4,511.5,175.4,511.6,175.6,511.5z"/>
		<ellipse class="st8" cx="158.8" cy="512.5" rx="1.4" ry="1.4"/>
		<path d="M158.1,514.6c0.2,0,0.4,0.1,0.4,0.1s0.2,0,0.4,0.1c0.2,0,0.2-0.1,0.2-0.1l0.1-0.7l-0.6-0.1l-0.6-0.1l-0.1,0.7
			C157.9,514.5,157.9,514.6,158.1,514.6z"/>
		<path class="st8" d="M189.7,509c0.2-0.8,1.1-1.2,1.8-0.9c0.8,0.2,1.2,1.1,0.9,1.8c-0.2,0.8-1.1,1.2-1.8,0.9
			C189.8,510.5,189.4,509.7,189.7,509z"/>
		<path d="M190,511.3c0.2,0.1,0.4,0.1,0.4,0.1s0.2,0.1,0.4,0.1c0.2,0.1,0.2,0,0.2,0l0.2-0.7l-0.5-0.2l-0.5-0.2l-0.2,0.7
			C189.9,511.2,189.9,511.2,190,511.3z"/>
		<path class="st8" d="M117.3,513.2c0.1-0.8,0.9-1.3,1.6-1.2c0.8,0.1,1.3,0.9,1.2,1.6c-0.1,0.8-0.9,1.3-1.6,1.2
			C117.7,514.7,117.2,514,117.3,513.2z"/>
		<path d="M118,515.5c0.2,0,0.4,0.1,0.4,0.1s0.2,0,0.4,0.1c0.2,0,0.2-0.1,0.2-0.1l0.1-0.7l-0.6-0.1l-0.6-0.1l-0.1,0.7
			C117.9,515.4,117.9,515.5,118,515.5z"/>
		<path class="st7" d="M101.7,507.5c0.3-0.8,1.1-1.1,1.9-0.8c0.8,0.3,1.1,1.1,0.8,1.9s-1.1,1.1-1.9,0.8
			C101.8,509,101.4,508.2,101.7,507.5z"/>
		<path class="st9" d="M102,509.8c0.2,0.1,0.4,0.1,0.4,0.1s0.2,0.1,0.4,0.1c0.2,0.1,0.2,0,0.2,0l0.2-0.7l-0.5-0.2l-0.5-0.2l-0.2,0.7
			C101.8,509.7,101.8,509.8,102,509.8z"/>
		<ellipse class="st7" cx="137.5" cy="509.1" rx="1.4" ry="1.4"/>
		<path d="M137.8,511.2c0.2,0,0.4-0.1,0.4-0.1s0.2-0.1,0.4-0.1c0.2,0,0.2-0.2,0.2-0.2l-0.2-0.7l-0.5,0.2l-0.5,0.2l0.2,0.7
			C137.6,511.1,137.6,511.2,137.8,511.2z"/>
	</g>
	<g>
		<path d="M98.3,493.3c-2.6-0.9-5.3-1.8-8.1-2.1c-3.6-0.3-6.9,0.9-10.2,2.2c-3.4,1.3-7,2.2-10.6,2.2c-1.9,0-3.9-0.2-5.7-0.6
			c-1.8-0.4-3.5-1.1-5.3-1.7c-3.4-1.1-7-1.6-10.5-1.2c-3.7,0.5-6.9,2.3-10.4,3.4c-3.7,1.2-7.4,1.2-11.1,0.3c-3.8-1-7.2-3.1-10.9-4.5
			c-1.1-0.4-2.2-0.7-3.4-0.9v0.4c1.3,0.2,2.6,0.6,3.8,1.1c3.2,1.2,6.2,3,9.5,4c3.3,1,6.8,1.3,10.3,0.5c3.6-0.8,6.8-2.7,10.3-3.6
			c3.9-1,8.1-0.5,11.9,0.7c3.4,1.1,6.7,2.3,10.3,2.5c3.5,0.1,7.1-0.5,10.4-1.7c3.5-1.2,6.8-2.8,10.6-2.7c3.1,0.1,6.1,1.1,9.1,2.2
			L98.3,493.3L98.3,493.3z"/>
		<path class="st6" d="M20.8,496.1c-0.3,0.7-1.1,0.9-1.8,0.6c-0.7-0.3-0.9-1.1-0.6-1.8c0.3-0.7,1.1-0.9,1.8-0.6
			C20.8,494.7,21.1,495.5,20.8,496.1z"/>
		<path d="M20.7,494c-0.1-0.1-0.3-0.1-0.3-0.1s-0.2-0.1-0.3-0.1c-0.1-0.1-0.2,0-0.2,0l-0.3,0.6l0.5,0.2l0.5,0.2l0.3-0.6
			C20.8,494.1,20.8,494,20.7,494z"/>
		<path class="st6" d="M41.5,496.4c0.3,0.7-0.1,1.4-0.8,1.7c-0.7,0.3-1.4-0.1-1.7-0.8s0.1-1.4,0.8-1.7
			C40.5,495.3,41.2,495.7,41.5,496.4z"/>
		<path d="M39.9,494.9c-0.1,0.1-0.3,0.1-0.3,0.1s-0.2,0.1-0.3,0.1c-0.1,0.1-0.1,0.1-0.1,0.1l0.2,0.6l0.5-0.2l0.5-0.2l-0.2-0.6
			C40.1,494.9,40,494.8,39.9,494.9z"/>
		<path class="st6" d="M76.7,496.7c0.1,0.7-0.3,1.4-1.1,1.6c-0.7,0.1-1.4-0.3-1.6-1.1c-0.1-0.7,0.3-1.4,1.1-1.6
			C75.9,495.6,76.6,496,76.7,496.7z"/>
		<path d="M75.4,495c-0.1,0-0.3,0.1-0.3,0.1s-0.2,0-0.3,0.1s-0.2,0.1-0.2,0.1l0.1,0.6l0.5-0.1l0.5-0.1l-0.1-0.6
			C75.6,495.1,75.6,495,75.4,495z"/>
		<path class="st6" d="M57.4,495.2c-0.2,0.7-0.9,1.1-1.6,0.9c-0.7-0.2-1.1-0.9-0.9-1.6c0.2-0.7,0.9-1.1,1.6-0.9
			C57.2,493.7,57.6,494.5,57.4,495.2z"/>
		<path d="M57,493c-0.1,0-0.3-0.1-0.3-0.1s-0.2-0.1-0.3-0.1c-0.1,0-0.2,0-0.2,0l-0.2,0.6l0.5,0.2l0.5,0.2l0.2-0.6
			C57.2,493.1,57.1,493.1,57,493z"/>
		<ellipse class="st6" cx="89.7" cy="493.6" rx="1.3" ry="1.3"/>
		<path d="M90.2,491.6c-0.1,0-0.3,0-0.3,0s-0.2,0-0.3,0c-0.1,0-0.2,0.1-0.2,0.1l0,0.6l0.5,0l0.5,0l0-0.6
			C90.3,491.7,90.3,491.6,90.2,491.6z"/>
		<circle class="st7" cx="81.9" cy="490.8" r="1.3"/>
		<path d="M82.2,492.8c0.1-0.1,0.3-0.1,0.3-0.1s0.2-0.1,0.3-0.1c0.1-0.1,0.1-0.1,0.1-0.1l-0.2-0.6l-0.5,0.2l-0.5,0.2l0.2,0.6
			C82,492.8,82,492.8,82.2,492.8z"/>
		<ellipse class="st8" cx="66.7" cy="493.7" rx="1.3" ry="1.3"/>
		<path d="M66.1,495.6c0.1,0,0.3,0.1,0.3,0.1s0.2,0,0.3,0.1s0.2-0.1,0.2-0.1l0.1-0.6l-0.5-0.1l-0.5-0.1l-0.1,0.6
			C66,495.5,66,495.6,66.1,495.6z"/>
		<path class="st8" d="M95.1,490.4c0.2-0.7,1-1.1,1.7-0.8c0.7,0.2,1.1,1,0.8,1.7c-0.2,0.7-1,1.1-1.7,0.8
			C95.3,491.9,94.9,491.1,95.1,490.4z"/>
		<path d="M95.4,492.6c0.1,0.1,0.3,0.1,0.3,0.1s0.2,0.1,0.3,0.1c0.1,0.1,0.2,0,0.2,0l0.2-0.6L96,492l-0.5-0.2l-0.2,0.6
			C95.3,492.5,95.3,492.5,95.4,492.6z"/>
		<path class="st8" d="M28.7,494.4c0.1-0.7,0.8-1.2,1.5-1.1c0.7,0.1,1.2,0.8,1.1,1.5c-0.1,0.7-0.8,1.2-1.5,1.1
			C29,495.7,28.6,495.1,28.7,494.4z"/>
		<path d="M29.3,496.4c0.1,0,0.3,0.1,0.3,0.1s0.2,0,0.3,0.1c0.1,0,0.2-0.1,0.2-0.1l0.1-0.6l-0.5-0.1l-0.5-0.1l-0.1,0.6
			C29.2,496.3,29.2,496.4,29.3,496.4z"/>
		<path class="st7" d="M14.3,489.1c0.3-0.7,1-1,1.7-0.8c0.7,0.3,1,1,0.8,1.7s-1,1-1.7,0.8C14.4,490.5,14.1,489.7,14.3,489.1z"/>
		<path class="st9" d="M14.5,491.2c0.1,0.1,0.3,0.1,0.3,0.1s0.2,0.1,0.3,0.1c0.1,0.1,0.2,0,0.2,0l0.2-0.6l-0.5-0.2l-0.5-0.2
			l-0.2,0.6C14.4,491.1,14.4,491.2,14.5,491.2z"/>
		<ellipse class="st7" cx="47.2" cy="490.5" rx="1.3" ry="1.3"/>
		<path d="M47.5,492.5c0.1,0,0.3-0.1,0.3-0.1s0.2-0.1,0.3-0.1c0.1,0,0.1-0.1,0.1-0.1l-0.2-0.6l-0.5,0.2l-0.5,0.2l0.2,0.6
			C47.3,492.4,47.3,492.5,47.5,492.5z"/>
	</g>
	<g>
		<path d="M353.7,289.5c-0.7,0.2-1.3,0.4-1.9,0.8c-0.7,0.5-1.2,1.2-1.6,1.9c-0.9,1.5-1.8,3.2-3.7,3.4c-1,0.1-2.2,0-3.1-0.6
			c-0.2-0.2-0.4-0.4-0.6-0.6c0,0,0.1,0,0.1,0c1.8-0.3,3.8-1.8,3.6-3.9c-0.1-0.8-0.5-1.5-1.2-1.9c-0.8-0.4-1.7-0.2-2.4,0.4
			c-1.6,1.2-1.4,3.7-0.4,5.3c0,0,0,0,0,0c-2.4,0.2-4.3-1.1-5.9-2.7c-1.5-1.6-2.8-3.5-5-4.1c-2.1-0.6-4.3,0.1-6,1.3
			c-0.4,0.3-0.9,0.6-1.3,1c-1.2-0.3-2.5-0.3-3.7,0.1c-2.3,0.7-3.5,2.7-5.2,4.2c-1,0.9-2.2,1.6-3.6,1.6c-1.3,0-2.5-0.6-3.4-1.5
			c-0.5-0.5-0.9-1.1-1.2-1.8c1.1,0.1,2.2,0,3.3-0.5c1.6-0.7,3.2-2.6,1.7-4.2c-1.4-1.5-3.7-1.5-4.9,0.2c-1,1.3-1,2.8-0.4,4.2
			c-0.4-0.1-0.7-0.1-1-0.2c-1.1-0.3-1.9-0.9-2.8-1.6v0.3c0.1,0.1,0.3,0.2,0.4,0.4c1,0.7,2.2,1.2,3.4,1.4c0.2,0.5,0.5,1,0.8,1.4
			c1.4,1.8,3.6,2.7,5.8,1.7c2.4-1,3.6-3.5,5.7-4.8c1.5-0.9,3.1-1.1,4.8-0.8c-1.1,1.2-1.9,2.7-1.7,4.4c0.2,2.1,2.1,4.3,4.4,3.6
			c1.8-0.5,3.5-2.3,3-4.3c-0.4-1.7-2.1-2.7-3.6-3.3c-0.5-0.2-1.1-0.4-1.6-0.5c0.1-0.1,0.3-0.3,0.4-0.4c1.8-1.5,4.6-2.6,6.9-1.7
			c2.3,0.9,3.6,3.2,5.3,4.8c1.4,1.3,3.4,2.1,5.3,1.9c0,0,0,0.1,0.1,0.1c1.1,1.4,3.5,1.6,5,1c1.6-0.7,2.2-2.5,3.1-3.8
			c0.5-0.8,1.2-1.5,2.1-1.8c0.3-0.1,0.6-0.2,0.9-0.3L353.7,289.5L353.7,289.5z M307.7,287.8c0.8-0.7,1.9-1,2.9-0.6
			c1.2,0.5,2.2,1.6,1.7,2.9c-0.9,1.9-3.3,2.4-5.3,2.2C306.4,290.7,306.4,289,307.7,287.8z M329.6,294.5c0,1.3-1,2.4-2.1,3
			c-1.4,0.7-2.8,0.5-3.9-0.7c-1-1.1-1.3-2.7-0.9-4.1c0.3-1,0.9-1.8,1.6-2.6c0.5,0.1,0.9,0.2,1.3,0.4
			C327.3,291.1,329.6,292.4,329.6,294.5z M341.9,292.5c-0.3-1.4,0.1-2.9,1.5-3.5c1-0.5,2.1-0.1,2.6,0.9c0.5,1.1,0.2,2.3-0.6,3.2
			c-0.7,0.8-1.7,1.2-2.7,1.3C342.2,293.8,342,293.1,341.9,292.5z"/>
		<path class="st7" d="M318.7,292.3c0.3,0.2,0.3,0.6,0.1,0.9c-0.2,0.3-0.6,0.3-0.9,0.1s-0.3-0.6-0.1-0.9
			C318,292.1,318.4,292.1,318.7,292.3z"/>
		<path d="M317.7,292.1c0,0.1-0.1,0.1-0.1,0.1s-0.1,0.1-0.1,0.1c0,0.1,0,0.1,0,0.1l0.2,0.2l0.2-0.2l0.2-0.2L317.7,292.1
			C317.8,292.1,317.7,292,317.7,292.1z"/>
		<path class="st6" d="M329,288.3c0.1,0.3-0.1,0.6-0.4,0.7c-0.3,0.1-0.6-0.1-0.7-0.4c-0.1-0.3,0.1-0.6,0.4-0.7
			C328.6,287.8,329,288,329,288.3z"/>
		<path d="M328.4,287.5c-0.1,0-0.2,0-0.2,0s-0.1,0-0.2,0s-0.1,0.1-0.1,0.1l0.1,0.3l0.2-0.1l0.2-0.1L328.4,287.5
			C328.5,287.6,328.4,287.5,328.4,287.5z"/>
		<path class="st7" d="M332.9,289.4c-0.2,0.3-0.6,0.3-0.9,0.1s-0.3-0.6-0.1-0.9s0.6-0.3,0.9-0.1S333.1,289.1,332.9,289.4z"/>
		<path d="M333.1,288.4c-0.1,0-0.1-0.1-0.1-0.1s-0.1-0.1-0.1-0.1s-0.1,0-0.1,0l-0.2,0.2l0.2,0.2l0.2,0.2L333.1,288.4
			C333.1,288.5,333.1,288.4,333.1,288.4z"/>
		<path class="st6" d="M336.4,290.4c0.3-0.2,0.6-0.2,0.9,0.1c0.2,0.3,0.2,0.6-0.1,0.9c-0.3,0.2-0.6,0.2-0.9-0.1
			C336.1,290.9,336.1,290.6,336.4,290.4z"/>
		<path d="M336,291.3c0,0.1,0.1,0.1,0.1,0.1s0.1,0.1,0.1,0.1c0,0.1,0.1,0,0.1,0l0.2-0.2l-0.1-0.2l-0.1-0.2L336,291.3
			C336,291.2,335.9,291.2,336,291.3z"/>
		<path class="st7" d="M339.4,295c-0.2,0.3-0.6,0.4-0.8,0.2c-0.3-0.2-0.4-0.6-0.2-0.8c0.2-0.3,0.6-0.4,0.8-0.2
			C339.5,294.4,339.6,294.7,339.4,295z"/>
		<path d="M339.5,294c-0.1,0-0.1-0.1-0.1-0.1s-0.1-0.1-0.1-0.1c-0.1,0-0.1,0-0.1,0l-0.2,0.2l0.2,0.1l0.2,0.1L339.5,294
			C339.6,294.1,339.6,294.1,339.5,294z"/>
		<path class="st6" d="M344.7,292.5c-0.3-0.2-0.3-0.6-0.1-0.9c0.2-0.3,0.6-0.3,0.9-0.1s0.3,0.6,0.1,0.9
			C345.3,292.7,344.9,292.7,344.7,292.5z"/>
		<path d="M345.6,292.7c0-0.1,0.1-0.1,0.1-0.1s0.1-0.1,0.1-0.1s0-0.1,0-0.1l-0.2-0.2l-0.2,0.2l-0.2,0.2L345.6,292.7
			C345.6,292.7,345.6,292.7,345.6,292.7z"/>
		<path class="st7" d="M347.7,294.3c-0.2-0.3-0.1-0.6,0.1-0.8s0.6-0.1,0.8,0.1c0.2,0.3,0.1,0.6-0.1,0.8S347.9,294.6,347.7,294.3z"/>
		<path d="M348.5,294.8c0.1,0,0.1-0.1,0.1-0.1s0.1-0.1,0.1-0.1c0.1,0,0-0.1,0-0.1l-0.2-0.2l-0.2,0.1l-0.2,0.1L348.5,294.8
			C348.5,294.8,348.5,294.8,348.5,294.8z"/>
		<path class="st6" d="M351.9,291.6c0.3,0.2,0.3,0.6,0.2,0.8c-0.2,0.3-0.6,0.3-0.8,0.2c-0.3-0.2-0.3-0.6-0.2-0.8
			C351.3,291.5,351.7,291.5,351.9,291.6z"/>
		<path d="M351,291.5c0,0.1-0.1,0.1-0.1,0.1s-0.1,0.1-0.1,0.1c0,0.1,0,0.1,0,0.1l0.2,0.2l0.1-0.2l0.1-0.2L351,291.5
			C351,291.5,351,291.5,351,291.5z"/>
		<path class="st7" d="M341.2,289.8c-0.3-0.2-0.3-0.6-0.1-0.9c0.2-0.3,0.6-0.3,0.9-0.1c0.3,0.2,0.3,0.6,0.1,0.9
			C341.8,290,341.4,290.1,341.2,289.8z"/>
		<path d="M342.1,290.1c0-0.1,0.1-0.1,0.1-0.1s0.1-0.1,0.1-0.1c0-0.1,0-0.1,0-0.1l-0.2-0.2l-0.2,0.2l-0.2,0.2L342.1,290.1
			C342,290.1,342.1,290.1,342.1,290.1z"/>
		<path class="st6" d="M345,296.9c-0.1,0.3-0.5,0.5-0.8,0.3s-0.5-0.5-0.3-0.8s0.5-0.5,0.8-0.3C345,296.2,345.1,296.6,345,296.9z"/>
		<path d="M344.9,295.9c-0.1,0-0.2-0.1-0.2-0.1s-0.1,0-0.2-0.1c-0.1,0-0.1,0-0.1,0l-0.1,0.3l0.2,0.1l0.2,0.1L344.9,295.9
			C345,295.9,345,295.9,344.9,295.9z"/>
		<path class="st6" d="M320.4,289.2c-0.1-0.3,0.2-0.6,0.5-0.7c0.3-0.1,0.6,0.2,0.7,0.5c0.1,0.3-0.2,0.6-0.5,0.7
			C320.8,289.7,320.5,289.5,320.4,289.2z"/>
		<path d="M321,290c0.1,0,0.2,0,0.2,0s0.1,0,0.2,0c0.1,0,0.1-0.1,0.1-0.1l-0.1-0.3l-0.2,0l-0.2,0L321,290
			C320.9,289.9,321,290,321,290z"/>
		<path class="st6" d="M315.1,295.6c0.2,0.3,0.1,0.6-0.1,0.8s-0.6,0.1-0.8-0.1c-0.2-0.3-0.1-0.6,0.1-0.8S314.9,295.4,315.1,295.6z"
			/>
		<path d="M314.2,295.2c-0.1,0-0.1,0.1-0.1,0.1s-0.1,0.1-0.1,0.1c-0.1,0,0,0.1,0,0.1l0.2,0.2l0.2-0.1l0.2-0.1L314.2,295.2
			C314.3,295.2,314.3,295.1,314.2,295.2z"/>
		<path class="st7" d="M309.2,296.3c-0.2,0.3-0.6,0.3-0.8,0.2c-0.3-0.2-0.3-0.6-0.2-0.8s0.6-0.3,0.8-0.2
			C309.3,295.6,309.4,296,309.2,296.3z"/>
		<path d="M309.3,295.3c-0.1,0-0.1-0.1-0.1-0.1s-0.1-0.1-0.1-0.1c-0.1,0-0.1,0-0.1,0l-0.2,0.2l0.2,0.1l0.2,0.1L309.3,295.3
			C309.4,295.3,309.4,295.3,309.3,295.3z"/>
		<path class="st6" d="M311.2,292.7c0.1,0.3,0,0.7-0.3,0.8c-0.3,0.1-0.7,0-0.8-0.3c-0.1-0.3,0-0.7,0.3-0.8
			C310.7,292.3,311,292.4,311.2,292.7z"/>
		<path d="M310.4,292.1c-0.1,0-0.1,0.1-0.1,0.1s-0.1,0-0.1,0.1c-0.1,0-0.1,0.1-0.1,0.1l0.1,0.3l0.2-0.1l0.2-0.1L310.4,292.1
			C310.5,292.1,310.4,292.1,310.4,292.1z"/>
		<path class="st7" d="M311.3,288.5c-0.2,0.3-0.6,0.3-0.8,0.1c-0.3-0.2-0.3-0.6-0.1-0.8s0.6-0.3,0.8-0.1S311.5,288.2,311.3,288.5z"
			/>
		<path d="M311.4,287.5c-0.1,0-0.1-0.1-0.1-0.1s-0.1-0.1-0.1-0.1s-0.1,0-0.1,0l-0.2,0.2l0.2,0.1l0.2,0.1L311.4,287.5
			C311.5,287.6,311.5,287.5,311.4,287.5z"/>
		<path class="st6" d="M305.8,289.2c-0.3-0.1-0.5-0.5-0.3-0.8c0.1-0.3,0.5-0.5,0.8-0.3c0.3,0.1,0.5,0.5,0.3,0.8
			C306.4,289.2,306.1,289.3,305.8,289.2z"/>
		<path d="M306.8,289.1c0-0.1,0.1-0.1,0.1-0.1s0-0.1,0.1-0.1c0-0.1,0-0.1,0-0.1l-0.3-0.1l-0.1,0.2l-0.1,0.2L306.8,289.1
			C306.7,289.2,306.7,289.2,306.8,289.1z"/>
		<ellipse class="st7" cx="305" cy="292.8" rx="0.6" ry="0.6"/>
		<path d="M305.6,292.1c-0.1,0-0.1-0.1-0.1-0.1s-0.1,0-0.1-0.1c-0.1,0-0.1,0-0.1,0l-0.1,0.3l0.2,0.1l0.2,0.1L305.6,292.1
			C305.6,292.2,305.6,292.1,305.6,292.1z"/>
		<path class="st7" d="M326.9,292.1c-0.2,0.3-0.5,0.4-0.8,0.2c-0.3-0.2-0.4-0.5-0.2-0.8c0.2-0.3,0.5-0.4,0.8-0.2
			C326.9,291.4,327,291.8,326.9,292.1z"/>
		<path d="M326.9,291.1c-0.1,0-0.1-0.1-0.1-0.1s-0.1-0.1-0.1-0.1c-0.1,0-0.1,0-0.1,0l-0.2,0.3l0.2,0.1l0.2,0.1L326.9,291.1
			C327,291.2,327,291.1,326.9,291.1z"/>
		<path class="st7" d="M323.3,293.8c0.3,0,0.6,0.2,0.7,0.5c0,0.3-0.2,0.6-0.5,0.7c-0.3,0-0.6-0.2-0.7-0.5
			C322.7,294.1,322.9,293.8,323.3,293.8z"/>
		<path d="M322.4,294.3c0,0.1,0,0.2,0,0.2s0,0.1,0,0.2c0,0.1,0,0.1,0,0.1l0.3,0l0-0.2l0-0.2L322.4,294.3
			C322.4,294.2,322.4,294.3,322.4,294.3z"/>
		<ellipse class="st6" cx="327.5" cy="296.4" rx="0.6" ry="0.6"/>
		<path d="M327.8,297.3c0.1,0,0.1-0.1,0.1-0.1s0.1-0.1,0.1-0.1c0.1,0,0.1-0.1,0.1-0.1l-0.1-0.3l-0.2,0.1l-0.2,0.1L327.8,297.3
			C327.7,297.3,327.8,297.3,327.8,297.3z"/>
	</g>
	<linearGradient id="SVGID_1_" gradientUnits="userSpaceOnUse" x1="204.4382" y1="534.4034" x2="315.3195" y2="534.4034">
		<stop  offset="2.306561e-07" style="stop-color:#C2E6F8"/>
		<stop  offset="0.2091" style="stop-color:#E9D7D8"/>
		<stop  offset="0.5291" style="stop-color:#D1CDE0"/>
		<stop  offset="0.804" style="stop-color:#C1C7E4"/>
		<stop  offset="1" style="stop-color:#BBC5E6"/>
	</linearGradient>
	<path class="st10" d="M204.7,529.9c-1.4-9.1,3-20.1,10.9-24.2c11.2-5.8,19.9,7.1,42.9,10.9c29.1,4.8,45.2-11,53.4-2.4
		c6.9,7.2,2.6,25.6-6.8,36.4c-19.8,22.9-63.3,13.9-85.8-1.7C206.8,540.2,205.1,532.4,204.7,529.9z"/>
	
		<linearGradient id="SVGID_00000094619284752119546790000007513479347787135635_" gradientUnits="userSpaceOnUse" x1="150.1687" y1="533.0677" x2="218.2254" y2="533.0677">
		<stop  offset="2.306561e-07" style="stop-color:#C2E6F8"/>
		<stop  offset="0.2091" style="stop-color:#E9D7D8"/>
		<stop  offset="0.5291" style="stop-color:#D1CDE0"/>
		<stop  offset="0.804" style="stop-color:#C1C7E4"/>
		<stop  offset="1" style="stop-color:#BBC5E6"/>
	</linearGradient>
	<path style="fill:url(#SVGID_00000094619284752119546790000007513479347787135635_);" d="M150.2,540.1c-1.1-3.6,12.3-11.7,24.5-16
		c8.9-3.1,26-9.2,36.8-0.7c3.7,2.9,7.8,8.5,6.5,13.3c-1.9,7.1-14.8,9-21.1,9.9c-12,1.7-12.5-2-39.1-4.4
		C153.6,541.8,150.7,541.6,150.2,540.1z"/>
	
		<linearGradient id="SVGID_00000115484562655069341620000000364766348167542692_" gradientUnits="userSpaceOnUse" x1="390.8181" y1="532.3782" x2="473.8181" y2="532.3782">
		<stop  offset="2.306561e-07" style="stop-color:#C2E6F8"/>
		<stop  offset="0.2091" style="stop-color:#E9D7D8"/>
		<stop  offset="0.5291" style="stop-color:#D1CDE0"/>
		<stop  offset="0.804" style="stop-color:#C1C7E4"/>
		<stop  offset="1" style="stop-color:#BBC5E6"/>
	</linearGradient>
	<path style="fill:url(#SVGID_00000115484562655069341620000000364766348167542692_);" d="M390.9,530.7c1.3-8.5,14.3-12.5,23.1-15.3
		c15.4-4.8,28.2-2.8,32.2-2c2.4,0.5,27.1,5.3,27.6,14.3c0.3,6.5-11.9,11.8-20.5,15.6c-9.8,4.3-36.2,15.9-53.1,3.5
		C399.4,546.1,389.7,538.7,390.9,530.7z"/>
	
		<linearGradient id="SVGID_00000010302631293318272450000001335186815944823199_" gradientUnits="userSpaceOnUse" x1="362.9485" y1="526.5718" x2="411.5153" y2="526.5718">
		<stop  offset="2.306561e-07" style="stop-color:#C2E6F8"/>
		<stop  offset="0.2091" style="stop-color:#E9D7D8"/>
		<stop  offset="0.5291" style="stop-color:#D1CDE0"/>
		<stop  offset="0.804" style="stop-color:#C1C7E4"/>
		<stop  offset="1" style="stop-color:#BBC5E6"/>
	</linearGradient>
	<path style="fill:url(#SVGID_00000010302631293318272450000001335186815944823199_);" d="M365,527.4c0.4-1,3.5-9.2,11.2-13.5
		c14-7.6,35,2.2,35.2,9.2c0.1,3.6-5.1,6.3-12.8,10.2c-10.1,5.2-29.9,12.6-34.7,6.1C361.7,536.4,363.6,531.2,365,527.4z"/>
	
		<linearGradient id="SVGID_00000084515621506412168510000002134653064629476240_" gradientUnits="userSpaceOnUse" x1="3.9287" y1="535.7225" x2="65.392" y2="535.7225">
		<stop  offset="2.306561e-07" style="stop-color:#C2E6F8"/>
		<stop  offset="0.2091" style="stop-color:#E9D7D8"/>
		<stop  offset="0.5291" style="stop-color:#D1CDE0"/>
		<stop  offset="0.804" style="stop-color:#C1C7E4"/>
		<stop  offset="1" style="stop-color:#BBC5E6"/>
	</linearGradient>
	<path style="fill:url(#SVGID_00000084515621506412168510000002134653064629476240_);" d="M9.1,525.2c5-4.4,12.1-3.1,19.9-1.5
		c18.4,3.7,37.8,14.9,36.3,20.4c-0.4,1.3-2,2.2-24.6,4c-28,2.2-31.7,1.3-34.1-1.7C2.2,541,3.4,530.2,9.1,525.2z"/>
</g>
</svg>
