<?xml version="1.0" encoding="utf-8"?>
<!-- Generator: Adobe Illustrator 27.9.0, SVG Export Plug-In . SVG Version: 6.00 Build 0)  -->
<svg version="1.1" id="Слой_1" xmlns="http://www.w3.org/2000/svg" xmlns:xlink="http://www.w3.org/1999/xlink" x="0px" y="0px"
	 viewBox="0 0 230 160" style="enable-background:new 0 0 230 160;" xml:space="preserve">
<style type="text/css">
	.st0{fill:#020203;}
	.st1{fill:#BCE4FA;}
	.st2{fill:#FFFFFF;}
</style>
<g>
	<path class="st0" d="M9.65,125.99c1.02-0.72,2.15-1.28,3.33-1.7c0.05-0.24,0.1-0.49,0.14-0.73c0.55-3.02-0.03-6.11-0.26-9.18
		c-0.23-3.06-0.05-6.36,1.75-8.84c0.81-1.12,1.92-1.93,3.16-2.5c-0.06-1.2-0.07-2.39-0.01-3.58c0.32-5.93,1.99-11.69,3.64-17.39
		c2.29-7.88,4.57-15.75,6.86-23.63c-0.94-1-1.77-2.09-2.34-3.33c-1.53-3.35-0.95-7.31,0.42-10.72c1.37-3.41,3.48-6.48,5.08-9.79
		c0.29-0.59,0.55-1.21,0.81-1.82c-1.59-5.86-3.15-31.3-0.62-32.16c3.03-1.02,12.8,4.52,19.03,9.49c3.08-0.72,6.35-0.94,9.51-1.01
		C67.88,8.94,76,9.63,82.54,13.62c4.54-2.67,9.49-5.21,10.8-5.56c1.37-0.36,6.39-2.49,6.8,1.02c0.42,3.61-0.77,27.09-2.27,33.53
		c0.02,0.12,0.04,0.23,0.06,0.35c15.54,1,38.55-6.99,68.34,2.1c44.36,13.54,56.84,39.78,57.65,48.58c0.81,8.8-2.02,16.33-8.91,22.82
		c-6.89,6.49-21.47,8.31-30.22,12.8c-8.75,4.49-17.67,8.95-24.94,15.12c-3.47,2.95-6.56,6.28-10.45,8.81
		c-6.18,4.01-13.99,5.69-21.68,6.23c-3.64,0.25-7.95-0.01-9.94-2.67c-1.98-2.65-0.5-6.2,1.41-8.89
		c8.16-11.53,22.77-18.32,37.19-23.44c0.36-0.13,0.72-0.25,1.08-0.37c-9.09,0.21-18.23,0.21-27.21,0.76
		c-16.36,1-32.91,3.89-49.28,5.06c-2.32,0.89-4.72,1.58-7.07,2.38c-4.07,1.38-8.01,3.18-12.2,4.12c-0.32,0.07-0.65,0.13-0.98,0.19
		c-0.4,0.42-0.87,0.79-1.39,1.05c-1.19,0.61-2.54,0.81-3.87,0.95c-6.13,0.66-12.38,0.25-18.37-1.21c-1.36-0.33-3.12-5.93-1.73-7.92
		c0.79-1.13,1.75-2.14,2.83-3.01c-1.13-0.35-2.26-0.72-3.38-1.14c-0.59,2.58-1.76,5.08-3.84,6.65c0.21,0.67,0.28,1.36,0.06,2.03
		c-0.49,1.53-2.2,2.27-3.75,2.72c-4.56,1.31-9.39,1.68-14.1,1.09c-2.73-0.34-5.78-1.3-6.87-3.83
		C5.08,131.07,7.11,127.78,9.65,125.99z"/>
	<g>
		<path class="st1" d="M69.01,45.17c0,0,0.55-4.17,5.93-4.39c5.38-0.22,5.71,3.03,5.71,3.03s-1.1,4.73-5.05,4.91
			C71.65,48.91,69.89,46.71,69.01,45.17z"/>
		<path class="st0" d="M70.4,42.59c0.87-0.9,2.25-1.72,4.54-1.81c1.33-0.05,2.34,0.11,3.13,0.37c0.22,0.5,0.35,1.04,0.35,1.61
			c0,2.24-1.8,4.06-4.02,4.06c-2.22,0-4.02-1.82-4.02-4.06C70.39,42.71,70.39,42.65,70.4,42.59z"/>
		<path class="st2" d="M74.12,43.55c0,0.57,0.43,1.03,0.97,1.03s0.97-0.46,0.97-1.03c0-0.57-0.43-1.03-0.97-1.03
			S74.12,42.99,74.12,43.55z"/>
	</g>
	<g>
		<path class="st1" d="M53.5,43.64c0,0-0.55-4.17-5.93-4.39c-5.38-0.22-5.71,3.03-5.71,3.03s1.1,4.73,5.05,4.91
			C50.86,47.37,52.62,45.18,53.5,43.64z"/>
		<path class="st0" d="M51.56,40.56c0.05,0.26,0.1,0.52,0.1,0.79c0,2.21-1.78,4.01-3.97,4.01s-3.97-1.8-3.97-4.01
			c0-0.55,0.13-1.07,0.33-1.55c0.83-0.37,1.94-0.62,3.53-0.56C49.42,39.33,50.67,39.88,51.56,40.56z"/>
		<path class="st2" d="M47.39,42.19c0,0.57,0.43,1.03,0.97,1.03c0.53,0,0.97-0.46,0.97-1.03c0-0.57-0.43-1.03-0.97-1.03
			C47.83,41.16,47.39,41.62,47.39,42.19z"/>
	</g>
</g>
</svg>
