<?xml version="1.0" encoding="utf-8"?>
<!-- Generator: Adobe Illustrator 27.9.0, SVG Export Plug-In . SVG Version: 6.00 Build 0)  -->
<svg version="1.1" id="Слой_1" xmlns="http://www.w3.org/2000/svg" xmlns:xlink="http://www.w3.org/1999/xlink" x="0px" y="0px"
	 viewBox="0 0 230 160" style="enable-background:new 0 0 230 160;" xml:space="preserve">
<style type="text/css">
	
		.st0{clip-path:url(#SVGID_00000178169460860275743930000010851263603478998948_);fill:url(#SVGID_00000039132070365129499770000005018549021531998868_);}
	.st1{clip-path:url(#SVGID_00000178169460860275743930000010851263603478998948_);}
	.st2{fill:#020203;}
	.st3{fill:#BCE4FA;}
	.st4{fill:#FFFFFF;}
</style>
<g>
	<defs>
		<rect id="SVGID_1_" y="0.5" width="230" height="159.5"/>
	</defs>
	<clipPath id="SVGID_00000060032519899618233600000012310766840032756617_">
		<use xlink:href="#SVGID_1_"  style="overflow:visible;"/>
	</clipPath>
	
		<radialGradient id="SVGID_00000037674939498242562160000014200063021886079140_" cx="115" cy="120.4801" r="137.6823" fx="122.1618" fy="123.9492" gradientTransform="matrix(0.9998 -2.103874e-02 4.327712e-03 0.2057 -0.4959 98.1221)" gradientUnits="userSpaceOnUse">
		<stop  offset="0" style="stop-color:#1D1D1B"/>
		<stop  offset="0.1168" style="stop-color:#222220;stop-opacity:0.8832"/>
		<stop  offset="0.2485" style="stop-color:#2F2F2D;stop-opacity:0.7515"/>
		<stop  offset="0.3876" style="stop-color:#464644;stop-opacity:0.6124"/>
		<stop  offset="0.5317" style="stop-color:#656564;stop-opacity:0.4683"/>
		<stop  offset="0.6799" style="stop-color:#8D8D8C;stop-opacity:0.3201"/>
		<stop  offset="0.8313" style="stop-color:#BFBFBE;stop-opacity:0.1687"/>
		<stop  offset="0.9827" style="stop-color:#F8F8F8;stop-opacity:1.725751e-02"/>
		<stop  offset="1" style="stop-color:#FFFFFF;stop-opacity:0"/>
	</radialGradient>
	
		<ellipse style="clip-path:url(#SVGID_00000060032519899618233600000012310766840032756617_);fill:url(#SVGID_00000037674939498242562160000014200063021886079140_);" cx="115" cy="120.5" rx="127.3" ry="32.7"/>
	<g style="clip-path:url(#SVGID_00000060032519899618233600000012310766840032756617_);">
		<path class="st2" d="M9.6,126c1-0.7,2.1-1.3,3.3-1.7c0.1-0.2,0.1-0.5,0.1-0.7c0.6-3,0-6.1-0.3-9.2c-0.2-3.1-0.1-6.4,1.8-8.8
			c0.8-1.1,1.9-1.9,3.2-2.5c-0.1-1.2-0.1-2.4,0-3.6c0.3-5.9,2-11.7,3.6-17.4c2.3-7.9,4.6-15.8,6.9-23.6c-0.9-1-1.8-2.1-2.3-3.3
			c-1.5-3.3-1-7.3,0.4-10.7s3.5-6.5,5.1-9.8c0.3-0.6,0.5-1.2,0.8-1.8c-1.6-5.9-3.1-31.3-0.6-32.2c3-1,12.8,4.5,19,9.5
			c3.1-0.7,6.3-0.9,9.5-1c7.7-0.2,15.8,0.5,22.4,4.5c4.5-2.7,9.5-5.2,10.8-5.6c1.4-0.4,6.4-2.5,6.8,1c0.4,3.6-0.8,27.1-2.3,33.5
			c0,0.1,0,0.2,0.1,0.3c15.5,1,38.6-7,68.3,2.1c44.4,13.5,56.8,39.8,57.7,48.6c0.8,8.8-2,16.3-8.9,22.8s-21.5,8.3-30.2,12.8
			c-8.8,4.5-17.7,8.9-24.9,15.1c-3.5,2.9-6.6,6.3-10.4,8.8c-6.2,4-14,5.7-21.7,6.2c-3.6,0.2-7.9,0-9.9-2.7c-2-2.6-0.5-6.2,1.4-8.9
			c8.2-11.5,22.8-18.3,37.2-23.4c0.4-0.1,0.7-0.2,1.1-0.4c-9.1,0.2-18.2,0.2-27.2,0.8c-16.4,1-32.9,3.9-49.3,5.1
			c-2.3,0.9-4.7,1.6-7.1,2.4c-4.1,1.4-8,3.2-12.2,4.1c-0.3,0.1-0.7,0.1-1,0.2c-0.4,0.4-0.9,0.8-1.4,1.1c-1.2,0.6-2.5,0.8-3.9,0.9
			c-6.1,0.7-12.4,0.2-18.4-1.2c-1.4-0.3-3.1-5.9-1.7-7.9c0.8-1.1,1.8-2.1,2.8-3c-1.1-0.3-2.3-0.7-3.4-1.1c-0.6,2.6-1.8,5.1-3.8,6.7
			c0.2,0.7,0.3,1.4,0.1,2c-0.5,1.5-2.2,2.3-3.8,2.7c-4.6,1.3-9.4,1.7-14.1,1.1c-2.7-0.3-5.8-1.3-6.9-3.8
			C5.1,131.1,7.1,127.8,9.6,126z"/>
		<g>
			<path class="st3" d="M69,45.2c0,0,0.6-4.2,5.9-4.4s5.7,3,5.7,3s-1.1,4.7-5.1,4.9C71.7,48.9,69.9,46.7,69,45.2z"/>
			<path class="st2" d="M70.4,42.6c0.9-0.9,2.2-1.7,4.5-1.8c1.3,0,2.3,0.1,3.1,0.4c0.2,0.5,0.3,1,0.3,1.6c0,2.2-1.8,4.1-4,4.1
				c-2.2,0-4-1.8-4-4.1C70.4,42.7,70.4,42.7,70.4,42.6z"/>
			<path class="st4" d="M74.1,43.5c0,0.6,0.4,1,1,1s1-0.5,1-1s-0.4-1-1-1S74.1,43,74.1,43.5z"/>
		</g>
		<g>
			<path class="st3" d="M53.5,43.6c0,0-0.5-4.2-5.9-4.4s-5.7,3-5.7,3s1.1,4.7,5,4.9S52.6,45.2,53.5,43.6z"/>
			<path class="st2" d="M51.6,40.6c0,0.3,0.1,0.5,0.1,0.8c0,2.2-1.8,4-4,4s-4-1.8-4-4c0-0.5,0.1-1.1,0.3-1.5
				c0.8-0.4,1.9-0.6,3.5-0.6C49.4,39.3,50.7,39.9,51.6,40.6z"/>
			<path class="st4" d="M47.4,42.2c0,0.6,0.4,1,1,1c0.5,0,1-0.5,1-1s-0.4-1-1-1C47.8,41.2,47.4,41.6,47.4,42.2z"/>
		</g>
	</g>
</g>
</svg>
