<?xml version="1.0" encoding="utf-8"?>
<!-- Generator: Adobe Illustrator 27.9.0, SVG Export Plug-In . SVG Version: 6.00 Build 0)  -->
<svg version="1.1" id="Слой_1" xmlns="http://www.w3.org/2000/svg" xmlns:xlink="http://www.w3.org/1999/xlink" x="0px" y="0px"
	 viewBox="0 0 1080 1920" style="enable-background:new 0 0 1080 1920;" xml:space="preserve">
<style type="text/css">
	.st0{fill:#1E1D37;stroke:#020203;stroke-miterlimit:10;}
	.st1{clip-path:url(#SVGID_00000181053295719817728350000011631405808294468785_);}
	.st2{fill:#100F1E;stroke:#020203;stroke-miterlimit:10;}
	.st3{clip-path:url(#SVGID_00000137096857688787134280000001518152937968648607_);}
	.st4{fill:#020203;}
	.st5{fill:#BCE3FA;}
	.st6{fill:#FFFFFF;}
</style>
<rect x="-0.41" y="-0.14" class="st0" width="1080" height="1920"/>
<g>
	<g>
		<defs>
			<rect id="SVGID_1_" width="1080" height="1920"/>
		</defs>
		<clipPath id="SVGID_00000065795671904317291250000009213108612353601920_">
			<use xlink:href="#SVGID_1_"  style="overflow:visible;"/>
		</clipPath>
		<g id="stars" style="clip-path:url(#SVGID_00000065795671904317291250000009213108612353601920_);">
			<g>
				<rect x="-3.31" y="-7.55" class="st2" width="1080" height="1920"/>
			</g>
		</g>
	</g>
	<g>
		<defs>
			<rect id="SVGID_00000108301284743259431250000006299645472038247824_" width="1080" height="1920"/>
		</defs>
		<clipPath id="SVGID_00000040568133696230983060000013502653998030332307_">
			<use xlink:href="#SVGID_00000108301284743259431250000006299645472038247824_"  style="overflow:visible;"/>
		</clipPath>
		<g style="clip-path:url(#SVGID_00000040568133696230983060000013502653998030332307_);">
			<path class="st4" d="M392.87,2135.54c20.07,87,42,162.51,71.86,234.27c14.8-0.44,29.58-1.21,44.3-2.16
				c79.93-5.17,159-18.75,237.25-35.46c139.86-29.86,282.4-45.32,422.2-75.71c136.88-29.76,274.25-73.47,390.4-153.98
				c101.79-70.55,183.44-166.94,236.25-278.95c25.3-53.66,43.74-110.09,56.14-167.87c-287.32-54.22-566.84-95.24-808.02-305.58
				c-3.43-22.28-7.28-45.08-12.09-69.04c-28.73-143.01,74.99-424.99,3.34-455.34c-71.65-30.36-180.91,72.55-327.31,230.92
				c-140.74-39.15-306.88,14.64-379.33,18.4c-72.46,3.76-254.2-213.3-336.19-167.1c-81.98,46.21,67.5,461.89,67.5,461.89
				s-44.93,182.52-20.43,257.2c36.09,110,84.96,186.36,173.37,249.08C274.13,1954.04,362.34,2003.17,392.87,2135.54z"/>
			<g>
				<path class="st5" d="M453.3,1559.93c-66.63-128.21-186.61-67.76-206.39-39.72C262.38,1606.99,403.67,1660.88,453.3,1559.93z"/>
				<path class="st4" d="M371.57,1513.9c-12.72-3.52-25.44-4.57-37.65-3.85c-0.23,10.4,0.31,22.1,1.78,34.44
					c4.88,41.03,16.74,65.37,27.86,64.04c11.12-1.32,17.29-27.81,12.41-68.83C374.88,1530.55,373.36,1521.9,371.57,1513.9z"/>
				<path class="st6" d="M355.63,1520.77c1.27,10.63-6.36,20.29-17.02,21.56c-10.67,1.27-20.34-6.33-21.61-16.96
					c-1.26-10.64,6.36-20.29,17.02-21.55C344.69,1502.54,354.37,1510.13,355.63,1520.77z"/>
			</g>
			<g>
				<path class="st5" d="M671.78,1545.06c35.12-134.63,166.99-90.03,193-64.87C870.08,1567.61,744.24,1638.32,671.78,1545.06z"/>
				<path class="st4" d="M746.38,1488.65c0.2,7.3,0.73,15.02,1.68,23.05c4.8,40.34,17.62,71.98,28.64,70.67
					c11.02-1.31,16.06-35.08,11.26-75.42c-1.02-8.57-2.45-16.64-4.09-24.18C771.4,1482.73,758.66,1484.46,746.38,1488.65z"/>
				<path class="st6" d="M766.12,1490.43c1.27,10.64-6.35,20.29-17.01,21.55c-10.67,1.27-20.34-6.33-21.61-16.96
					c-1.26-10.64,6.36-20.29,17.02-21.56C755.18,1472.2,764.85,1479.79,766.12,1490.43z"/>
			</g>
		</g>
	</g>
</g>
<path class="st4" d="M229.19,1485.11c27.35-41.51,103.01-52.28,158.3-28.09c53.67,23.48,92.23,81.71,80.17,100.6
	c-7.38,11.56-28.79,0.65-115.91-10.21c-82.87-10.33-123.45-7.93-131.23-29.62C215.98,1505.16,225.07,1491.36,229.19,1485.11z"/>
<path class="st4" d="M874.48,1430.99c-33.87-36.38-110.27-34.41-160.76-1.35c-49.01,32.09-77.35,95.92-62.31,112.53
	c9.2,10.17,28.5-4.15,112.6-29.36c80-23.98,120.41-28.36,124.48-51.04C890.84,1448.57,879.58,1436.47,874.48,1430.99z"/>
</svg>
