<?xml version="1.0" encoding="utf-8"?>
<!-- Generator: Adobe Illustrator 27.9.0, SVG Export Plug-In . SVG Version: 6.00 Build 0)  -->
<svg version="1.1" id="Слой_1" xmlns="http://www.w3.org/2000/svg" xmlns:xlink="http://www.w3.org/1999/xlink" x="0px" y="0px"
	 viewBox="0 0 1080 1920" style="enable-background:new 0 0 1080 1920;" xml:space="preserve">
<style type="text/css">
	.st0{fill:#1E1D37;stroke:#020203;stroke-miterlimit:10;}
	.st1{clip-path:url(#SVGID_00000155858596633689990280000010768638773533756592_);}
	.st2{fill:#100F1E;stroke:#020203;stroke-miterlimit:10;}
	.st3{fill:#020203;}
	.st4{fill:#BCE3FA;}
	.st5{fill:#FFFFFF;}
</style>
<rect x="-0.41" y="-0.14" class="st0" width="1080" height="1920"/>
<g>
	<defs>
		<rect id="SVGID_1_" width="1080" height="1920"/>
	</defs>
	<clipPath id="SVGID_00000088840518100692130800000014159161363635550124_">
		<use xlink:href="#SVGID_1_"  style="overflow:visible;"/>
	</clipPath>
	<g id="stars" style="clip-path:url(#SVGID_00000088840518100692130800000014159161363635550124_);">
		<g>
			<rect x="-3.31" y="-7.55" class="st2" width="1080" height="1920"/>
		</g>
	</g>
	<g style="clip-path:url(#SVGID_00000088840518100692130800000014159161363635550124_);">
		<path class="st3" d="M392.87,2135.54c20.07,87,42,162.51,71.86,234.27c14.8-0.44,29.58-1.21,44.3-2.16
			c79.93-5.17,159-18.75,237.25-35.46c139.86-29.86,282.4-45.32,422.2-75.71c136.88-29.76,274.25-73.47,390.4-153.98
			c101.79-70.55,183.44-166.94,236.25-278.95c25.3-53.66,43.74-110.09,56.14-167.87c-287.32-54.22-566.84-95.24-808.02-305.58
			c-3.43-22.28-7.28-45.08-12.09-69.04c-28.73-143.01,74.99-424.99,3.34-455.34c-71.65-30.36-180.91,72.55-327.31,230.92
			c-140.74-39.15-306.88,14.64-379.33,18.4C255.4,1078.8,73.66,861.74-8.33,907.94c-81.98,46.21,67.5,461.89,67.5,461.89
			s-44.93,182.52-20.43,257.2c36.09,110,84.96,186.36,173.37,249.08C274.13,1954.04,362.34,2003.17,392.87,2135.54z"/>
		<g>
			<path class="st4" d="M453.3,1559.93c-66.63-128.21-186.61-67.76-206.39-39.72C262.38,1606.99,403.67,1660.88,453.3,1559.93z"/>
			<path class="st3" d="M370.69,1485.3c-12.72-3.52-25.44-4.57-37.65-3.85c-0.23,10.4,0.31,22.1,1.78,34.44
				c4.88,41.03,16.74,65.37,27.86,64.04c11.12-1.32,17.29-27.81,12.41-68.83C374,1501.95,372.48,1493.3,370.69,1485.3z"/>
			<path class="st5" d="M355.63,1520.77c1.27,10.63-6.36,20.29-17.02,21.56c-10.67,1.27-20.34-6.33-21.61-16.96
				c-1.26-10.64,6.36-20.29,17.02-21.55C344.69,1502.54,354.37,1510.13,355.63,1520.77z"/>
		</g>
		<g>
			<path class="st4" d="M671.78,1545.06c35.12-134.63,166.99-90.03,193-64.87C870.08,1567.61,744.24,1638.32,671.78,1545.06z"/>
			<path class="st3" d="M742.65,1458.35c0.2,7.3,0.73,15.02,1.68,23.05c4.8,40.34,17.62,71.98,28.64,70.67
				c11.02-1.31,16.06-35.08,11.26-75.42c-1.02-8.57-2.45-16.64-4.09-24.18C767.67,1452.43,754.93,1454.16,742.65,1458.35z"/>
			<path class="st5" d="M766.12,1490.43c1.27,10.64-6.35,20.29-17.01,21.55c-10.67,1.27-20.34-6.33-21.61-16.96
				c-1.26-10.64,6.36-20.29,17.02-21.56C755.18,1472.2,764.85,1479.79,766.12,1490.43z"/>
		</g>
	</g>
</g>
</svg>
