<?xml version="1.0" encoding="utf-8"?>
<!-- Generator: Adobe Illustrator 27.9.0, SVG Export Plug-In . SVG Version: 6.00 Build 0)  -->
<svg version="1.1" id="Слой_1" xmlns="http://www.w3.org/2000/svg" xmlns:xlink="http://www.w3.org/1999/xlink" x="0px" y="0px"
	 viewBox="0 0 590 370" style="enable-background:new 0 0 590 370;" xml:space="preserve">
<style type="text/css">
	
		.st0{clip-path:url(#SVGID_00000109744084159998005870000009229477134115297408_);fill:url(#SVGID_00000057116782207024279430000008735387623419821701_);}
	.st1{clip-path:url(#SVGID_00000098931223159763822730000015578096225574996380_);}
	.st2{fill:url(#SVGID_00000036209645540447609110000010088092605829546394_);}
	.st3{fill:#020203;}
	.st4{fill:#BCE4FA;}
	.st5{fill:#70C6E8;}
	.st6{fill:#167BA2;}
	.st7{fill:#FFFFFF;}
</style>
<g>
	<g>
		<defs>
			<rect id="SVGID_1_" width="590" height="370"/>
		</defs>
		<clipPath id="SVGID_00000009576319917807128170000005376890267448636582_">
			<use xlink:href="#SVGID_1_"  style="overflow:visible;"/>
		</clipPath>
		
			<radialGradient id="SVGID_00000087372089232136185830000013333344000463782312_" cx="288.5722" cy="-2977.0132" r="217.634" fx="299.8929" fy="-2971.5295" gradientTransform="matrix(0.9998 -2.103874e-02 -4.327712e-03 -0.2057 3.5061 -266.9812)" gradientUnits="userSpaceOnUse">
			<stop  offset="2.306561e-07" style="stop-color:#1D1D1B;stop-opacity:0.3"/>
			<stop  offset="7.904366e-02" style="stop-color:#40403E;stop-opacity:0.2763"/>
			<stop  offset="0.2067" style="stop-color:#727271;stop-opacity:0.238"/>
			<stop  offset="0.337" style="stop-color:#9D9D9C;stop-opacity:0.1989"/>
			<stop  offset="0.4677" style="stop-color:#C1C1C0;stop-opacity:0.1597"/>
			<stop  offset="0.5988" style="stop-color:#DCDCDC;stop-opacity:0.1203"/>
			<stop  offset="0.7307" style="stop-color:#EFEFEF;stop-opacity:8.077893e-02"/>
			<stop  offset="0.8638" style="stop-color:#FBFBFB;stop-opacity:4.085788e-02"/>
			<stop  offset="1" style="stop-color:#FFFFFF;stop-opacity:0"/>
		</radialGradient>
		
			<ellipse style="clip-path:url(#SVGID_00000009576319917807128170000005376890267448636582_);fill:url(#SVGID_00000087372089232136185830000013333344000463782312_);" cx="304.9" cy="339.3" rx="201.3" ry="51.6"/>
	</g>
	<g>
		<defs>
			<rect id="SVGID_00000096038709421691569730000016801730763067474106_" width="590" height="370"/>
		</defs>
		<clipPath id="SVGID_00000078759313941164050300000015914625534454221704_">
			<use xlink:href="#SVGID_00000096038709421691569730000016801730763067474106_"  style="overflow:visible;"/>
		</clipPath>
		<g style="clip-path:url(#SVGID_00000078759313941164050300000015914625534454221704_);">
			
				<radialGradient id="SVGID_00000016042006612838928710000008556234864025686662_" cx="342.2" cy="1939.5875" r="232.1095" gradientTransform="matrix(1 0 0 0.7658 0 -1300.3361)" gradientUnits="userSpaceOnUse">
				<stop  offset="8.750023e-02" style="stop-color:#DCDCDC;stop-opacity:0.6"/>
				<stop  offset="1" style="stop-color:#7988A0;stop-opacity:0"/>
			</radialGradient>
			
				<ellipse style="fill:url(#SVGID_00000016042006612838928710000008556234864025686662_);" cx="342.2" cy="185" rx="245.5" ry="182.3"/>
			<g>
				<path class="st3" d="M2.6,168c3.2-16,12.8-3.2,22.4,6.8c7.2,7.5,28.5,32.4,55,38.1s59.8-12.4,95.8-52.3
					c7.1-7.9,17.1-15.4,29-22.3c48.5-28.1,129.8-45.6,185.1-32.9c-0.2-10.2-0.1-14.7,1.1-22.3s-18.7-42.9-13.2-44.3
					c9.1-2.3,27.9,14.8,32,16.6c4,1.8,29.1-1.8,29.1-1.8s12.5-26.3,21.2-25.5s11.6,34.7,11.6,34.7s8.2,22.3,5.8,37.9
					c-2.4,15.6-3.9,38.8-1.8,51.1s2.3,31.8-16,57.9c-2.2,3.1-5.6,6.6-9.7,10.2c-5.9,12.7-9.1,26.7-10.5,40.7
					c-1.9,19-0.6,38.1,0.6,57.1c7.6-0.1,14.4,7.6,13.1,15.1c-6.2,3.2-13.1,5-20.1,5.2c-6.6,0.1-14.1-1.7-17.5-7.3
					c-3-4.9-2.1-11.2-1.6-16.9c2.1-22.1-2.6-44.3-8.3-65.7c-0.3-1.1-0.6-2.2-0.8-3.4c-0.2,0-0.5,0.1-0.7,0.1c0,0-10,61.1-4.4,70.7
					s15.6,9.5,14.8,17.1c-0.8,7.6-7.1,9.5-12.5,9.5c-13.6,0-19.8-3.8-23.4-10.2c-2.2-3.9-8.9-33.3-15.2-57c-4-15-9.1-27.2-8.7-30.8
					c-9.6,4.1-30.6,9.9-50,11c-3.9,9.5-12.2,17.1-22.1,19.8c-5.2,1.4-10.6,1.5-15.7,3.2c-5.1,1.6-10.1,5.2-11.1,10.5
					c-1.1,6.1,3.4,11.6,7.6,16.1c3.6,3.9,7.5,8,12.8,9.1c4.9,1.1,10.5-0.6,14.6,2.3c3.8,2.7,4.4,8.6,2,12.6s-7,6.3-11.5,7.2
					c-7.7,1.5-15.8-0.5-22.8-4.3c-6.9-3.8-12.8-9.1-18.3-14.8c-11-11.3-20.9-24.1-26.7-38.7c-6.3,0.3-13.1,0.4-20.8,0.2
					c-9.8-0.3-2.5,38.9,2,39.1c13.2,0.7,19,10.5,10.7,17.1c-5.9,4.6-18.5,5.7-27.1,1.6c-5.2-2.5-13.1-32.9-13.5-49.1
					s-5.2-29.8,0-34.6c5.2-4.8,36.1-27.9,23.7-54.5l-0.1,0.1c-18,12.8-49.6,44.9-108.6,36.8C20.4,226.7-0.6,184,2.6,168z"/>
				<g>
					<path class="st4" d="M430.1,91.7c0.3-0.9,1.1-2.8,3.1-4.4c2.1-1.7,4.3-2,5.1-2.1c4.9-0.6,8.5,2.5,9.1,3.1
						c-1.5,4.1-4.7,7-8.4,7.5C435.6,96.3,432.9,94.5,430.1,91.7z"/>
					<path class="st5" d="M446.1,89.1c0-0.3,0-0.6-0.1-0.8c-0.3-0.3-0.8-0.3-1.1,0s-0.5,0.6-0.7,1c-1.9,3.3-5.9,5.4-9.6,4.9
						c2.3,0.6,4.8,0.9,7.1,0.1S445.9,91.5,446.1,89.1z"/>
					<path class="st6" d="M432.4,88.3c-0.2,0.3-0.3,0.6-0.3,1c0,0.2,0.1,0.5,0.3,0.6c0.3,0.2,0.9,0.2,1.2,0c1.1-0.4,1.7-1.3,2.5-2
						c1.5-1.3,4-2.1,6.3-1.8c-1.6-0.5-3.4-0.6-5-0.3C435.3,86.1,433.1,86.9,432.4,88.3z"/>
					<path class="st3" d="M436.4,89.8c0,2.6,1,4.7,2.3,4.7s2.3-2.1,2.3-4.7s-1-4.7-2.3-4.7C437.4,85.1,436.4,87.2,436.4,89.8z"/>
					<path class="st7" d="M438.7,88.7c0,0.7,0.6,1.3,1.4,1.3s1.4-0.6,1.4-1.3s-0.6-1.3-1.4-1.3S438.7,88,438.7,88.7z"/>
				</g>
				<g>
					<path class="st4" d="M412.1,90.6c-0.2-0.8-1.1-3.9-3.9-5.3c-1.5-0.8-3-0.7-4.8-0.5c-1.7,0.1-4.5,0.6-7.7,2.3
						c1.7,4.9,5.4,8.3,9,8.3C407.7,95.5,409.7,93.9,412.1,90.6z"/>
					<path class="st5" d="M411,89.4c0-0.3,0-0.6-0.1-0.8c-0.2-0.3-0.6-0.3-0.8,0s-0.4,0.6-0.5,1c-1.3,3.3-4.1,5.4-6.8,4.9
						c1.6,0.6,3.4,0.9,5,0.1C409.4,93.8,410.8,91.8,411,89.4z"/>
					<path class="st6" d="M398.2,87.5c-0.2,0.3-0.3,0.6-0.3,1c0,0.2,0.1,0.5,0.3,0.6c0.3,0.2,0.9,0.2,1.2,0c1.1-0.4,1.7-1.3,2.5-2
						c1.5-1.3,4-2.1,6.3-1.8c-1.6-0.5-3.4-0.6-5-0.3C401.1,85.3,398.9,86.1,398.2,87.5z"/>
					<path class="st3" d="M402.1,89.8c0,2.6,1,4.7,2.3,4.7s2.3-2.1,2.3-4.7s-1-4.7-2.3-4.7C403.1,85,402.1,87.2,402.1,89.8z"/>
					<path class="st7" d="M404.9,88.1c0,0.7,0.6,1.3,1.4,1.3s1.4-0.6,1.4-1.3s-0.6-1.3-1.4-1.3C405.5,86.8,404.9,87.3,404.9,88.1z"
						/>
				</g>
			</g>
		</g>
	</g>
</g>
</svg>
