<?xml version="1.0" encoding="utf-8"?>
<!-- Generator: Adobe Illustrator 27.9.0, SVG Export Plug-In . SVG Version: 6.00 Build 0)  -->
<svg version="1.1" id="Слой_1" xmlns="http://www.w3.org/2000/svg" xmlns:xlink="http://www.w3.org/1999/xlink" x="0px" y="0px"
	 viewBox="0 0 590 370" style="enable-background:new 0 0 590 370;" xml:space="preserve">
<style type="text/css">
	.st0{fill:url(#SVGID_1_);}
	.st1{fill:#020203;}
	.st2{fill:#BCE4FA;}
	.st3{fill:#70C6E8;}
	.st4{fill:#167BA2;}
	.st5{fill:#FFFFFF;}
</style>
<g>
	
		<radialGradient id="SVGID_1_" cx="342.2499" cy="185" r="232.0894" gradientTransform="matrix(1 0 0 0.7658 0 43.3337)" gradientUnits="userSpaceOnUse">
		<stop  offset="0.0875" style="stop-color:#DCDCDC"/>
		<stop  offset="0.266" style="stop-color:#CED0D3;stop-opacity:0.8043"/>
		<stop  offset="0.6077" style="stop-color:#A9AFBD;stop-opacity:0.4299"/>
		<stop  offset="1" style="stop-color:#7988A0;stop-opacity:0"/>
	</radialGradient>
	<ellipse class="st0" cx="342.25" cy="185" rx="245.49" ry="182.27"/>
	<g>
		<path class="st1" d="M2.57,168.03c3.19-15.97,12.79-3.21,22.42,6.77c7.23,7.49,28.52,32.45,54.96,38.06
			c26.44,5.61,59.85-12.38,95.83-52.31c7.09-7.87,17.05-15.38,28.96-22.27c48.51-28.06,129.78-45.58,185.13-32.87
			c-0.2-10.19-0.08-14.74,1.12-22.32c1.2-7.59-18.66-42.93-13.18-44.32c9.11-2.31,27.93,14.81,31.95,16.58
			c4.02,1.76,29.14-1.8,29.14-1.8s12.5-26.32,21.16-25.55c8.66,0.76,11.58,34.74,11.58,34.74s8.21,22.34,5.82,37.91
			c-2.4,15.57-3.85,38.75-1.84,51.13c2.01,12.38,2.28,31.77-15.96,57.9c-2.18,3.13-5.6,6.64-9.73,10.2
			c-5.9,12.71-9.14,26.7-10.53,40.7c-1.89,18.97-0.62,38.1,0.65,57.12c7.61-0.15,14.35,7.63,13.1,15.14
			c-6.19,3.25-13.13,5.05-20.12,5.21c-6.63,0.15-14.06-1.67-17.51-7.33c-3.01-4.92-2.13-11.16-1.59-16.9
			c2.06-22.11-2.56-44.29-8.28-65.74c-0.29-1.1-0.58-2.25-0.82-3.4c-0.22,0.04-0.46,0.1-0.67,0.14c0,0-10.03,61.08-4.44,70.66
			c5.59,9.58,15.6,9.53,14.8,17.11c-0.8,7.59-7.13,9.45-12.48,9.45c-13.58,0-19.84-3.8-23.44-10.18
			c-2.2-3.92-8.94-33.32-15.25-57.03c-3.98-14.97-9.06-27.17-8.71-30.81c-9.57,4.08-30.61,9.95-50.03,11.04
			c-3.9,9.47-12.22,17.13-22.14,19.82c-5.17,1.4-10.63,1.55-15.73,3.16c-5.11,1.61-10.12,5.25-11.07,10.51
			c-1.1,6.06,3.38,11.56,7.56,16.09c3.61,3.91,7.55,8.02,12.75,9.15c4.89,1.07,10.55-0.59,14.65,2.29
			c3.83,2.69,4.37,8.58,1.99,12.61c-2.38,4.03-6.95,6.34-11.55,7.23c-7.73,1.49-15.83-0.51-22.75-4.26
			c-6.92-3.75-12.8-9.15-18.29-14.79c-11-11.3-20.87-24.15-26.74-38.7c-6.26,0.34-13.13,0.44-20.75,0.19
			c-9.78-0.31-2.46,38.9,2,39.13c13.18,0.67,18.97,10.55,10.69,17.07c-5.88,4.64-18.54,5.7-27.1,1.6
			c-5.16-2.47-13.13-32.85-13.53-49.12c-0.4-16.27-5.19-29.84,0-34.64c5.19-4.79,36.07-27.93,23.69-54.49
			c-0.04,0.03-0.09,0.07-0.14,0.1c-18.03,12.75-49.57,44.89-108.61,36.82C20.37,226.73-0.62,184,2.57,168.03z"/>
		<g>
			<path class="st2" d="M430.15,91.69c0.31-0.86,1.14-2.8,3.12-4.4c2.13-1.71,4.33-2.02,5.1-2.12c4.86-0.62,8.48,2.53,9.1,3.08
				c-1.47,4.07-4.67,7.03-8.37,7.54C435.63,96.27,432.89,94.51,430.15,91.69z"/>
			<path class="st3" d="M446.12,89.07c0.03-0.28,0.03-0.59-0.15-0.81c-0.26-0.32-0.79-0.28-1.12-0.03c-0.33,0.25-0.52,0.64-0.72,1
				c-1.86,3.34-5.85,5.36-9.65,4.87c2.33,0.61,4.83,0.86,7.11,0.1S445.87,91.47,446.12,89.07z"/>
			<path class="st4" d="M432.36,88.33c-0.16,0.31-0.26,0.64-0.26,0.97c0,0.23,0.07,0.47,0.3,0.62c0.33,0.21,0.85,0.15,1.24,0.01
				c1.1-0.4,1.67-1.28,2.45-1.98c1.49-1.34,3.99-2.05,6.34-1.82c-1.57-0.51-3.36-0.56-5.05-0.34
				C435.28,86.07,433.13,86.89,432.36,88.33z"/>
			<path class="st1" d="M436.4,89.85c0,2.61,1.02,4.72,2.27,4.72c1.25,0,2.27-2.11,2.27-4.72c0-2.61-1.02-4.72-2.27-4.72
				C437.42,85.13,436.4,87.24,436.4,89.85z"/>
			<path class="st5" d="M438.67,88.68c0,0.71,0.62,1.28,1.39,1.28c0.77,0,1.39-0.57,1.39-1.28c0-0.71-0.62-1.28-1.39-1.28
				C439.29,87.4,438.67,87.98,438.67,88.68z"/>
		</g>
		<g>
			<path class="st2" d="M412.13,90.6c-0.21-0.83-1.1-3.9-3.89-5.28c-1.55-0.76-3-0.67-4.75-0.54c-1.69,0.13-4.48,0.59-7.68,2.35
				c1.7,4.94,5.36,8.27,9.02,8.34C407.66,95.52,409.72,93.93,412.13,90.6z"/>
			<path class="st3" d="M410.97,89.45c0.02-0.28,0.02-0.59-0.11-0.81c-0.18-0.32-0.56-0.28-0.79-0.03c-0.23,0.25-0.37,0.64-0.51,1
				c-1.31,3.34-4.13,5.36-6.8,4.87c1.64,0.61,3.41,0.86,5.02,0.1C409.39,93.8,410.79,91.84,410.97,89.45z"/>
			<path class="st4" d="M398.16,87.52c-0.16,0.31-0.26,0.64-0.26,0.96c0,0.23,0.07,0.47,0.3,0.62c0.33,0.21,0.85,0.15,1.24,0.01
				c1.1-0.4,1.67-1.28,2.45-1.98c1.49-1.34,3.99-2.05,6.34-1.82c-1.56-0.51-3.36-0.56-5.05-0.34
				C401.08,85.26,398.93,86.08,398.16,87.52z"/>
			<path class="st1" d="M402.11,89.76c0,2.61,1.02,4.72,2.27,4.72c1.25,0,2.27-2.11,2.27-4.72c0-2.61-1.02-4.72-2.27-4.72
				C403.13,85.04,402.11,87.16,402.11,89.76z"/>
			<path class="st5" d="M404.87,88.06c0,0.72,0.64,1.3,1.42,1.3c0.78,0,1.42-0.58,1.42-1.3c0-0.72-0.64-1.31-1.42-1.31
				C405.5,86.76,404.87,87.34,404.87,88.06z"/>
		</g>
	</g>
</g>
</svg>
