<?xml version="1.0" encoding="utf-8"?>
<!-- Generator: Adobe Illustrator 27.9.0, SVG Export Plug-In . SVG Version: 6.00 Build 0)  -->
<svg version="1.1" id="Слой_1" xmlns="http://www.w3.org/2000/svg" xmlns:xlink="http://www.w3.org/1999/xlink" x="0px" y="0px"
	 viewBox="0 0 730 320" style="enable-background:new 0 0 730 320;" xml:space="preserve">
<style type="text/css">
	.st0{fill:url(#SVGID_1_);}
	.st1{fill:#0F0D1F;}
	.st2{fill:#252E69;}
	.st3{fill:#DCE7FF;}
	.st4{fill:#89AAF3;}
	.st5{fill:#364A9E;}
	.st6{fill:#F3D17D;}
	.st7{fill:#6882D0;}
	.st8{fill:url(#SVGID_00000049194073610576854990000015670180057145350075_);}
	.st9{fill:url(#SVGID_00000024697398854434149730000000622514817932332423_);}
	.st10{fill:url(#SVGID_00000026846936624404919890000004729571420642354575_);}
	.st11{fill:url(#SVGID_00000015322057518365973270000005151695890894916008_);}
	.st12{fill:url(#SVGID_00000178885936285113777930000001641378472152464545_);}
	.st13{fill:url(#SVGID_00000136390021159803966700000015647460423395033003_);}
</style>
<g>
	<linearGradient id="SVGID_1_" gradientUnits="userSpaceOnUse" x1="33.8575" y1="159.973" x2="716.8371" y2="159.973">
		<stop  offset="2.306561e-07" style="stop-color:#C2E6F8"/>
		<stop  offset="0.2091" style="stop-color:#E9D7D8"/>
		<stop  offset="0.5291" style="stop-color:#D1CDE0"/>
		<stop  offset="0.804" style="stop-color:#C1C7E4"/>
		<stop  offset="1" style="stop-color:#BBC5E6"/>
	</linearGradient>
	<path class="st0" d="M34.3,165.2c-3.3-22.6,13.9-48.4,29.7-62c19.9-17.1,42.8-19.2,70.7-21.5c100.5-8.1,126.2-6.5,173.1-11.5
		c60.4-6.5,61.3-13.8,111.4-15.5c38.3-1.3,37.8,3,107.6,6.3c88,4.2,103.5-1.9,131.8,14.5c8,4.7,38.6,22.4,52,58.2
		c5.1,13.7,5.9,25.2,6.1,29.1c1.4,30-11.8,68.4-34.5,82c-47.8,28.7-110.4-68.8-206-56.7c-46.7,5.9-48.1,31.2-102.5,54.9
		C237.1,302.6,43.9,232,34.3,165.2z"/>
	<g>
		<polygon class="st1" points="379.6,135.7 458.6,135.7 462.1,66.3 379.6,66.3 		"/>
		<polygon class="st2" points="379.6,66.3 351.3,30.8 328.7,66.3 332.2,135.7 379.6,135.7 		"/>
		<path class="st3" d="M323.4,69.1c1.2,0,3.5,0,4.9,0c1.4,0,22.3-36,23.3-36c1,0,15.3,27,19.4,33.5c4.1,6.5,8.6,6.7,16.3,6.7h78.6
			c4.3,0,6.2-5,5.5-8.1c0-0.3-0.1-0.5-0.2-0.7c-1.2-2.9-22.7-28-28.4-35.1c-5.7-7.1-8.6-9.8-11.4-9.8h-76.7c-2.6,0-4.5,1.1-5.9,2.9
			c-7.1,9.4-23.2,38.2-25.3,41.5C321,67.8,322.2,69.1,323.4,69.1z"/>
		<g>
			<path class="st3" d="M403,35.2c0,0,17.2,0,18.1,0c0.7,0,7.1,8.6,8.1,10c0.4,0.5-0.2,1.5-2.4,1.5c-1.4,0-16.9,0-16.9,0L403,35.2z"
				/>
			<polygon class="st1" points="416.7,44.8 416.7,58.9 426.8,58.9 426.8,44.8 421.8,38.5 			"/>
			<polygon class="st2" points="416.7,44.8 408.8,44.8 416.7,58.9 			"/>
			<g>
				
					<rect x="419.2" y="45" transform="matrix(-1 -1.224647e-16 1.224647e-16 -1 844.0448 99.7241)" class="st3" width="5.7" height="9.7"/>
				<g>
					<rect x="422.3" y="45.7" class="st4" width="1.8" height="3.1"/>
				</g>
				<g>
					<rect x="419.9" y="45.7" class="st4" width="1.8" height="3.1"/>
				</g>
				<g>
					<rect x="422.3" y="49.4" class="st4" width="1.8" height="4.6"/>
				</g>
				<g>
					<rect x="419.9" y="49.4" class="st4" width="1.8" height="4.6"/>
				</g>
			</g>
		</g>
		<path class="st4" d="M323.4,69.1c1.2,0,3.5,0,4.9,0c1.4,0,22.3-36,23.3-36c1,0,15.3,27,19.4,33.5c4.1,6.5,8.6,6.7,16.3,6.7h78.6
			c4.3,0,6.2-5,5.5-8.1c-0.7,0.8-1.5,1.4-2.3,2c-6.4,2.1-13.2,2-19.9,1.3c-7.4-0.8-14.7-1.9-22.1-2.2c-8-0.3-16,0-24,0.9
			c-7.3,0.8-15.6,2.6-22.5-0.9c-10-5.2-12.4-18.3-17-27.6c-1.5-3-3.1-5.9-5-8.7c-1.4-2.1-2.9-4.7-5-6.1c-1.5-1-3.2-1.4-4.8-1.2
			c-7.1,9.4-23.2,38.2-25.3,41.5C321,67.8,322.2,69.1,323.4,69.1z"/>
		<g>
			
				<rect x="437.7" y="78.9" transform="matrix(-1 -1.224647e-16 1.224647e-16 -1 887.9333 178.8369)" class="st3" width="12.5" height="21.1"/>
			<g>
				<rect x="444.7" y="80.3" class="st4" width="4" height="6.8"/>
			</g>
			<g>
				<rect x="439.3" y="80.3" class="st4" width="4" height="6.8"/>
			</g>
			<g>
				<rect x="444.7" y="88.4" class="st4" width="4" height="10.1"/>
			</g>
			<g>
				<rect x="439.3" y="88.4" class="st4" width="4" height="10.1"/>
			</g>
		</g>
		<g>
			
				<rect x="391.4" y="78.9" transform="matrix(-1 -1.224647e-16 1.224647e-16 -1 795.1951 178.8369)" class="st3" width="12.5" height="21.1"/>
			<g>
				<rect x="398.3" y="80.3" class="st4" width="4" height="6.8"/>
			</g>
			<g>
				<rect x="392.9" y="80.3" class="st4" width="4" height="6.8"/>
			</g>
			<g>
				<rect x="398.3" y="88.4" class="st4" width="4" height="10.1"/>
			</g>
			<g>
				<rect x="392.9" y="88.4" class="st4" width="4" height="10.1"/>
			</g>
		</g>
		<g>
			
				<rect x="437.7" y="108.2" transform="matrix(-1 -1.224647e-16 1.224647e-16 -1 887.9333 237.4252)" class="st3" width="12.5" height="21.1"/>
			<g>
				<rect x="444.7" y="109.6" class="st4" width="4" height="6.8"/>
			</g>
			<g>
				<rect x="439.3" y="109.6" class="st4" width="4" height="6.8"/>
			</g>
			<g>
				<rect x="444.7" y="117.7" class="st4" width="4" height="10.1"/>
			</g>
			<g>
				<rect x="439.3" y="117.7" class="st4" width="4" height="10.1"/>
			</g>
		</g>
		<g>
			
				<rect x="391.4" y="108.2" transform="matrix(-1 -1.224647e-16 1.224647e-16 -1 795.1951 237.4252)" class="st3" width="12.5" height="21.1"/>
			<g>
				<rect x="398.3" y="109.6" class="st4" width="4" height="6.8"/>
			</g>
			<g>
				<rect x="392.9" y="109.6" class="st4" width="4" height="6.8"/>
			</g>
			<g>
				<rect x="398.3" y="117.7" class="st4" width="4" height="10.1"/>
			</g>
			<g>
				<rect x="392.9" y="117.7" class="st4" width="4" height="10.1"/>
			</g>
		</g>
		<g>
			
				<rect x="414.6" y="78.9" transform="matrix(-1 -1.224647e-16 1.224647e-16 -1 841.6911 178.8369)" class="st3" width="12.5" height="21.1"/>
			<g>
				<rect x="421.5" y="80.3" class="st4" width="4" height="6.8"/>
			</g>
			<g>
				<rect x="416.1" y="80.3" class="st4" width="4" height="6.8"/>
			</g>
			<g>
				<rect x="421.5" y="88.4" class="st4" width="4" height="10.1"/>
			</g>
			<g>
				<rect x="416.1" y="88.4" class="st4" width="4" height="10.1"/>
			</g>
		</g>
		<g>
			
				<rect x="414.6" y="108.3" transform="matrix(-1 -1.224647e-16 1.224647e-16 -1 841.6911 237.7062)" class="st3" width="12.5" height="21.1"/>
			<g>
				<rect x="421.5" y="109.8" class="st4" width="4" height="6.8"/>
			</g>
			<g>
				<rect x="416.1" y="109.8" class="st4" width="4" height="6.8"/>
			</g>
			<g>
				<rect x="421.5" y="117.8" class="st4" width="4" height="10.1"/>
			</g>
			<g>
				<rect x="416.1" y="117.8" class="st4" width="4" height="10.1"/>
			</g>
		</g>
		<g>
			<rect x="344.7" y="78.9" class="st3" width="12.5" height="21.1"/>
			<g>
				<rect x="346.2" y="80.3" class="st4" width="4" height="6.8"/>
			</g>
			<g>
				<rect x="351.6" y="80.3" class="st4" width="4" height="6.8"/>
			</g>
			<g>
				<rect x="346.2" y="88.4" class="st4" width="4" height="10.1"/>
			</g>
			<g>
				<rect x="351.6" y="88.4" class="st4" width="4" height="10.1"/>
			</g>
		</g>
		<g>
			<rect x="344.7" y="49.5" class="st3" width="12.5" height="17.8"/>
			<g>
				<rect x="346.2" y="51" class="st4" width="4" height="6.8"/>
			</g>
			<g>
				<rect x="351.6" y="51" class="st4" width="4" height="6.8"/>
			</g>
			<g>
				<rect x="346.2" y="59.1" class="st4" width="4" height="6.8"/>
			</g>
			<g>
				<rect x="351.6" y="59.1" class="st4" width="4" height="6.8"/>
			</g>
		</g>
		<g>
			
				<rect x="343.7" y="108.4" transform="matrix(1 -4.735559e-03 4.735559e-03 1 -0.5743 1.665)" class="st3" width="15.1" height="27.5"/>
			<g>
				
					<rect x="349.6" y="110.3" transform="matrix(1 -4.737441e-03 4.737441e-03 1 -0.5281 1.6654)" class="st4" width="3.3" height="4.1"/>
			</g>
			<g>
				
					<rect x="353.9" y="110.2" transform="matrix(1 -4.737671e-03 4.737671e-03 1 -0.528 1.6857)" class="st4" width="3.3" height="4.1"/>
			</g>
			
				<rect x="347.9" y="128.3" transform="matrix(1 -4.725089e-03 4.725089e-03 1 -0.6047 1.6616)" class="st4" width="6.9" height="1"/>
			<g>
				
					<rect x="345.4" y="110.3" transform="matrix(1 -4.737556e-03 4.737556e-03 1 -0.5283 1.6452)" class="st4" width="3.3" height="4.1"/>
			</g>
			<g>
				
					<rect x="349.7" y="115.5" transform="matrix(1 -4.713262e-03 4.713262e-03 1 -0.55 1.657)" class="st4" width="3.3" height="4.1"/>
			</g>
			<g>
				
					<rect x="353.9" y="115.4" transform="matrix(1 -4.761735e-03 4.761735e-03 1 -0.5555 1.6944)" class="st4" width="3.3" height="4.1"/>
			</g>
			<g>
				
					<rect x="345.4" y="115.5" transform="matrix(1 -4.737556e-03 4.737556e-03 1 -0.553 1.6453)" class="st4" width="3.3" height="4.1"/>
			</g>
			<g>
				
					<rect x="349.7" y="120.7" transform="matrix(1 -4.713262e-03 4.713262e-03 1 -0.5745 1.6572)" class="st4" width="3.3" height="4.1"/>
			</g>
			<g>
				
					<rect x="354" y="120.6" transform="matrix(1 -4.740634e-03 4.740634e-03 1 -0.5777 1.6871)" class="st4" width="3.3" height="4.1"/>
			</g>
			<g>
				
					<rect x="345.4" y="120.7" transform="matrix(1 -4.740696e-03 4.740696e-03 1 -0.578 1.6466)" class="st4" width="3.3" height="4.1"/>
			</g>
		</g>
	</g>
	<g>
		<polygon class="st1" points="239.4,159.4 160.5,159.4 157,90 239.4,90 		"/>
		<polygon class="st5" points="239.4,90 267.8,54.5 290.4,90 286.8,159.4 239.4,159.4 		"/>
		<path class="st3" d="M295.6,92.9c-1.2,0-3.5,0-4.9,0c-1.4,0-22.3-36-23.3-36c-1,0-15.3,27-19.4,33.5c-4.1,6.5-8.6,6.7-16.3,6.7
			h-78.6c-4.3,0-6.2-5-5.5-8.1c0-0.3,0.1-0.5,0.2-0.7c1.2-2.9,22.7-28,28.4-35.1c5.7-7.1,8.6-9.8,11.4-9.8h76.7
			c2.6,0,4.5,1.1,5.9,2.9c7.1,9.4,23.2,38.2,25.3,41.5C298.1,91.5,296.8,92.9,295.6,92.9z"/>
		<g>
			<path class="st3" d="M194.3,58.9c0,0-17.2,0-18.1,0c-0.7,0-7.1,8.6-8.1,10c-0.4,0.5,0.2,1.5,2.4,1.5c1.4,0,16.9,0,16.9,0
				L194.3,58.9z"/>
			<polygon class="st1" points="180.6,68.5 180.6,82.6 170.5,82.6 170.5,68.5 175.5,62.2 			"/>
			<polygon class="st5" points="180.6,68.5 188.5,68.5 180.6,82.6 			"/>
			<g>
				<rect x="172.4" y="68.7" class="st3" width="5.7" height="9.7"/>
				<g>
					<rect x="173.1" y="69.4" class="st4" width="1.8" height="3.1"/>
				</g>
				<g>
					<rect x="175.6" y="69.4" class="st4" width="1.8" height="3.1"/>
				</g>
				<g>
					<rect x="173.1" y="73.1" class="st4" width="1.8" height="4.6"/>
				</g>
				<g>
					<rect x="175.6" y="73.1" class="st4" width="1.8" height="4.6"/>
				</g>
			</g>
		</g>
		<g>
			<path class="st3" d="M238.7,58.9c0,0-17.2,0-18.1,0c-0.7,0-7.1,8.6-8.1,10c-0.4,0.5,0.2,1.5,2.4,1.5c1.4,0,16.9,0,16.9,0
				L238.7,58.9z"/>
			<polygon class="st1" points="224.9,68.5 224.9,82.6 214.9,82.6 214.9,68.5 219.9,62.2 			"/>
			<polygon class="st5" points="224.9,68.5 232.9,68.5 224.9,82.6 			"/>
			<g>
				<rect x="216.8" y="68.7" class="st3" width="5.7" height="9.7"/>
				<g>
					<rect x="217.5" y="69.4" class="st6" width="1.8" height="3.1"/>
				</g>
				<g>
					<rect x="219.9" y="69.4" class="st6" width="1.8" height="3.1"/>
				</g>
				<g>
					<rect x="217.5" y="73.1" class="st6" width="1.8" height="4.6"/>
				</g>
				<g>
					<rect x="219.9" y="73.1" class="st6" width="1.8" height="4.6"/>
				</g>
			</g>
		</g>
		<g>
			<rect x="243.6" y="41.2" class="st1" width="10.1" height="13.3"/>
			<polygon class="st5" points="253.7,41.2 261.6,41.2 261.6,43.4 253.7,54.5 			"/>
			<rect x="242.5" y="36.7" class="st3" width="11.2" height="4.5"/>
			<rect x="253.7" y="36.7" class="st4" width="8.8" height="4.5"/>
		</g>
		<path class="st4" d="M295.6,92.9c-1.2,0-3.5,0-4.9,0c-1.4,0-22.3-36-23.3-36c-1,0-15.3,27-19.4,33.5c-4.1,6.5-8.6,6.7-16.3,6.7
			h-78.6c-4.3,0-6.2-5-5.5-8.1c0.7,0.8,1.5,1.4,2.3,2c6.4,2.1,13.2,2,19.9,1.3c7.4-0.8,14.7-1.9,22.1-2.2c8-0.3,16,0,24,0.9
			c7.3,0.8,15.6,2.6,22.5-0.9c10-5.2,12.4-18.3,17-27.6c1.5-3,3.1-5.9,5-8.7c1.4-2.1,2.9-4.7,5-6.1c1.5-1,3.2-1.4,4.8-1.2
			c7.1,9.4,23.2,38.2,25.3,41.5C298.1,91.5,296.8,92.9,295.6,92.9z"/>
		<g>
			<rect x="168.8" y="102.6" class="st3" width="12.5" height="21.1"/>
			<g>
				<rect x="170.4" y="104.1" class="st4" width="4" height="6.8"/>
			</g>
			<g>
				<rect x="175.8" y="104.1" class="st4" width="4" height="6.8"/>
			</g>
			<g>
				<rect x="170.4" y="112.1" class="st4" width="4" height="10.1"/>
			</g>
			<g>
				<rect x="175.8" y="112.1" class="st4" width="4" height="10.1"/>
			</g>
		</g>
		<g>
			<rect x="215.2" y="102.6" class="st3" width="12.5" height="21.1"/>
			<g>
				<rect x="216.8" y="104.1" class="st4" width="4" height="6.8"/>
			</g>
			<g>
				<rect x="222.1" y="104.1" class="st4" width="4" height="6.8"/>
			</g>
			<g>
				<rect x="216.8" y="112.1" class="st4" width="4" height="10.1"/>
			</g>
			<g>
				<rect x="222.1" y="112.1" class="st4" width="4" height="10.1"/>
			</g>
		</g>
		<g>
			<rect x="168.8" y="131.9" class="st3" width="12.5" height="21.1"/>
			<g>
				<rect x="170.4" y="133.4" class="st4" width="4" height="6.8"/>
			</g>
			<g>
				<rect x="175.8" y="133.4" class="st4" width="4" height="6.8"/>
			</g>
			<g>
				<rect x="170.4" y="141.4" class="st4" width="4" height="10.1"/>
			</g>
			<g>
				<rect x="175.8" y="141.4" class="st4" width="4" height="10.1"/>
			</g>
		</g>
		<g>
			<rect x="215.2" y="131.9" class="st3" width="12.5" height="21.1"/>
			<g>
				<rect x="216.8" y="133.4" class="st4" width="4" height="6.8"/>
			</g>
			<g>
				<rect x="222.1" y="133.4" class="st4" width="4" height="6.8"/>
			</g>
			<g>
				<rect x="216.8" y="141.4" class="st4" width="4" height="10.1"/>
			</g>
			<g>
				<rect x="222.1" y="141.4" class="st4" width="4" height="10.1"/>
			</g>
		</g>
		<g>
			<rect x="192" y="102.6" class="st3" width="12.5" height="21.1"/>
			<g>
				<rect x="193.5" y="104.1" class="st4" width="4" height="6.8"/>
			</g>
			<g>
				<rect x="198.9" y="104.1" class="st4" width="4" height="6.8"/>
			</g>
			<g>
				<rect x="193.5" y="112.1" class="st4" width="4" height="10.1"/>
			</g>
			<g>
				<rect x="198.9" y="112.1" class="st4" width="4" height="10.1"/>
			</g>
		</g>
		<g>
			<rect x="192" y="132" class="st3" width="12.5" height="21.1"/>
			<g>
				<rect x="193.5" y="133.5" class="st4" width="4" height="6.8"/>
			</g>
			<g>
				<rect x="198.9" y="133.5" class="st4" width="4" height="6.8"/>
			</g>
			<g>
				<rect x="193.5" y="141.5" class="st4" width="4" height="10.1"/>
			</g>
			<g>
				<rect x="198.9" y="141.5" class="st4" width="4" height="10.1"/>
			</g>
		</g>
		<g>
			
				<rect x="261.9" y="102.6" transform="matrix(-1 -1.224647e-16 1.224647e-16 -1 536.2417 226.2693)" class="st3" width="12.5" height="21.1"/>
			<g>
				<rect x="268.8" y="104.1" class="st4" width="4" height="6.8"/>
			</g>
			<g>
				<rect x="263.4" y="104.1" class="st4" width="4" height="6.8"/>
			</g>
			<g>
				<rect x="268.8" y="112.1" class="st4" width="4" height="10.1"/>
			</g>
			<g>
				<rect x="263.4" y="112.1" class="st4" width="4" height="10.1"/>
			</g>
		</g>
		<g>
			
				<rect x="261.9" y="73.2" transform="matrix(-1 -1.224647e-16 1.224647e-16 -1 536.2417 164.3317)" class="st3" width="12.5" height="17.8"/>
			<g>
				<rect x="268.8" y="74.7" class="st4" width="4" height="6.8"/>
			</g>
			<g>
				<rect x="263.4" y="74.7" class="st4" width="4" height="6.8"/>
			</g>
			<g>
				<rect x="268.8" y="82.8" class="st4" width="4" height="6.8"/>
			</g>
			<g>
				<rect x="263.4" y="82.8" class="st4" width="4" height="6.8"/>
			</g>
		</g>
		<g>
			
				<rect x="260.2" y="132.1" transform="matrix(-1 -4.728985e-03 4.728985e-03 -1 534.7947 292.923)" class="st3" width="15.1" height="27.5"/>
			<g>
				
					<rect x="265.7" y="134.4" transform="matrix(4.737441e-03 -1 1 4.737441e-03 130.491 403.1744)" class="st4" width="4.1" height="3.3"/>
			</g>
			<g>
				
					<rect x="261.5" y="134.4" transform="matrix(4.737556e-03 -1 1 4.737556e-03 126.26 398.8829)" class="st4" width="4.1" height="3.3"/>
			</g>
			
				<rect x="264.3" y="152" transform="matrix(-1 -4.739628e-03 4.739628e-03 -1 534.6981 306.311)" class="st4" width="6.9" height="1"/>
			<g>
				
					<rect x="270" y="134.4" transform="matrix(4.737671e-03 -1 1 4.737671e-03 134.722 407.4659)" class="st4" width="4.1" height="3.3"/>
			</g>
			<g>
				
					<rect x="265.7" y="139.6" transform="matrix(4.713147e-03 -1 1 4.713147e-03 125.2692 408.3324)" class="st4" width="4.1" height="3.3"/>
			</g>
			<g>
				
					<rect x="261.4" y="139.6" transform="matrix(4.761851e-03 -1 1 4.761851e-03 121.0253 404.034)" class="st4" width="4.1" height="3.3"/>
			</g>
			<g>
				
					<rect x="270" y="139.6" transform="matrix(4.737671e-03 -1 1 4.737671e-03 129.4937 412.6205)" class="st4" width="4.1" height="3.3"/>
			</g>
			<g>
				
					<rect x="265.7" y="144.8" transform="matrix(4.713376e-03 -1 1 4.713376e-03 120.0409 413.4871)" class="st4" width="4.1" height="3.3"/>
			</g>
			<g>
				
					<rect x="261.4" y="144.8" transform="matrix(4.737441e-03 -1 1 4.737441e-03 115.8034 409.192)" class="st4" width="4.1" height="3.3"/>
			</g>
			<g>
				
					<rect x="270" y="144.8" transform="matrix(4.737556e-03 -1 1 4.737556e-03 124.2655 417.7751)" class="st4" width="4.1" height="3.3"/>
			</g>
		</g>
	</g>
	<g>
		<g>
			<polygon class="st1" points="347.4,181.9 279.6,181.9 276.6,149 347.4,149 			"/>
			<polygon class="st5" points="347.4,149 371.8,118.5 391.2,149 388.1,181.9 347.4,181.9 			"/>
			<path class="st3" d="M395.7,151.5c-1,0-3,0-4.2,0c-1.2,0-19.2-31-20-31c-0.8,0-13.1,23.2-16.7,28.8c-3.5,5.6-7.4,5.7-14,5.7
				h-67.5c-3.7,0-5.3-4.3-4.7-6.9c0-0.2,0.1-0.4,0.2-0.6c1-2.5,19.5-24.1,24.4-30.1c4.9-6.1,7.4-8.4,9.8-8.4h65.9
				c2.2,0,3.9,0.9,5.1,2.5c6.1,8,20,32.8,21.7,35.6C397.8,150.3,396.7,151.5,395.7,151.5z"/>
			<path class="st4" d="M395.7,151.5c-1,0-3,0-4.2,0c-1.2,0-19.2-31-20-31c-0.8,0-13.1,23.2-16.7,28.8c-3.5,5.6-7.4,5.7-14,5.7
				h-67.5c-3.7,0-5.3-4.3-4.7-6.9c0.6,0.7,1.3,1.2,2,1.7c5.5,1.8,11.3,1.7,17.1,1.1c6.4-0.7,12.6-1.7,19-1.9
				c6.9-0.3,13.8,0,20.6,0.8c6.3,0.7,13.4,2.2,19.3-0.8c8.6-4.4,10.7-15.7,14.6-23.7c1.3-2.6,2.7-5.1,4.3-7.5c1.2-1.8,2.5-4,4.3-5.3
				c1.3-0.9,2.7-1.2,4.1-1c6.1,8,20,32.8,21.7,35.6C397.8,150.3,396.7,151.5,395.7,151.5z"/>
			<g>
				<rect x="286.9" y="161.2" class="st3" width="10.7" height="15.3"/>
				<g>
					<rect x="288.3" y="162.5" class="st6" width="3.5" height="5.8"/>
				</g>
				<g>
					<rect x="292.9" y="162.5" class="st6" width="3.5" height="5.8"/>
				</g>
				<g>
					<rect x="288.3" y="169.4" class="st6" width="3.5" height="5.8"/>
				</g>
				<g>
					<rect x="292.9" y="169.4" class="st6" width="3.5" height="5.8"/>
				</g>
			</g>
			<g>
				<rect x="326.4" y="161.2" class="st3" width="10.7" height="15.3"/>
				<g>
					<rect x="327.7" y="162.5" class="st4" width="3.5" height="5.8"/>
				</g>
				<g>
					<rect x="332.3" y="162.5" class="st4" width="3.5" height="5.8"/>
				</g>
				<g>
					<rect x="327.7" y="169.4" class="st4" width="3.5" height="5.8"/>
				</g>
				<g>
					<rect x="332.3" y="169.4" class="st4" width="3.5" height="5.8"/>
				</g>
			</g>
			<g>
				<rect x="305.6" y="160.4" class="st3" width="11.8" height="21.5"/>
				<g>
					<rect x="310.3" y="161.9" class="st6" width="2.5" height="3.2"/>
				</g>
				<g>
					<rect x="313.6" y="161.9" class="st6" width="2.5" height="3.2"/>
				</g>
				<rect x="308.8" y="176" class="st4" width="5.4" height="0.8"/>
				<g>
					<rect x="306.9" y="161.9" class="st6" width="2.5" height="3.2"/>
				</g>
				<g>
					<rect x="310.3" y="166" class="st6" width="2.5" height="3.2"/>
				</g>
				<g>
					<rect x="313.6" y="166" class="st6" width="2.5" height="3.2"/>
				</g>
				<g>
					<rect x="306.9" y="166" class="st6" width="2.5" height="3.2"/>
				</g>
				<g>
					<rect x="310.3" y="170" class="st6" width="2.5" height="3.2"/>
				</g>
				<g>
					<rect x="313.6" y="170" class="st6" width="2.5" height="3.2"/>
				</g>
				<g>
					<rect x="306.9" y="170" class="st6" width="2.5" height="3.2"/>
				</g>
			</g>
			<g>
				<rect x="306.8" y="107" class="st1" width="8.7" height="11.4"/>
				<polygon class="st5" points="315.4,107 322.3,107 322.3,108.8 315.4,118.4 				"/>
				<rect x="305.8" y="103.1" class="st3" width="9.6" height="3.9"/>
				<rect x="315.4" y="103.1" class="st4" width="7.6" height="3.9"/>
			</g>
		</g>
		<g>
			<circle class="st3" cx="371.9" cy="141.7" r="5.5"/>
			<path class="st4" d="M367.7,141.7c0,2.4,1.9,4.3,4.3,4.3c0.4,0,0.7,0,1.1-0.1c0.7-0.2,1.3-0.5,1.8-1c0.9-0.8,1.4-1.9,1.4-3.1
				c0-2.4-1.9-4.3-4.3-4.3c-0.4,0-0.7,0-1.1,0.1c-0.5,0.1-1,0.3-1.4,0.6C368.4,139,367.7,140.3,367.7,141.7z"/>
			
				<rect x="371.3" y="136.6" transform="matrix(-1 -1.224647e-16 1.224647e-16 -1 743.842 283.3361)" class="st3" width="1.2" height="10.1"/>
			
				<rect x="371.3" y="136.6" transform="matrix(-1.836970e-16 1 -1 -1.836970e-16 513.589 -230.2529)" class="st3" width="1.2" height="10.1"/>
		</g>
		<g>
			<g>
				<g>
					<path class="st3" d="M323.5,93.4h10.1c4.5,0,8.1-3.6,8.1-8.1v-3.8h-10.1c-4.5,0-8.1,3.6-8.1,8.1V93.4z"/>
				</g>
			</g>
			<g>
				<g>
					<path class="st3" d="M315.4,103.1h6.8c4.5,0,8.1-3.6,8.1-8.1v-1.6h-6.8c-4.5,0-8.1,3.6-8.1,8.1V103.1z"/>
				</g>
			</g>
		</g>
	</g>
	<g>
		<g>
			<g>
				<rect x="341.7" y="164.3" class="st5" width="9" height="11.9"/>
				<rect x="334.6" y="164.3" class="st2" width="7.1" height="11.9"/>
				
					<rect x="341.7" y="160.3" transform="matrix(-1 -1.224647e-16 1.224647e-16 -1 693.4661 324.6289)" class="st3" width="10" height="4"/>
				
					<rect x="333.9" y="160.3" transform="matrix(-1 -1.224647e-16 1.224647e-16 -1 675.5747 324.6289)" class="st4" width="7.9" height="4"/>
			</g>
			<polygon class="st5" points="310,247.4 380.6,247.4 383.8,213.2 310,213.2 			"/>
			<polygon class="st2" points="310.1,213.1 284.7,181.4 264.5,213.1 267.7,247.3 310.1,247.3 			"/>
			<path class="st3" d="M259.8,215.7c1.1,0,3.1,0,4.4,0c1.2,0,20-32.2,20.8-32.2c0.9,0,13.7,24.2,17.3,30c3.7,5.8,7.7,6,14.5,6h70.2
				c3.9,0,5.5-4.5,4.9-7.2c0-0.2-0.1-0.5-0.2-0.7c-1.1-2.6-20.3-25-25.4-31.3c-5.1-6.3-7.7-8.8-10.2-8.8h-68.6c-2.3,0-4.1,1-5.3,2.6
				c-6.3,8.4-20.8,34.2-22.6,37.1C257.6,214.5,258.7,215.7,259.8,215.7z"/>
			<path class="st4" d="M259.8,215.7c1.1,0,3.1,0,4.4,0c1.2,0,20-32.2,20.8-32.2c0.9,0,13.7,24.2,17.3,30c3.7,5.8,7.7,6,14.5,6h70.2
				c3.9,0,5.5-4.5,4.9-7.2c-0.6,0.7-1.3,1.3-2.1,1.7c-5.7,1.9-11.8,1.8-17.8,1.1c-6.6-0.7-13.1-1.7-19.8-2c-7.2-0.3-14.3,0-21.5,0.8
				c-6.5,0.7-13.9,2.3-20.1-0.8c-9-4.6-11.1-16.3-15.2-24.6c-1.3-2.7-2.8-5.3-4.4-7.8c-1.3-1.9-2.6-4.2-4.5-5.5
				c-1.4-0.9-2.8-1.2-4.3-1.1c-6.3,8.4-20.8,34.2-22.6,37.1C257.6,214.5,258.7,215.7,259.8,215.7z"/>
			<g>
				<rect x="280.1" y="202" class="st3" width="11.2" height="16"/>
				<g>
					<rect x="281.5" y="203.3" class="st4" width="3.6" height="6.1"/>
				</g>
				<g>
					<rect x="286.3" y="203.3" class="st4" width="3.6" height="6.1"/>
				</g>
				<g>
					<rect x="281.5" y="210.6" class="st4" width="3.6" height="6.1"/>
				</g>
				<g>
					<rect x="286.3" y="210.6" class="st4" width="3.6" height="6.1"/>
				</g>
			</g>
			<g>
				
					<rect x="361.8" y="225.9" transform="matrix(-1 -1.224647e-16 1.224647e-16 -1 734.8463 467.6997)" class="st3" width="11.2" height="16"/>
				<g>
					<rect x="368" y="227.2" class="st4" width="3.6" height="6.1"/>
				</g>
				<g>
					<rect x="363.2" y="227.2" class="st4" width="3.6" height="6.1"/>
				</g>
				<g>
					<rect x="368" y="234.4" class="st4" width="3.6" height="6.1"/>
				</g>
				<g>
					<rect x="363.2" y="234.4" class="st4" width="3.6" height="6.1"/>
				</g>
			</g>
			<g>
				
					<rect x="320.8" y="225.9" transform="matrix(-1 -1.224647e-16 1.224647e-16 -1 652.8055 467.6997)" class="st3" width="11.2" height="16"/>
				<g>
					<rect x="327" y="227.2" class="st4" width="3.6" height="6.1"/>
				</g>
				<g>
					<rect x="322.2" y="227.2" class="st4" width="3.6" height="6.1"/>
				</g>
				<g>
					<rect x="327" y="234.4" class="st4" width="3.6" height="6.1"/>
				</g>
				<g>
					<rect x="322.2" y="234.4" class="st4" width="3.6" height="6.1"/>
				</g>
			</g>
			<g>
				<path class="st3" d="M330.4,182.8c0,0,15.4,0,16.2,0c0.6,0,6.4,7.7,7.2,9c0.3,0.5-0.2,1.4-2.1,1.4c-1.3,0-15.1,0-15.1,0
					L330.4,182.8z"/>
				<polygon class="st5" points="342.7,191.4 342.7,204 351.7,204 351.7,191.4 347.2,185.8 				"/>
				<polygon class="st2" points="342.7,191.4 335.6,191.4 342.7,204 				"/>
				<g>
					
						<rect x="344.8" y="191.6" transform="matrix(-1 -1.224647e-16 1.224647e-16 -1 694.8236 391.8887)" class="st3" width="5.1" height="8.7"/>
					<g>
						<rect x="347.7" y="192.2" class="st4" width="1.7" height="2.8"/>
					</g>
					<g>
						<rect x="345.5" y="192.2" class="st4" width="1.7" height="2.8"/>
					</g>
					<g>
						<rect x="347.7" y="195.5" class="st4" width="1.7" height="4.1"/>
					</g>
					<g>
						<rect x="345.5" y="195.5" class="st4" width="1.7" height="4.1"/>
					</g>
				</g>
			</g>
			<g>
				
					<rect x="341.5" y="225.1" transform="matrix(-1 -1.224647e-16 1.224647e-16 -1 695.3863 472.5023)" class="st3" width="12.3" height="22.4"/>
				<g>
					<rect x="346.4" y="226.6" class="st4" width="2.7" height="3.3"/>
				</g>
				<g>
					<rect x="342.9" y="226.6" class="st4" width="2.7" height="3.3"/>
				</g>
				
					<rect x="344.9" y="241.3" transform="matrix(-1 -1.224647e-16 1.224647e-16 -1 695.3864 483.3913)" class="st4" width="5.6" height="0.8"/>
				<g>
					<rect x="349.8" y="226.6" class="st4" width="2.7" height="3.3"/>
				</g>
				<g>
					<rect x="346.4" y="230.8" class="st4" width="2.7" height="3.3"/>
				</g>
				<g>
					<rect x="342.9" y="230.8" class="st4" width="2.7" height="3.3"/>
				</g>
				<g>
					<rect x="349.8" y="230.8" class="st4" width="2.7" height="3.3"/>
				</g>
				<g>
					<rect x="346.4" y="235.1" class="st4" width="2.7" height="3.3"/>
				</g>
				<g>
					<rect x="342.9" y="235.1" class="st4" width="2.7" height="3.3"/>
				</g>
				<g>
					<rect x="349.8" y="235.1" class="st4" width="2.7" height="3.3"/>
				</g>
			</g>
		</g>
		<g>
			<polygon class="st5" points="263.2,247.4 295.1,247.4 297.3,229.8 263.2,229.8 			"/>
			<polygon class="st2" points="263.2,229.8 245.7,213.5 231.8,229.8 234,247.4 263.2,247.4 			"/>
			<path class="st3" d="M229,230.1c0.7,0,2.2,0,3,0c0.8,0,13.8-16.6,14.4-16.6c0.6,0,9.4,12.4,12,15.4c2.5,3,5.3,3.1,10,3.1h29
				c2.7,0,3.8-2.3,3.4-3.7c0-0.1-0.1-0.2-0.1-0.3c-0.7-1.4-14-12.9-17.5-16.1c-3.5-3.2-5.3-4.5-7-4.5h-27.9c-1.6,0-2.8,0.5-3.6,1.3
				c-4.4,4.3-14.3,17.6-15.6,19.1C227.5,229.5,228.3,230.1,229,230.1z"/>
			<path class="st4" d="M229,230.1c0.7,0,2.2,0,3,0c0.8,0,13.1-16,13.7-16s10.1,11.9,12.6,14.8c2.5,3,5.3,3.1,10,3.1h29
				c2.7,0,3.8-2.3,3.4-3.7c-0.4,0.4-0.9,0.6-1.4,0.9c-4,1-8.1,0.9-12.3,0.6c-4.6-0.4,10.4-0.9,5.8-1c-4.9-0.1-9.9,0-14.8,0.4
				c-4.5,0.4-9.6,1.2-13.9-0.4c-6.2-2.4-7.7-8.4-10.5-12.7c-0.9-1.4-1.9-2.7-3.1-4c-0.9-1-1.8-2.1-3.1-2.8c-0.9-0.5-1.9-0.6-2.9-0.6
				c-4.4,4.3-14.3,17.6-15.6,19.1C227.5,229.5,228.3,230.1,229,230.1z"/>
		</g>
	</g>
	<g>
		<polygon class="st2" points="383.3,202.5 365.5,202.5 364.3,189.3 383.3,189.3 		"/>
		<polygon class="st5" points="383.3,189.3 393.1,177.1 400.9,189.3 399.7,202.5 383.3,202.5 		"/>
		<path class="st3" d="M402.4,189.5c-0.4,0-1.2,0-1.7,0c-0.5,0-7.7-12.4-8-12.4c-0.3,0-5.3,9.3-6.7,11.6c-1.4,2.2-3,2.3-5.6,2.3
			h-16.2c-1.5,0-2.1-1.7-1.9-2.8c0-0.1,0-0.2,0.1-0.3c0.4-1,7.8-9.7,9.8-12.1c2-2.4,3-3.4,3.9-3.4h15.6c0.9,0,1.6,0.4,2,1
			c2.4,3.2,8,13.2,8.7,14.3C403.3,189.1,402.8,189.5,402.4,189.5z"/>
		<path class="st4" d="M402.4,189.5c-0.4,0-1.2,0-1.7,0c-0.5,0-7.3-12-7.7-12c-0.3,0-5.6,8.9-7,11.1c-1.4,2.2-3,2.3-5.6,2.3h-16.2
			c-1.5,0-2.1-1.7-1.9-2.8c0.2,0.3,0.5,0.5,0.8,0.7c2.2,0.7,4.6,0.7,6.9,0.4c2.5-0.3-5.8-0.7-3.2-0.8c2.8-0.1,5.5,0,8.3,0.3
			c2.5,0.3,5.4,0.9,7.7-0.3c3.5-1.8,4.3-6.3,5.9-9.5c0.5-1,1.1-2,1.7-3c0.5-0.7,1-1.6,1.7-2.1c0.5-0.4,1.1-0.5,1.6-0.4
			c2.4,3.2,8,13.2,8.7,14.3C403.3,189.1,402.8,189.5,402.4,189.5z"/>
	</g>
	<g>
		<g>
			<rect x="90.9" y="101.4" class="st2" width="9" height="11.9"/>
			<rect x="99.9" y="101.4" class="st5" width="7.1" height="11.9"/>
			<rect x="89.9" y="97.4" class="st3" width="10" height="4"/>
			<rect x="99.9" y="97.4" class="st4" width="7.9" height="4"/>
		</g>
		<polygon class="st2" points="133.2,179.4 62.6,179.4 59.4,148.7 133.2,148.7 		"/>
		<polygon class="st5" points="133.2,148.6 158.5,116.9 178.7,148.6 175.6,179.2 133.2,179.2 		"/>
		<path class="st3" d="M183.3,151.3c-1.1,0-3.1,0-4.4,0c-1.2,0-20-32.2-20.8-32.2c-0.9,0-13.7,24.2-17.3,30c-3.7,5.8-7.7,6-14.5,6
			H56c-3.9,0-5.5-4.5-4.9-7.2c0-0.2,0.1-0.5,0.2-0.7c1.1-2.6,20.3-25,25.4-31.3c5.1-6.3,7.7-8.8,10.2-8.8h68.6c2.3,0,4.1,1,5.3,2.6
			c6.3,8.4,20.8,34.2,22.6,37.1C185.5,150.1,184.3,151.3,183.3,151.3z"/>
		<g>
			<path class="st3" d="M92.6,120.9c0,0-15.4,0-16.2,0c-0.6,0-6.4,7.7-7.2,9c-0.3,0.5,0.2,1.4,2.1,1.4c1.3,0,15.1,0,15.1,0
				L92.6,120.9z"/>
			<polygon class="st2" points="80.3,129.5 80.3,142.1 71.3,142.1 71.3,129.5 75.8,123.9 			"/>
			<polygon class="st5" points="80.3,129.5 87.4,129.5 80.3,142.1 			"/>
			<g>
				<rect x="73" y="129.7" class="st3" width="5.1" height="8.7"/>
				<g>
					<rect x="73.6" y="130.3" class="st4" width="1.7" height="2.8"/>
				</g>
				<g>
					<rect x="75.8" y="130.3" class="st4" width="1.7" height="2.8"/>
				</g>
				<g>
					<rect x="73.6" y="133.6" class="st4" width="1.7" height="4.1"/>
				</g>
				<g>
					<rect x="75.8" y="133.6" class="st4" width="1.7" height="4.1"/>
				</g>
			</g>
		</g>
		<g>
			<path class="st3" d="M132.3,120.9c0,0-15.4,0-16.2,0c-0.6,0-6.4,7.7-7.2,9c-0.3,0.5,0.2,1.4,2.1,1.4c1.3,0,15.1,0,15.1,0
				L132.3,120.9z"/>
			<polygon class="st2" points="120.2,129.4 120.2,142 111.2,142 111.2,129.4 115.7,123.7 			"/>
			<polygon class="st5" points="120.2,129.4 127.3,129.4 120.2,142 			"/>
			<g>
				<rect x="112.8" y="129.7" class="st3" width="5.1" height="8.7"/>
				<g>
					<rect x="113.4" y="130.3" class="st4" width="1.7" height="2.8"/>
				</g>
				<g>
					<rect x="115.6" y="130.3" class="st4" width="1.7" height="2.8"/>
				</g>
				<g>
					<rect x="113.4" y="133.6" class="st4" width="1.7" height="4.1"/>
				</g>
				<g>
					<rect x="115.6" y="133.6" class="st4" width="1.7" height="4.1"/>
				</g>
			</g>
		</g>
		<path class="st4" d="M183.3,151.3c-1.1,0-3.1,0-4.4,0c-1.2,0-20-32.2-20.8-32.2c-0.9,0-13.7,24.2-17.3,30c-3.7,5.8-7.7,6-14.5,6
			H56c-3.9,0-5.5-4.5-4.9-7.2c0.6,0.7,1.3,1.3,2.1,1.7c5.7,1.9,11.8,1.8,17.8,1.1c6.6-0.7,13.1-1.7,19.8-2c7.2-0.3,14.3,0,21.5,0.8
			c6.5,0.7,13.9,2.3,20.1-0.8c9-4.6,11.1-16.3,15.2-24.6c1.3-2.7,2.8-5.3,4.4-7.8c1.3-1.9,2.6-4.2,4.5-5.5c1.4-0.9,2.8-1.2,4.3-1.1
			c6.3,8.4,20.8,34.2,22.6,37.1C185.5,150.1,184.3,151.3,183.3,151.3z"/>
		<g>
			
				<rect x="152.6" y="157.9" transform="matrix(-1 -1.224647e-16 1.224647e-16 -1 316.4026 334.6303)" class="st3" width="11.2" height="18.9"/>
			<g>
				<rect x="158.8" y="159.2" class="st4" width="3.6" height="6.1"/>
			</g>
			<g>
				<rect x="154" y="159.2" class="st4" width="3.6" height="6.1"/>
			</g>
			<g>
				<rect x="158.8" y="166.4" class="st4" width="3.6" height="9"/>
			</g>
			<g>
				<rect x="154" y="166.4" class="st4" width="3.6" height="9"/>
			</g>
		</g>
		<g>
			<rect x="109.5" y="157.9" class="st3" width="11.2" height="18.9"/>
			<g>
				<rect x="110.8" y="159.2" class="st4" width="3.6" height="6.1"/>
			</g>
			<g>
				<rect x="115.6" y="159.2" class="st4" width="3.6" height="6.1"/>
			</g>
			<g>
				<rect x="110.8" y="166.4" class="st4" width="3.6" height="9"/>
			</g>
			<g>
				<rect x="115.6" y="166.4" class="st4" width="3.6" height="9"/>
			</g>
		</g>
		<g>
			<rect x="70" y="157.9" class="st3" width="11.2" height="18.9"/>
			<g>
				<rect x="71.4" y="159.2" class="st4" width="3.6" height="6.1"/>
			</g>
			<g>
				<rect x="76.2" y="159.2" class="st4" width="3.6" height="6.1"/>
			</g>
			<g>
				<rect x="71.4" y="166.4" class="st4" width="3.6" height="9"/>
			</g>
			<g>
				<rect x="76.2" y="166.4" class="st4" width="3.6" height="9"/>
			</g>
		</g>
		<g>
			<rect x="88.7" y="157.8" class="st3" width="12.3" height="22.4"/>
			<g>
				<rect x="93.5" y="159.4" class="st4" width="2.7" height="3.3"/>
			</g>
			<g>
				<rect x="97" y="159.4" class="st4" width="2.7" height="3.3"/>
			</g>
			<rect x="92" y="172.6" class="st4" width="5.6" height="0.8"/>
			<g>
				<rect x="90" y="159.4" class="st4" width="2.7" height="3.3"/>
			</g>
		</g>
		<g>
			<path class="st3" d="M152.4,142.1c0,3.2,2.6,5.7,5.7,5.7c3.2,0,5.7-2.6,5.7-5.7c0-3.2-2.6-5.7-5.7-5.7
				C154.9,136.4,152.4,139,152.4,142.1z"/>
			<path class="st6" d="M153.6,142.1c0,2.4,2,4.4,4.4,4.4c0.4,0,0.8,0,1.1-0.2c0.7-0.2,1.4-0.5,1.9-1c0.9-0.8,1.4-2,1.4-3.3
				c0-2.4-2-4.4-4.4-4.4c-0.4,0-0.8,0-1.1,0.2c-0.5,0.1-1,0.4-1.4,0.7C154.4,139.3,153.6,140.6,153.6,142.1z"/>
			
				<rect x="157.4" y="136.8" transform="matrix(-1 -1.224647e-16 1.224647e-16 -1 316.1243 284.1622)" class="st3" width="1.2" height="10.5"/>
			
				<rect x="157.4" y="136.8" transform="matrix(-1.836970e-16 1 -1 -1.836970e-16 300.1432 -15.9811)" class="st3" width="1.2" height="10.5"/>
		</g>
	</g>
	<g>
		<g>
			<polygon class="st7" points="440.1,207.1 524.1,206.7 527.7,144.3 440,144.7 			"/>
			<polygon class="st2" points="440,144.7 409.6,107.1 385.8,145 389.7,207.3 440.1,207.1 			"/>
			<path class="st3" d="M380.2,148c1.3,0,3.7-0.1,5.2-0.1c1.5,0,23.6-38.5,24.6-38.5c1,0,16.4,28.7,20.8,35.5c4.4,6.9,9.2,7,17.3,7
				l83.6-0.4c4.6,0,6.6-5.4,5.8-8.6c-0.1-0.3-0.1-0.5-0.2-0.8c-1.3-3.1-24.3-29.7-30.4-37.2c-6.1-7.5-9.2-10.4-12.1-10.4l-81.6,0.4
				c-2.7,0-4.8,1.2-6.3,3.1c-7.5,10-24.5,40.8-26.7,44.3C377.6,146.6,378.9,148,380.2,148z"/>
			<path class="st4" d="M380.2,148c1.3,0,3.7-0.1,5.2-0.1c1.5,0,23.6-38.5,24.6-38.5c1,0,16.4,28.7,20.8,35.5c4.4,6.9,9.2,7,17.3,7
				l83.6-0.4c4.6,0,6.6-5.4,5.8-8.6c-0.7,0.8-1.5,1.5-2.5,2.1c-6.8,2.2-14,2.2-21.2,1.4c-7.9-0.8-15.7-2-23.6-2.3
				c-8.5-0.3-17.1,0.1-25.5,1.1c-7.8,0.9-16.5,2.9-23.9-0.9c-10.7-5.4-13.3-19.4-18.2-29.2c-1.6-3.2-3.4-6.3-5.3-9.3
				c-1.5-2.3-3.1-4.9-5.3-6.5c-1.6-1.1-3.4-1.4-5.1-1.3c-7.5,10-24.5,40.8-26.7,44.3C377.6,146.6,378.9,148,380.2,148z"/>
			<g>
				<path class="st3" d="M466,181.8l-0.1,17.4l-13.3-0.1l0.1-17.4c0,0,0.4-6,6.6-6C462.8,175.7,465.7,178.4,466,181.8L466,181.8z"/>
				<g>
					
						<rect x="458.5" y="191.8" transform="matrix(4.722219e-03 -1 1 4.722219e-03 266.0688 655.1381)" class="st4" width="7.2" height="4.3"/>
				</g>
				<g>
					
						<rect x="452.8" y="191.7" transform="matrix(4.722154e-03 -1 1 4.722154e-03 260.3865 649.3747)" class="st4" width="7.2" height="4.3"/>
				</g>
				<g>
					<path class="st4" d="M454.3,181.5c0,0,0,0.1,0,0.1L454.3,181.5L454.3,181.5z"/>
				</g>
				<g>
					<path class="st4" d="M458.5,177.6l0,11.4h-0.6l-3.6,0l0-7.1c0,0,0-0.1,0-0.1c0-1,0.4-1.9,1-2.6
						C456.1,178.2,457.2,177.6,458.5,177.6z"/>
				</g>
				<g>
					<path class="st4" d="M464.3,189h-0.9l-3.3,0l0-9.6v-1.8c2.3,0,4.2,1.8,4.2,4.1c0,0,0,0.1,0,0.1L464.3,189z"/>
				</g>
			</g>
			<g>
				<path class="st3" d="M490.5,181.8l-0.1,17.4l-13.3-0.1l0.1-17.4c0,0,0.4-6,6.6-6C487.3,175.7,490.2,178.4,490.5,181.8
					L490.5,181.8z"/>
				<g>
					
						<rect x="483.1" y="191.8" transform="matrix(4.736067e-03 -1 1 4.736067e-03 290.47 679.6589)" class="st4" width="7.2" height="4.3"/>
				</g>
				<g>
					
						<rect x="477.3" y="191.7" transform="matrix(4.736002e-03 -1 1 4.736002e-03 284.7878 673.8954)" class="st4" width="7.2" height="4.3"/>
				</g>
				<g>
					<path class="st4" d="M478.8,181.5c0,0,0,0.1,0,0.1L478.8,181.5L478.8,181.5z"/>
				</g>
				<g>
					<path class="st4" d="M483.1,177.6l0,11.4h-0.6l-3.6,0l0-7.1c0,0,0-0.1,0-0.1c0-1,0.4-1.9,1-2.6
						C480.6,178.2,481.8,177.6,483.1,177.6z"/>
				</g>
				<g>
					<path class="st4" d="M488.8,189h-0.9l-3.3,0l0-9.6v-1.8c2.3,0,4.2,1.8,4.2,4.1c0,0,0,0.1,0,0.1L488.8,189z"/>
				</g>
			</g>
			<g>
				<path class="st3" d="M403,181.8l0.1,17.4l13.3-0.1l-0.1-17.4c0,0-0.4-6-6.6-6C406.1,175.7,403.3,178.4,403,181.8L403,181.8z"/>
				<g>
					
						<rect x="404.7" y="190.3" transform="matrix(1 -4.736067e-03 4.736067e-03 1 -0.9138 1.9288)" class="st4" width="4.3" height="7.2"/>
				</g>
				<g>
					
						<rect x="410.4" y="190.3" transform="matrix(1 -4.722154e-03 4.722154e-03 1 -0.9109 1.9502)" class="st4" width="4.3" height="7.2"/>
				</g>
				<g>
					<path class="st4" d="M414.6,181.5c0,0,0,0.1,0,0.1L414.6,181.5L414.6,181.5z"/>
				</g>
				<g>
					<path class="st4" d="M410.4,177.6l0,11.4h0.6l3.6,0l0-7.1c0,0,0-0.1,0-0.1c0-1-0.4-1.9-1-2.6
						C412.9,178.2,411.7,177.6,410.4,177.6z"/>
				</g>
				<g>
					<path class="st4" d="M404.6,189h0.9l3.3,0l0-9.6v-1.8c-2.3,0-4.2,1.8-4.2,4.1c0,0,0,0.1,0,0.1L404.6,189z"/>
				</g>
			</g>
			<g>
				<path class="st3" d="M403,146.4l0.1,17.4l13.3-0.1l-0.1-17.4c0,0-0.4-6-6.6-6C406.1,140.3,403.3,143,403,146.4L403,146.4z"/>
				<g>
					
						<rect x="404.7" y="154.9" transform="matrix(1 -4.736002e-03 4.736002e-03 1 -0.7462 1.9284)" class="st4" width="4.3" height="7.2"/>
				</g>
				<g>
					
						<rect x="410.4" y="154.9" transform="matrix(1 -4.722219e-03 4.722219e-03 1 -0.7439 1.9499)" class="st4" width="4.3" height="7.2"/>
				</g>
				<g>
					<path class="st4" d="M414.6,146.1c0,0,0,0.1,0,0.1L414.6,146.1L414.6,146.1z"/>
				</g>
				<g>
					<path class="st4" d="M410.4,142.2l0,11.4h0.6l3.6,0l0-7.1c0,0,0-0.1,0-0.1c0-1-0.4-1.9-1-2.6
						C412.9,142.8,411.7,142.2,410.4,142.2z"/>
				</g>
				<g>
					<path class="st4" d="M404.6,153.6h0.9l3.3,0l0-9.6v-1.8c-2.3,0-4.2,1.8-4.2,4.1c0,0,0,0.1,0,0.1L404.6,153.6z"/>
				</g>
			</g>
			<g>
				<path class="st3" d="M515,181.8l-0.1,17.4l-13.3-0.1l0.1-17.4c0,0,0.4-6,6.6-6C511.9,175.7,514.7,178.4,515,181.8L515,181.8z"/>
				<g>
					
						<rect x="507.6" y="191.8" transform="matrix(4.736067e-03 -1 1 4.736067e-03 314.8775 704.1823)" class="st4" width="7.2" height="4.3"/>
				</g>
				<g>
					
						<rect x="501.9" y="191.7" transform="matrix(4.736002e-03 -1 1 4.736002e-03 309.1953 698.4188)" class="st4" width="7.2" height="4.3"/>
				</g>
				<g>
					<path class="st4" d="M503.4,181.5c0,0,0,0.1,0,0.1L503.4,181.5L503.4,181.5z"/>
				</g>
				<g>
					<path class="st4" d="M507.6,177.6l0,11.4h-0.6l-3.6,0l0-7.1c0,0,0-0.1,0-0.1c0-1,0.4-1.9,1-2.6
						C505.1,178.2,506.3,177.6,507.6,177.6z"/>
				</g>
				<g>
					<path class="st4" d="M513.4,189h-0.9l-3.3,0l0-9.6v-1.8c2.3,0,4.2,1.8,4.2,4.1c0,0,0,0.1,0,0.1L513.4,189z"/>
				</g>
			</g>
			<g>
				
					<rect x="436" y="86" transform="matrix(1 -4.729406e-03 4.729406e-03 1 -0.4639 2.0999)" class="st7" width="15.5" height="26.2"/>
				<polygon class="st2" points="436,86.1 423.8,86.1 423.8,95.2 436.1,112.3 				"/>
				
					<rect x="436" y="82" transform="matrix(-1 4.732211e-03 -4.732211e-03 -1 889.53 166.5361)" class="st3" width="17.2" height="4.7"/>
				
					<rect x="422.5" y="82" transform="matrix(-1 4.731178e-03 -4.731178e-03 -1 858.8022 166.7546)" class="st4" width="13.5" height="4.7"/>
				
					<rect x="435.9" y="66.6" transform="matrix(-1 4.726508e-03 -4.726508e-03 -1 885.8531 146.4346)" class="st7" width="13.7" height="15.4"/>
				
					<rect x="426.2" y="66.6" transform="matrix(-1 4.727670e-03 -4.727670e-03 -1 862.5543 146.5993)" class="st2" width="9.8" height="15.4"/>
				<polygon class="st3" points="436,66.6 456.5,66.5 435.5,2.8 				"/>
				<polygon class="st4" points="436,66.6 421.2,66.7 435.5,2.8 				"/>
				<g>
					<path class="st3" d="M440.8,95.1c0,0.1,0,0.2,0,0.3l0,10.5l5.5,0l-0.1-10.8c0-1.5-1.2-2.7-2.7-2.7
						C442.1,92.4,440.8,93.6,440.8,95.1z"/>
					<g>
						<path class="st4" d="M442.1,95.6l0,9l3,0l0-9c0-0.6-0.3-1.1-0.8-1.3c-0.2-0.1-0.5-0.2-0.7-0.2
							C442.8,94.1,442.1,94.8,442.1,95.6z"/>
					</g>
				</g>
				<g>
					<path class="st3" d="M440.5,72.1c0,0.1,0,0.2,0,0.3l0,6.8l5.5,0l0-7.1c0-1.5-1.2-2.7-2.7-2.7C441.7,69.4,440.5,70.6,440.5,72.1
						z"/>
					<g>
						<path class="st4" d="M441.8,72.6l0,5.3l3,0l0-5.3c0-0.6-0.3-1.1-0.8-1.3c-0.2-0.1-0.5-0.2-0.7-0.2
							C442.4,71.1,441.8,71.8,441.8,72.6z"/>
					</g>
				</g>
			</g>
			<g>
				<path class="st3" d="M451.9,162.8c0,4.1,3.3,7.4,7.4,7.4c4.1,0,7.4-3.3,7.4-7.4c0-4.1-3.3-7.4-7.4-7.4
					C455.2,155.4,451.9,158.7,451.9,162.8z"/>
				<path class="st4" d="M453.6,162.8c0,3.2,2.6,5.7,5.7,5.7c0.5,0,1-0.1,1.4-0.2c0.9-0.2,1.7-0.7,2.4-1.3c1.2-1.1,1.9-2.6,1.9-4.2
					c0-3.2-2.6-5.7-5.7-5.7c-0.5,0-1,0.1-1.4,0.2c-0.7,0.2-1.3,0.5-1.9,0.9C454.5,159.1,453.6,160.8,453.6,162.8z"/>
				
					<rect x="458.5" y="155.9" transform="matrix(-1 -1.224647e-16 1.224647e-16 -1 918.5997 325.3896)" class="st3" width="1.6" height="13.6"/>
				
					<rect x="458.5" y="155.9" transform="matrix(-1.836970e-16 1 -1 -1.836970e-16 621.9946 -296.605)" class="st3" width="1.6" height="13.6"/>
			</g>
			<g>
				
					<ellipse transform="matrix(0.7071 -0.7071 0.7071 0.7071 26.621 389.786)" class="st3" cx="483.8" cy="162.8" rx="7.4" ry="7.4"/>
				<path class="st4" d="M478.1,162.8c0,3.2,2.6,5.7,5.7,5.7c0.5,0,1-0.1,1.4-0.2c0.9-0.2,1.7-0.7,2.4-1.3c1.2-1.1,1.9-2.6,1.9-4.2
					c0-3.2-2.6-5.7-5.7-5.7c-0.5,0-1,0.1-1.4,0.2c-0.7,0.2-1.3,0.5-1.9,0.9C479.1,159.1,478.1,160.8,478.1,162.8z"/>
				
					<rect x="483" y="155.9" transform="matrix(-1 -1.224647e-16 1.224647e-16 -1 967.6473 325.3896)" class="st3" width="1.6" height="13.6"/>
				
					<rect x="483" y="155.9" transform="matrix(-1.836970e-16 1 -1 -1.836970e-16 646.5184 -321.1288)" class="st3" width="1.6" height="13.6"/>
			</g>
			<g>
				
					<ellipse transform="matrix(0.7071 -0.7071 0.7071 0.7071 33.8038 407.1269)" class="st3" cx="508.3" cy="162.8" rx="7.4" ry="7.4"/>
				<path class="st4" d="M502.6,162.8c0,3.2,2.6,5.7,5.7,5.7c0.5,0,1-0.1,1.4-0.2c0.9-0.2,1.7-0.7,2.4-1.3c1.2-1.1,1.9-2.6,1.9-4.2
					c0-3.2-2.6-5.7-5.7-5.7c-0.5,0-1,0.1-1.4,0.2c-0.7,0.2-1.3,0.5-1.9,0.9C503.6,159.1,502.6,160.8,502.6,162.8z"/>
				
					<rect x="507.6" y="155.9" transform="matrix(-1 -1.224647e-16 1.224647e-16 -1 1016.6945 325.3896)" class="st3" width="1.6" height="13.6"/>
				
					<rect x="507.6" y="155.9" transform="matrix(-1.836970e-16 1 -1 -1.836970e-16 671.0421 -345.6525)" class="st3" width="1.6" height="13.6"/>
			</g>
		</g>
	</g>
	<g>
		<polygon class="st1" points="203.4,247.9 279.8,247.9 283.2,180.7 203.4,180.7 		"/>
		<polygon class="st7" points="203.4,180.7 175.9,146.3 154.1,180.7 157.5,247.9 203.4,247.9 		"/>
		<path class="st3" d="M149,183.5c1.1,0,3.4,0,4.7,0c1.3,0,21.6-34.9,22.6-34.9s14.8,26.2,18.8,32.4c4,6.3,8.3,6.4,15.7,6.4h76
			c4.2,0,6-4.8,5.3-7.8c0-0.3-0.1-0.5-0.2-0.7c-1.1-2.8-22-27.1-27.5-33.9c-5.5-6.8-8.3-9.5-11-9.5h-74.3c-2.5,0-4.4,1-5.7,2.8
			c-6.8,9.1-22.5,37-24.5,40.2C146.6,182.2,147.8,183.5,149,183.5z"/>
		<g>
			<path class="st3" d="M247.1,150.6c0,0,16.6,0,17.5,0c0.6,0,6.9,8.4,7.8,9.7c0.4,0.5-0.2,1.5-2.3,1.5c-1.4,0-16.4,0-16.4,0
				L247.1,150.6z"/>
			<polygon class="st1" points="260.3,159.9 260.3,173.6 270.1,173.6 270.1,159.9 265.2,153.8 			"/>
			<polygon class="st7" points="260.3,159.9 252.7,159.9 260.3,173.6 			"/>
			<g>
				
					<rect x="262.7" y="160.1" transform="matrix(-1 -4.460311e-11 4.460311e-11 -1 530.9687 329.6059)" class="st3" width="5.5" height="9.4"/>
				<g>
					<rect x="265.8" y="160.8" class="st4" width="1.8" height="3"/>
				</g>
				<g>
					<rect x="263.4" y="160.8" class="st4" width="1.8" height="3"/>
				</g>
				<g>
					<rect x="265.8" y="164.3" class="st4" width="1.8" height="4.5"/>
				</g>
				<g>
					<rect x="263.4" y="164.3" class="st4" width="1.8" height="4.5"/>
				</g>
			</g>
		</g>
		<g>
			<path class="st3" d="M204.1,150.6c0,0,16.6,0,17.5,0c0.6,0,6.9,8.4,7.8,9.7c0.4,0.5-0.2,1.5-2.3,1.5c-1.4,0-16.4,0-16.4,0
				L204.1,150.6z"/>
			<polygon class="st1" points="217.4,159.9 217.4,173.6 227.2,173.6 227.2,159.9 222.3,153.8 			"/>
			<polygon class="st7" points="217.4,159.9 209.7,159.9 217.4,173.6 			"/>
			<g>
				
					<rect x="219.8" y="160.1" transform="matrix(-1 -4.460400e-11 4.460400e-11 -1 445.0838 329.6059)" class="st3" width="5.5" height="9.4"/>
				<g>
					<rect x="222.8" y="160.8" class="st6" width="1.8" height="3"/>
				</g>
				<g>
					<rect x="220.5" y="160.8" class="st6" width="1.8" height="3"/>
				</g>
				<g>
					<rect x="222.8" y="164.3" class="st6" width="1.8" height="4.5"/>
				</g>
				<g>
					<rect x="220.5" y="164.3" class="st6" width="1.8" height="4.5"/>
				</g>
			</g>
		</g>
		<g>
			<rect x="189.6" y="133.5" class="st1" width="9.8" height="12.9"/>
			<polygon class="st7" points="189.6,133.5 181.9,133.5 181.9,135.6 189.6,146.3 			"/>
			
				<rect x="189.6" y="129.1" transform="matrix(-1 -4.491397e-11 4.491397e-11 -1 390.0146 262.6258)" class="st3" width="10.9" height="4.4"/>
			
				<rect x="181.1" y="129.1" transform="matrix(-1 -4.487756e-11 4.487756e-11 -1 370.649 262.6258)" class="st4" width="8.5" height="4.4"/>
		</g>
		<path class="st4" d="M149,183.5c1.1,0,3.4,0,4.7,0c1.3,0,21.6-34.9,22.6-34.9s14.8,26.2,18.8,32.4c4,6.3,8.3,6.4,15.7,6.4h76
			c4.2,0,6-4.8,5.3-7.8c-0.7,0.8-1.4,1.4-2.3,1.9c-6.2,2-12.8,1.9-19.3,1.2c-7.2-0.8-14.2-1.9-21.4-2.1c-7.7-0.3-15.5,0-23.2,0.9
			c-7.1,0.8-15.1,2.5-21.7-0.9c-9.7-5-12-17.7-16.5-26.7c-1.4-2.9-3-5.7-4.8-8.4c-1.4-2.1-2.8-4.5-4.8-5.9c-1.5-1-3.1-1.3-4.6-1.2
			c-6.8,9.1-22.5,37-24.5,40.2C146.6,182.2,147.8,183.5,149,183.5z"/>
		<g>
			
				<rect x="259.6" y="192.9" transform="matrix(-1 -4.485358e-11 4.485358e-11 -1 531.3023 406.1754)" class="st3" width="12.1" height="20.4"/>
			<g>
				<rect x="266.3" y="194.3" class="st4" width="3.9" height="6.6"/>
			</g>
			<g>
				<rect x="261.1" y="194.3" class="st4" width="3.9" height="6.6"/>
			</g>
			<g>
				<rect x="266.3" y="202.1" class="st4" width="3.9" height="9.7"/>
			</g>
			<g>
				<rect x="261.1" y="202.1" class="st4" width="3.9" height="9.7"/>
			</g>
		</g>
		<g>
			
				<rect x="214.7" y="192.9" transform="matrix(-1 -4.485358e-11 4.485358e-11 -1 441.5453 406.1754)" class="st3" width="12.1" height="20.4"/>
			<g>
				<rect x="221.4" y="194.3" class="st4" width="3.9" height="6.6"/>
			</g>
			<g>
				<rect x="216.2" y="194.3" class="st4" width="3.9" height="6.6"/>
			</g>
			<g>
				<rect x="221.4" y="202.1" class="st4" width="3.9" height="9.7"/>
			</g>
			<g>
				<rect x="216.2" y="202.1" class="st4" width="3.9" height="9.7"/>
			</g>
		</g>
		<g>
			
				<rect x="259.6" y="221.2" transform="matrix(-1 -4.485358e-11 4.485358e-11 -1 531.3023 462.8802)" class="st3" width="12.1" height="20.4"/>
			<g>
				<rect x="266.3" y="222.7" class="st4" width="3.9" height="6.6"/>
			</g>
			<g>
				<rect x="261.1" y="222.7" class="st4" width="3.9" height="6.6"/>
			</g>
			<g>
				<rect x="266.3" y="230.4" class="st4" width="3.9" height="9.7"/>
			</g>
			<g>
				<rect x="261.1" y="230.4" class="st4" width="3.9" height="9.7"/>
			</g>
		</g>
		<g>
			
				<rect x="214.7" y="221.2" transform="matrix(-1 -4.485358e-11 4.485358e-11 -1 441.5453 462.8802)" class="st3" width="12.1" height="20.4"/>
			<g>
				<rect x="221.4" y="222.7" class="st4" width="3.9" height="6.6"/>
			</g>
			<g>
				<rect x="216.2" y="222.7" class="st4" width="3.9" height="6.6"/>
			</g>
			<g>
				<rect x="221.4" y="230.4" class="st4" width="3.9" height="9.7"/>
			</g>
			<g>
				<rect x="216.2" y="230.4" class="st4" width="3.9" height="9.7"/>
			</g>
		</g>
		<g>
			
				<rect x="237.2" y="192.9" transform="matrix(-1 -4.485358e-11 4.485358e-11 -1 486.5465 406.1754)" class="st3" width="12.1" height="20.4"/>
			<g>
				<rect x="243.9" y="194.3" class="st4" width="3.9" height="6.6"/>
			</g>
			<g>
				<rect x="238.7" y="194.3" class="st4" width="3.9" height="6.6"/>
			</g>
			<g>
				<rect x="243.9" y="202.1" class="st4" width="3.9" height="9.7"/>
			</g>
			<g>
				<rect x="238.7" y="202.1" class="st4" width="3.9" height="9.7"/>
			</g>
		</g>
		<g>
			
				<rect x="237.2" y="221.4" transform="matrix(-1 -4.515467e-11 4.515467e-11 -1 486.5465 463.1521)" class="st3" width="12.1" height="20.4"/>
			<g>
				<rect x="243.9" y="222.8" class="st4" width="3.9" height="6.6"/>
			</g>
			<g>
				<rect x="238.7" y="222.8" class="st4" width="3.9" height="6.6"/>
			</g>
			<g>
				<rect x="243.9" y="230.6" class="st4" width="3.9" height="9.7"/>
			</g>
			<g>
				<rect x="238.7" y="230.6" class="st4" width="3.9" height="9.7"/>
			</g>
		</g>
		<g>
			<rect x="169.6" y="192.9" class="st3" width="12.1" height="20.4"/>
			<g>
				<rect x="171.1" y="194.3" class="st4" width="3.9" height="6.6"/>
			</g>
			<g>
				<rect x="176.3" y="194.3" class="st4" width="3.9" height="6.6"/>
			</g>
			<g>
				<rect x="171.1" y="202.1" class="st4" width="3.9" height="9.7"/>
			</g>
			<g>
				<rect x="176.3" y="202.1" class="st4" width="3.9" height="9.7"/>
			</g>
		</g>
		<g>
			<rect x="169.6" y="164.5" class="st3" width="12.1" height="17.3"/>
			<g>
				<rect x="171.1" y="165.9" class="st4" width="3.9" height="6.6"/>
			</g>
			<g>
				<rect x="176.3" y="165.9" class="st4" width="3.9" height="6.6"/>
			</g>
			<g>
				<rect x="171.1" y="173.7" class="st4" width="3.9" height="6.6"/>
			</g>
			<g>
				<rect x="176.3" y="173.7" class="st4" width="3.9" height="6.6"/>
			</g>
		</g>
		<g>
			
				<rect x="168.6" y="221.4" transform="matrix(1 -4.729096e-03 4.729096e-03 1 -1.1081 0.8348)" class="st3" width="14.7" height="26.6"/>
			<g>
				
					<rect x="174.4" y="223.3" transform="matrix(1 -4.744280e-03 4.744280e-03 1 -1.0667 0.8372)" class="st4" width="3.2" height="4"/>
			</g>
			<g>
				
					<rect x="178.5" y="223.2" transform="matrix(1 -4.719296e-03 4.719296e-03 1 -1.0609 0.8523)" class="st4" width="3.2" height="4"/>
			</g>
			
				<rect x="172.7" y="240.7" transform="matrix(1 -4.731808e-03 4.731808e-03 1 -1.1394 0.8355)" class="st4" width="6.7" height="1"/>
			<g>
				
					<rect x="170.2" y="223.3" transform="matrix(1 -4.740762e-03 4.740762e-03 1 -1.066 0.817)" class="st4" width="3.2" height="4"/>
			</g>
			<g>
				
					<rect x="174.4" y="228.3" transform="matrix(1 -4.740550e-03 4.740550e-03 1 -1.0897 0.8367)" class="st4" width="3.2" height="4"/>
			</g>
			<g>
				
					<rect x="178.5" y="228.3" transform="matrix(1 -4.769261e-03 4.769261e-03 1 -1.0961 0.8615)" class="st4" width="3.2" height="4"/>
			</g>
			<g>
				
					<rect x="170.2" y="228.3" transform="matrix(1 -4.744280e-03 4.744280e-03 1 -1.0907 0.8178)" class="st4" width="3.2" height="4"/>
			</g>
			<g>
				
					<rect x="174.4" y="233.3" transform="matrix(1 -4.722907e-03 4.722907e-03 1 -1.1094 0.8338)" class="st4" width="3.2" height="4"/>
			</g>
			<g>
				
					<rect x="178.5" y="233.3" transform="matrix(1 -4.740695e-03 4.740695e-03 1 -1.1135 0.8565)" class="st4" width="3.2" height="4"/>
			</g>
			<g>
				
					<rect x="170.3" y="233.3" transform="matrix(1 -4.719296e-03 4.719296e-03 1 -1.1087 0.8136)" class="st4" width="3.2" height="4"/>
			</g>
		</g>
	</g>
	<g>
		<g>
			<g>
				<polygon class="st7" points="655.6,192.4 690.2,192.4 692.5,166.8 655.6,166.8 				"/>
				<polygon class="st2" points="655.6,166.8 636.7,143.1 621.6,166.8 624,192.4 655.6,192.4 				"/>
				<path class="st3" d="M618.7,167.2c0.8,0,2.3,0,3.3,0c0.9,0,14.9-24.1,15.6-24.1c0.7,0,10.2,18,12.9,22.4
					c2.7,4.3,5.7,4.4,10.8,4.4h31.4c2.9,0,4.1-3.3,3.7-5.4c0-0.2-0.1-0.3-0.1-0.5c-0.8-2-15.2-18.7-19-23.4
					c-3.8-4.7-5.7-6.5-7.6-6.5h-30.2c-1.7,0-3,0.7-3.9,1.9c-4.7,6.2-15.5,25.5-16.9,27.7C617,166.4,617.9,167.2,618.7,167.2z"/>
				<path class="st4" d="M618.7,167.2c0.8,0,2.3,0,3.3,0c0.9,0,14.2-23.2,14.9-23.2c0.7,0,10.9,17.2,13.6,21.5
					c2.7,4.3,5.7,4.4,10.8,4.4h31.4c2.9,0,4.1-3.3,3.7-5.4c-0.5,0.5-1,0.9-1.6,1.3c-4.3,1.4-8.8,1.3-13.3,0.8
					c-4.9-0.5,11.2-1.3,6.3-1.5c-5.3-0.2-10.7,0-16,0.6c-4.9,0.6-10.4,1.7-15-0.6c-6.7-3.4-8.3-12.2-11.4-18.4c-1-2-2.1-3.9-3.3-5.8
					c-0.9-1.4-1.9-3.1-3.3-4.1c-1-0.7-2.1-0.9-3.2-0.8c-4.7,6.2-15.5,25.5-16.9,27.7C617,166.4,617.9,167.2,618.7,167.2z"/>
			</g>
			<g>
				<g>
					<rect x="606.1" y="102.4" class="st7" width="9.8" height="12.9"/>
					<rect x="598.4" y="102.4" class="st1" width="7.7" height="12.8"/>
					
						<rect x="606.1" y="98.1" transform="matrix(-1 -1.224647e-16 1.224647e-16 -1 1223.0187 200.506)" class="st3" width="10.9" height="4.4"/>
					
						<rect x="597.6" y="98.1" transform="matrix(-1 -1.224647e-16 1.224647e-16 -1 1203.6532 200.506)" class="st4" width="8.5" height="4.4"/>
				</g>
				<polygon class="st7" points="571.8,192.3 648.2,192.3 651.6,155.3 571.8,155.3 				"/>
				<polygon class="st1" points="571.8,155.3 544.4,120.9 522.5,155.3 525.9,192.3 571.8,192.3 				"/>
				<path class="st3" d="M517.4,158.1c1.1,0,3.4,0,4.7,0c1.3,0,21.6-34.9,22.6-34.9s14.8,26.2,18.8,32.4c4,6.3,8.3,6.4,15.7,6.4h76
					c4.2,0,6-4.8,5.3-7.8c0-0.3-0.1-0.5-0.2-0.7c-1.1-2.8-22-27.1-27.5-33.9s-8.3-9.5-11-9.5h-74.3c-2.5,0-4.4,1-5.7,2.8
					c-6.8,9.1-22.5,37-24.5,40.2C515,156.8,516.3,158.1,517.4,158.1z"/>
				<path class="st4" d="M517.4,158.1c1.1,0,3.4,0,4.7,0c1.3,0,21.6-34.9,22.6-34.9s14.8,26.2,18.8,32.4c4,6.3,8.3,6.4,15.7,6.4h76
					c4.2,0,6-4.8,5.3-7.8c-0.7,0.8-1.4,1.4-2.3,1.9c-6.2,2-12.8,1.9-19.3,1.2c-7.2-0.8-14.2-1.9-21.4-2.1c-7.7-0.3-15.5,0-23.2,0.9
					c-7.1,0.8-15.1,2.5-21.7-0.9c-9.7-5-12-17.7-16.5-26.7c-1.4-2.9-3-5.7-4.8-8.4c-1.4-2.1-2.8-4.5-4.8-5.9c-1.5-1-3.1-1.3-4.6-1.2
					c-6.8,9.1-22.5,37-24.5,40.2C515,156.8,516.3,158.1,517.4,158.1z"/>
				<g>
					<rect x="539.4" y="143.2" class="st3" width="12.1" height="17.3"/>
					<g>
						<rect x="540.9" y="144.6" class="st6" width="3.9" height="6.6"/>
					</g>
					<g>
						<rect x="546.1" y="144.6" class="st6" width="3.9" height="6.6"/>
					</g>
					<g>
						<rect x="540.9" y="152.5" class="st6" width="3.9" height="6.6"/>
					</g>
					<g>
						<rect x="546.1" y="152.5" class="st6" width="3.9" height="6.6"/>
					</g>
				</g>
				<g>
					
						<rect x="627.9" y="169" transform="matrix(-1 -1.224647e-16 1.224647e-16 -1 1267.8081 355.3642)" class="st3" width="12.1" height="17.3"/>
					<g>
						<rect x="634.6" y="170.5" class="st4" width="3.9" height="6.6"/>
					</g>
					<g>
						<rect x="629.3" y="170.5" class="st4" width="3.9" height="6.6"/>
					</g>
					<g>
						<rect x="634.6" y="178.3" class="st4" width="3.9" height="6.6"/>
					</g>
					<g>
						<rect x="629.3" y="178.3" class="st4" width="3.9" height="6.6"/>
					</g>
				</g>
				<g>
					
						<rect x="605.7" y="169" transform="matrix(-1 -1.224647e-16 1.224647e-16 -1 1223.4081 355.3642)" class="st3" width="12.1" height="17.3"/>
					<g>
						<rect x="612.4" y="170.5" class="st4" width="3.9" height="6.6"/>
					</g>
					<g>
						<rect x="607.1" y="170.5" class="st4" width="3.9" height="6.6"/>
					</g>
					<g>
						<rect x="612.4" y="178.3" class="st4" width="3.9" height="6.6"/>
					</g>
					<g>
						<rect x="607.1" y="178.3" class="st4" width="3.9" height="6.6"/>
					</g>
				</g>
				<g>
					
						<rect x="583.5" y="169" transform="matrix(-1 -1.224647e-16 1.224647e-16 -1 1179.0082 355.3642)" class="st3" width="12.1" height="17.3"/>
					<g>
						<rect x="590.2" y="170.5" class="st6" width="3.9" height="6.6"/>
					</g>
					<g>
						<rect x="584.9" y="170.5" class="st6" width="3.9" height="6.6"/>
					</g>
					<g>
						<rect x="590.2" y="178.3" class="st6" width="3.9" height="6.6"/>
					</g>
					<g>
						<rect x="584.9" y="178.3" class="st6" width="3.9" height="6.6"/>
					</g>
				</g>
				<g>
					<rect x="538.8" y="168.1" class="st3" width="13.3" height="24.2"/>
					<g>
						<rect x="544" y="169.8" class="st4" width="2.9" height="3.6"/>
					</g>
					<g>
						<rect x="547.8" y="169.8" class="st4" width="2.9" height="3.6"/>
					</g>
					<rect x="542.4" y="185.7" class="st4" width="6.1" height="0.9"/>
					<g>
						<rect x="540.2" y="169.8" class="st4" width="2.9" height="3.6"/>
					</g>
					<g>
						<rect x="544" y="174.4" class="st4" width="2.9" height="3.6"/>
					</g>
					<g>
						<rect x="547.8" y="174.4" class="st4" width="2.9" height="3.6"/>
					</g>
					<g>
						<rect x="540.2" y="174.4" class="st4" width="2.9" height="3.6"/>
					</g>
					<g>
						<rect x="544" y="179" class="st4" width="2.9" height="3.6"/>
					</g>
					<g>
						<rect x="547.8" y="179" class="st4" width="2.9" height="3.6"/>
					</g>
					<g>
						<rect x="540.2" y="179" class="st4" width="2.9" height="3.6"/>
					</g>
				</g>
				<g>
					<path class="st3" d="M593.8,122.5c0,0,16.6,0,17.5,0c0.6,0,6.9,8.4,7.8,9.7c0.4,0.5-0.2,1.5-2.3,1.5c-1.4,0-16.4,0-16.4,0
						L593.8,122.5z"/>
					<polygon class="st7" points="607.1,131.8 607.1,145.4 616.9,145.4 616.9,131.8 612,125.7 					"/>
					<polygon class="st1" points="607.1,131.8 599.4,131.8 607.1,145.4 					"/>
					<g>
						
							<rect x="609.5" y="132" transform="matrix(-1 -1.224647e-16 1.224647e-16 -1 1224.488 273.3073)" class="st3" width="5.5" height="9.4"/>
						<g>
							<rect x="612.5" y="132.6" class="st4" width="1.8" height="3"/>
						</g>
						<g>
							<rect x="610.2" y="132.6" class="st4" width="1.8" height="3"/>
						</g>
						<g>
							<rect x="612.5" y="136.2" class="st4" width="1.8" height="4.5"/>
						</g>
						<g>
							<rect x="610.2" y="136.2" class="st4" width="1.8" height="4.5"/>
						</g>
					</g>
				</g>
			</g>
			<g>
				<g>
					<g>
						<path class="st3" d="M615.3,87h12.6c4.5,0,8.1-3.6,8.1-8.1v-5.4h-12.6c-4.5,0-8.1,3.6-8.1,8.1V87z"/>
					</g>
				</g>
				<g>
					<g>
						<path class="st3" d="M606.1,98h8.9c4.5,0,8.1-3.6,8.1-8.1v-3h-8.9c-4.5,0-8.1,3.6-8.1,8.1V98z"/>
					</g>
				</g>
			</g>
		</g>
	</g>
	<g>
		<polygon class="st7" points="542.9,222.1 572.5,222.1 574.6,200.2 542.9,200.2 		"/>
		<polygon class="st2" points="542.9,200.2 526.7,179.8 513.7,200.2 515.7,222.1 542.9,222.1 		"/>
		<path class="st3" d="M511.2,200.5c0.7,0,2,0,2.8,0c0.8,0,12.8-20.7,13.4-20.7s8.8,15.5,11.1,19.2c2.4,3.7,4.9,3.8,9.3,3.8h26.9
			c2.5,0,3.5-2.9,3.2-4.6c0-0.1-0.1-0.3-0.1-0.4c-0.7-1.7-13-16-16.3-20.1c-3.3-4-4.9-5.6-6.5-5.6H529c-1.5,0-2.6,0.6-3.4,1.7
			c-4,5.4-13.3,21.9-14.5,23.8C509.8,199.8,510.5,200.5,511.2,200.5z"/>
		<path class="st4" d="M511.2,200.5c0.7,0,2,0,2.8,0c0.8,0,12.2-19.9,12.8-19.9c0.6,0,9.3,14.8,11.7,18.5c2.4,3.7,4.9,3.8,9.3,3.8
			h26.9c2.5,0,3.5-2.9,3.2-4.6c-0.4,0.4-0.8,0.8-1.3,1.1c-3.7,1.2-7.6,1.1-11.4,0.7c-4.2-0.5,9.6-1.1,5.4-1.3
			c-4.6-0.2-9.2,0-13.8,0.5c-4.2,0.5-8.9,1.5-12.9-0.5c-5.8-3-7.1-10.5-9.8-15.8c-0.9-1.7-1.8-3.4-2.8-5c-0.8-1.2-1.6-2.7-2.9-3.5
			c-0.9-0.6-1.8-0.8-2.7-0.7c-4,5.4-13.3,21.9-14.5,23.8C509.8,199.8,510.5,200.5,511.2,200.5z"/>
	</g>
	<g>
		<polygon class="st7" points="375.1,285.5 445.7,285.5 448.9,234.2 375.1,234.2 		"/>
		<polygon class="st2" points="375.1,234.2 349.8,209.1 329.6,234.2 332.8,285.5 375.1,285.5 		"/>
		<g>
			<path class="st3" d="M324.9,236.8c1.1,0,3.1,0,4.4,0c1.2,0,20-23.2,20.8-23.2c0.9,0,13.7,15.2,17.3,21c3.7,5.8,7.7,6,14.5,6h70.2
				c3.9,0,5.5-4.5,4.9-7.2c0-0.2-0.1-0.5-0.2-0.7c-1.1-2.6-20.3-16-25.4-22.3c-5.1-6.3-7.7-8.8-10.2-8.8h-68.6c-2.3,0-4.1,1-5.3,2.6
				c-6.3,8.4-20.8,25.2-22.6,28.1C322.7,235.6,323.8,236.8,324.9,236.8z"/>
			<path class="st4" d="M324.9,236.8c1.1,0,3.1,0,4.4,0c1.2,0,20-23.2,20.8-23.2c0.9,0,13.7,15.2,17.3,21c3.7,5.8,7.7,6,14.5,6h70.2
				c3.9,0,5.5-4.5,4.9-7.2c-0.6,0.7-1.3,1.3-2.1,1.7c-5.7,1.9-11.8,1.8-17.8,1.1c-6.6-0.7-13.1-1.7-19.8-2c-7.2-0.3-14.3,0-21.5,0.8
				c-6.5,0.7-14.3,2.7-19.1-2.4c-5.1-5.4-19-19.4-20.7-21.9c-1.3-1.9-2.6-4.2-4.5-5.5c-1.4-0.9-2.8-1.2-4.3-1.1
				c-6.3,8.4-20.8,25.2-22.6,28.1C322.7,235.6,323.8,236.8,324.9,236.8z"/>
		</g>
		<g>
			<rect x="405.9" y="263.1" class="st3" width="12.3" height="22.4"/>
			<g>
				<rect x="410.7" y="264.6" class="st4" width="2.7" height="3.3"/>
			</g>
			<g>
				<rect x="414.2" y="264.6" class="st4" width="2.7" height="3.3"/>
			</g>
			<rect x="409.2" y="277.8" class="st4" width="5.6" height="0.8"/>
			<g>
				<rect x="407.2" y="264.6" class="st4" width="2.7" height="3.3"/>
			</g>
		</g>
		<g>
			<path class="st3" d="M395.5,208.6c0,0,15.4,0,16.2,0c0.6,0,6.4,7.7,7.2,9c0.3,0.5-0.2,1.4-2.1,1.4c-1.3,0-15.1,0-15.1,0
				L395.5,208.6z"/>
			<polygon class="st7" points="407.7,217.2 407.7,229.8 416.7,229.8 416.7,217.2 412.2,211.5 			"/>
			<polygon class="st2" points="407.7,217.2 400.6,217.2 407.7,229.8 			"/>
			<g>
				
					<rect x="409.9" y="217.4" transform="matrix(-1 -1.224647e-16 1.224647e-16 -1 824.9518 443.4053)" class="st3" width="5.1" height="8.7"/>
				<g>
					<rect x="412.8" y="218" class="st6" width="1.7" height="2.8"/>
				</g>
				<g>
					<rect x="410.5" y="218" class="st6" width="1.7" height="2.8"/>
				</g>
				<g>
					<rect x="412.8" y="221.3" class="st6" width="1.7" height="4.1"/>
				</g>
				<g>
					<rect x="410.5" y="221.3" class="st6" width="1.7" height="4.1"/>
				</g>
			</g>
		</g>
		<g>
			<rect x="363.7" y="199.5" class="st7" width="9" height="11.9"/>
			<polygon class="st2" points="363.7,199.5 356.6,199.5 356.6,201.4 363.7,211.4 			"/>
			
				<rect x="363.7" y="195.5" transform="matrix(-1 -1.224647e-16 1.224647e-16 -1 737.3728 395.0356)" class="st3" width="10" height="4"/>
			
				<rect x="355.8" y="195.5" transform="matrix(-1 -1.224647e-16 1.224647e-16 -1 719.4813 395.0356)" class="st4" width="7.9" height="4"/>
		</g>
		<g>
			<path class="st3" d="M439.3,259.7l-0.1,16.1l-12.3-0.1l0.1-16c0,0,0.4-5.6,6.1-5.6C436.4,254.1,439,256.6,439.3,259.7
				L439.3,259.7z"/>
			<g>
				
					<rect x="432.4" y="269" transform="matrix(4.736513e-03 -1 1 4.736513e-03 162.7498 705.3806)" class="st4" width="6.7" height="4"/>
			</g>
			<g>
				
					<rect x="427.1" y="268.9" transform="matrix(4.736584e-03 -1 1 4.736584e-03 157.5 700.0558)" class="st4" width="6.7" height="4"/>
			</g>
			<g>
				<path class="st4" d="M428.5,259.5c0,0,0,0.1,0,0.1L428.5,259.5L428.5,259.5z"/>
			</g>
			<g>
				<path class="st4" d="M432.4,255.9l0,10.5h-0.6l-3.4,0l0-6.6c0,0,0-0.1,0-0.1c0-0.9,0.4-1.8,0.9-2.4
					C430.1,256.4,431.2,255.9,432.4,255.9z"/>
			</g>
			<g>
				<path class="st4" d="M437.7,266.4h-0.9l-3.1,0l0-8.9v-1.6c2.1,0,3.9,1.7,3.9,3.8c0,0,0,0.1,0,0.1L437.7,266.4z"/>
			</g>
		</g>
		<g>
			<path class="st3" d="M396.6,259.7l-0.1,16.1l-12.3-0.1l0.1-16c0,0,0.4-5.6,6.1-5.6C393.7,254.1,396.3,256.6,396.6,259.7
				L396.6,259.7z"/>
			<g>
				
					<rect x="389.8" y="269" transform="matrix(4.736513e-03 -1 1 4.736513e-03 120.2985 662.7278)" class="st6" width="6.7" height="4"/>
			</g>
			<g>
				
					<rect x="384.5" y="268.9" transform="matrix(4.736584e-03 -1 1 4.736584e-03 115.0487 657.403)" class="st6" width="6.7" height="4"/>
			</g>
			<g>
				<path class="st4" d="M385.8,259.5c0,0,0,0.1,0,0.1L385.8,259.5L385.8,259.5z"/>
			</g>
			<g>
				<path class="st6" d="M389.8,255.9l0,10.5h-0.6l-3.4,0l0-6.6c0,0,0-0.1,0-0.1c0-0.9,0.4-1.8,0.9-2.4
					C387.5,256.4,388.6,255.9,389.8,255.9z"/>
			</g>
			<g>
				<path class="st6" d="M395.1,266.4h-0.9l-3.1,0l0-8.9v-1.6c2.1,0,3.9,1.7,3.9,3.8c0,0,0,0.1,0,0.1L395.1,266.4z"/>
			</g>
		</g>
		<g>
			<path class="st3" d="M344.6,229.7l0.1,16.1l12.3-0.1l-0.1-16.1c0,0-0.4-5.6-6.1-5.6C347.5,224.1,344.9,226.6,344.6,229.7
				L344.6,229.7z"/>
			<g>
				
					<rect x="346.2" y="237.6" transform="matrix(1 -4.736513e-03 4.736513e-03 1 -1.1373 1.6517)" class="st4" width="4" height="6.7"/>
			</g>
			<g>
				
					<rect x="351.5" y="237.6" transform="matrix(1 -4.736513e-03 4.736513e-03 1 -1.1371 1.6768)" class="st4" width="4" height="6.7"/>
			</g>
			<g>
				<path class="st4" d="M355.4,229.5c0,0,0,0.1,0,0.1L355.4,229.5L355.4,229.5z"/>
			</g>
			<g>
				<path class="st4" d="M351.5,225.9l0,10.5h0.6l3.4,0l0-6.6c0,0,0-0.1,0-0.1c0-0.9-0.4-1.8-0.9-2.4
					C353.7,226.4,352.7,225.9,351.5,225.9z"/>
			</g>
			<g>
				<path class="st4" d="M346.1,236.4h0.9l3.1,0l0-8.9v-1.6c-2.1,0-3.9,1.7-3.9,3.8c0,0,0,0.1,0,0.1L346.1,236.4z"/>
			</g>
		</g>
		<g>
			<polygon class="st2" points="350.7,285.5 321.6,285.5 318.8,255.4 350.7,255.4 			"/>
			<polygon class="st7" points="350.7,255.4 365.1,249.7 364.8,285.5 350.7,285.5 			"/>
			<g>
				
					<rect x="328.4" y="263.2" transform="matrix(-1 -1.224647e-16 1.224647e-16 -1 669.0463 548.6363)" class="st3" width="12.3" height="22.3"/>
				<g>
					<rect x="333.2" y="264.7" class="st4" width="2.6" height="3.3"/>
				</g>
				<g>
					<rect x="329.7" y="264.7" class="st4" width="2.6" height="3.3"/>
				</g>
				
					<rect x="331.7" y="277.8" transform="matrix(-1 -1.224647e-16 1.224647e-16 -1 669.0464 556.4702)" class="st4" width="5.6" height="0.8"/>
				<g>
					<rect x="336.7" y="264.7" class="st4" width="2.6" height="3.3"/>
				</g>
			</g>
			<g>
				<path class="st3" d="M315.5,257.8h33.1c1,0,2.8,0.7,8.5-2.6c5.7-3.3,9.2-4.6,9.7-5.6c0.3-0.5,0.3-1.4-0.8-1.9
					c-0.4-0.2-1-0.3-1.8-0.3h-38c-2.2,0-7,4.1-9.6,6.5c-0.9,0.9-1.6,1.5-1.8,1.7C313.9,256.3,314.4,257.8,315.5,257.8z"/>
				<g>
					<path class="st4" d="M315.5,257.8h33.1c1,0,2.8,0.7,8.5-2.6c5.7-3.3,9.2-4.6,9.7-5.6c0.3-0.5,0.3-1.4-0.8-1.9
						c-1.2,1.7-5.3,2.4-6.9,3c-1.4,0.5-2.6,1.1-3.9,1.9c-4.6,2.6-9.1,1.2-14.1,1.3c-4.7,0-9.3,0.6-14,1c-2.3,0.2-4.7,0.4-7,0.4
						c-0.6,0-2.1,0.3-2.7,0c-0.9-0.5-0.9-0.9-0.8-1.3c-0.9,0.9-1.6,1.5-1.8,1.7C313.9,256.3,314.4,257.8,315.5,257.8z"/>
					<path class="st4" d="M319,250.7C319,250.7,319,250.7,319,250.7C319,250.6,319,250.6,319,250.7z"/>
				</g>
			</g>
		</g>
	</g>
	
		<linearGradient id="SVGID_00000088122147095845123080000016627848739871153049_" gradientUnits="userSpaceOnUse" x1="455.5389" y1="224.9009" x2="455.5389" y2="224.9009">
		<stop  offset="2.306561e-07" style="stop-color:#C2E6F8"/>
		<stop  offset="0.2091" style="stop-color:#E9D7D8"/>
		<stop  offset="0.5291" style="stop-color:#D1CDE0"/>
		<stop  offset="0.804" style="stop-color:#C1C7E4"/>
		<stop  offset="1" style="stop-color:#BBC5E6"/>
	</linearGradient>
	<path style="fill:url(#SVGID_00000088122147095845123080000016627848739871153049_);" d="M455.5,224.9"/>
	
		<linearGradient id="SVGID_00000036955324173970735770000012487937657034222487_" gradientUnits="userSpaceOnUse" x1="2.6929" y1="239.4134" x2="335.1744" y2="239.4134">
		<stop  offset="2.306561e-07" style="stop-color:#C2E6F8"/>
		<stop  offset="0.2091" style="stop-color:#E9D7D8"/>
		<stop  offset="0.5291" style="stop-color:#D1CDE0"/>
		<stop  offset="0.804" style="stop-color:#C1C7E4"/>
		<stop  offset="1" style="stop-color:#BBC5E6"/>
	</linearGradient>
	<path style="fill:url(#SVGID_00000036955324173970735770000012487937657034222487_);" d="M2.9,207.3c-2.4-12.9,22.1-32.9,46-36
		c13.9-1.8,15.5,3.7,36.8,3.1c23.3-0.7,26.9-7.5,42.1-4.6c3.2,0.6,25.4,5.1,32.9,21.4c9.2,20-11,41.2-2.4,49.8
		c4.9,4.8,12.5-1,35.3-3c22-2,41.2,1.1,49,2.4c20.8,3.4,27.9,8,42.1,4.5c7.3-1.8,9.4-4,16.9-4.6c9.5-0.8,24.8,1.3,30.6,10
		c8.9,13.1-3.4,41.6-23,54.4c-7.1,4.6-19.2,9.9-85-2.3c-45.9-8.5-68.9-12.8-89.6-23c-36.2-17.8-33.4-29.8-71.2-46.7
		C27,216.3,5,218.8,2.9,207.3z"/>
	
		<linearGradient id="SVGID_00000005244012154605390280000003305635520122889865_" gradientUnits="userSpaceOnUse" x1="289.6295" y1="294.5012" x2="456.382" y2="294.5012">
		<stop  offset="2.306561e-07" style="stop-color:#C2E6F8"/>
		<stop  offset="0.2091" style="stop-color:#E9D7D8"/>
		<stop  offset="0.5291" style="stop-color:#D1CDE0"/>
		<stop  offset="0.804" style="stop-color:#C1C7E4"/>
		<stop  offset="1" style="stop-color:#BBC5E6"/>
	</linearGradient>
	<path style="fill:url(#SVGID_00000005244012154605390280000003305635520122889865_);" d="M291.1,313.3c-4.4-7,2-19.3,6.9-25.3
		c9.9-12,25.6-12.8,29.1-13c18-1,23,9.5,36.8,5.4c8.5-2.6,9.5-7.4,18.4-8.4c7.3-0.8,9.2,2.2,20.7,5.4c15.8,4.4,20.1,0.8,37.5,6.1
		c11.7,3.5,14.3,6.5,15.3,9.2c2.4,6.5-3.5,14.1-3.8,14.6c-10.8,13.5-36.9,0.8-75.8,0C326.7,306.1,298.5,325,291.1,313.3z"/>
	
		<linearGradient id="SVGID_00000068641357917639083020000007511358903789385611_" gradientUnits="userSpaceOnUse" x1="424.7435" y1="211.1503" x2="532.9137" y2="211.1503">
		<stop  offset="2.306561e-07" style="stop-color:#C2E6F8"/>
		<stop  offset="0.2091" style="stop-color:#E9D7D8"/>
		<stop  offset="0.5291" style="stop-color:#D1CDE0"/>
		<stop  offset="0.804" style="stop-color:#C1C7E4"/>
		<stop  offset="1" style="stop-color:#BBC5E6"/>
	</linearGradient>
	<path style="fill:url(#SVGID_00000068641357917639083020000007511358903789385611_);" d="M424.7,209.4c0.2-3.6,5.8-6.1,17-10.9
		c12.5-5.5,19.2-8.4,27.6-7c8.6,1.4,8.1,5.5,18,7.7c10.9,2.4,13.3-2.1,24.5,0c4.6,0.9,16.4,3.1,20,12.2c2,5.2,1.3,12.3-2.8,16.4
		c-4.8,4.9-12,3.4-25.3,2c-32.5-3.4-32.3,0.8-49-3.7C452.1,225.3,424.3,217.8,424.7,209.4z"/>
	
		<linearGradient id="SVGID_00000013881093691178048900000014665414733637561519_" gradientUnits="userSpaceOnUse" x1="565.0638" y1="206.7626" x2="726.7295" y2="206.7626">
		<stop  offset="2.306561e-07" style="stop-color:#C2E6F8"/>
		<stop  offset="0.2091" style="stop-color:#E9D7D8"/>
		<stop  offset="0.5291" style="stop-color:#D1CDE0"/>
		<stop  offset="0.804" style="stop-color:#C1C7E4"/>
		<stop  offset="1" style="stop-color:#BBC5E6"/>
	</linearGradient>
	<path style="fill:url(#SVGID_00000013881093691178048900000014665414733637561519_);" d="M566.9,208.9c-4.9-8.6,0.5-23.5,10.1-29.5
		c8.3-5.1,14.4-0.4,52.3,5.5c24.5,3.8,29.6,3,32.2,2.5c11.4-2.1,16.6-6.7,28.6-6.1c3.5,0.2,10.9,0.7,18.5,5.3
		c10.1,6.1,20.9,19.9,17.3,31.4c-3.6,11.6-19.8,15.3-26.9,16.9c-27,6-53.3-8.3-60.5-12.3c-9.8-5.3-10.6-7.7-17.3-9
		c-14.5-2.8-21.4,6.4-37.8,3.6C578.8,216.5,570.4,215.1,566.9,208.9z"/>
	<g>
		<g>
			<rect x="604.9" y="201.6" class="st7" width="9.3" height="12.3"/>
			<rect x="597.5" y="201.6" class="st1" width="7.3" height="12.3"/>
			
				<rect x="604.9" y="197.4" transform="matrix(-1 -1.224647e-16 1.224647e-16 -1 1220.1354 399.0192)" class="st3" width="10.4" height="4.2"/>
			
				<rect x="596.7" y="197.4" transform="matrix(-1 -1.224647e-16 1.224647e-16 -1 1201.613 399.0192)" class="st4" width="8.1" height="4.2"/>
		</g>
		<polygon class="st2" points="572.1,287.6 645.2,287.6 648.4,252.2 572.1,252.2 		"/>
		<polygon class="st1" points="572.1,252.2 545.8,219.3 524.9,252.2 528.2,287.6 572.1,287.6 		"/>
		<path class="st3" d="M520.1,254.8c1.1,0,3.2,0,4.5,0c1.3,0,20.7-33.4,21.6-33.4c0.9,0,14.1,25,18,31c3.8,6,8,6.2,15,6.2h72.7
			c4,0,5.7-4.6,5.1-7.5c0-0.2-0.1-0.5-0.2-0.7c-1.1-2.7-21-25.9-26.3-32.5c-5.3-6.5-8-9.1-10.5-9.1h-71c-2.4,0-4.2,1-5.5,2.7
			c-6.5,8.7-21.5,35.4-23.4,38.4C517.8,253.6,519,254.8,520.1,254.8z"/>
		<path class="st4" d="M520.1,254.8c1.1,0,3.2,0,4.5,0c1.3,0,20.7-33.4,21.6-33.4c0.9,0,14.1,25,18,31c3.8,6,8,6.2,15,6.2h72.7
			c4,0,5.7-4.6,5.1-7.5c-0.6,0.7-1.3,1.3-2.2,1.8c-6,1.9-12.2,1.8-18.4,1.2c-6.8-0.8-13.6-1.8-20.5-2.1c-7.4-0.3-14.8,0-22.2,0.8
			c-6.8,0.8-14.4,2.4-20.8-0.9c-9.3-4.8-11.5-16.9-15.8-25.5c-1.4-2.8-2.9-5.5-4.6-8.1c-1.3-2-2.6-4.3-4.6-5.7
			c-1.4-1-2.9-1.3-4.4-1.1c-6.5,8.7-21.5,35.4-23.4,38.4C517.8,253.6,519,254.8,520.1,254.8z"/>
		<g>
			
				<rect x="583.2" y="265.3" transform="matrix(-1 -1.224647e-16 1.224647e-16 -1 1178.0408 547.136)" class="st3" width="11.6" height="16.5"/>
			<g>
				<rect x="589.7" y="266.7" class="st4" width="3.7" height="6.3"/>
			</g>
			<g>
				<rect x="584.7" y="266.7" class="st4" width="3.7" height="6.3"/>
			</g>
			<g>
				<rect x="589.7" y="274.1" class="st4" width="3.7" height="6.3"/>
			</g>
			<g>
				<rect x="584.7" y="274.1" class="st4" width="3.7" height="6.3"/>
			</g>
		</g>
		<g>
			
				<rect x="604.5" y="265.3" transform="matrix(-1 -1.224647e-16 1.224647e-16 -1 1220.5079 547.136)" class="st3" width="11.6" height="16.5"/>
			<g>
				<rect x="610.9" y="266.7" class="st4" width="3.7" height="6.3"/>
			</g>
			<g>
				<rect x="605.9" y="266.7" class="st4" width="3.7" height="6.3"/>
			</g>
			<g>
				<rect x="610.9" y="274.1" class="st4" width="3.7" height="6.3"/>
			</g>
			<g>
				<rect x="605.9" y="274.1" class="st4" width="3.7" height="6.3"/>
			</g>
		</g>
		<g>
			
				<rect x="625.7" y="265.3" transform="matrix(-1 -1.224647e-16 1.224647e-16 -1 1262.9751 547.136)" class="st3" width="11.6" height="16.5"/>
			<g>
				<rect x="632.1" y="266.7" class="st4" width="3.7" height="6.3"/>
			</g>
			<g>
				<rect x="627.1" y="266.7" class="st4" width="3.7" height="6.3"/>
			</g>
			<g>
				<rect x="632.1" y="274.1" class="st4" width="3.7" height="6.3"/>
			</g>
			<g>
				<rect x="627.1" y="274.1" class="st4" width="3.7" height="6.3"/>
			</g>
		</g>
		<g>
			<rect x="538.2" y="264.4" class="st3" width="12.8" height="23.2"/>
			<g>
				<rect x="543.2" y="266" class="st4" width="2.7" height="3.5"/>
			</g>
			<g>
				<rect x="546.8" y="266" class="st4" width="2.7" height="3.5"/>
			</g>
			<rect x="541.7" y="279.7" class="st4" width="5.8" height="0.8"/>
			<g>
				<rect x="539.6" y="266" class="st4" width="2.7" height="3.5"/>
			</g>
		</g>
		<g>
			
				<ellipse transform="matrix(0.7071 -0.7071 0.7071 0.7071 -17.2399 458.3169)" class="st3" cx="544.6" cy="250" rx="5.9" ry="5.9"/>
			<path class="st4" d="M549.2,250c0,2.5-2.1,4.6-4.6,4.6c-0.4,0-0.8,0-1.1-0.2c-0.7-0.2-1.4-0.5-1.9-1c-0.9-0.8-1.5-2-1.5-3.4
				c0-2.5,2.1-4.6,4.6-4.6c0.4,0,0.8,0,1.2,0.2c0.5,0.1,1,0.4,1.5,0.7C548.4,247,549.2,248.4,549.2,250z"/>
			<rect x="544" y="244.5" class="st3" width="1.3" height="10.9"/>
			
				<rect x="544" y="244.5" transform="matrix(-1.836970e-16 1 -1 -1.836970e-16 794.5355 -294.6999)" class="st3" width="1.3" height="10.9"/>
		</g>
		<g>
			<path class="st3" d="M593.1,220.8c0,0,15.9,0,16.8,0c0.6,0,6.6,8,7.5,9.3c0.3,0.5-0.2,1.4-2.2,1.4c-1.3,0-15.6,0-15.6,0
				L593.1,220.8z"/>
			<polygon class="st2" points="605.9,229.6 605.9,242.7 615.2,242.7 615.2,229.6 610.5,223.8 			"/>
			<polygon class="st1" points="605.9,229.6 598.5,229.6 605.9,242.7 			"/>
			<g>
				
					<rect x="608.1" y="229.8" transform="matrix(-1 -1.224647e-16 1.224647e-16 -1 1221.5408 468.6513)" class="st3" width="5.3" height="9"/>
				<g>
					<rect x="611.1" y="230.5" class="st6" width="1.7" height="2.9"/>
				</g>
				<g>
					<rect x="608.8" y="230.5" class="st6" width="1.7" height="2.9"/>
				</g>
				<g>
					<rect x="611.1" y="233.9" class="st6" width="1.7" height="4.3"/>
				</g>
				<g>
					<rect x="608.8" y="233.9" class="st6" width="1.7" height="4.3"/>
				</g>
			</g>
		</g>
	</g>
	
		<linearGradient id="SVGID_00000021803072330975647630000013517034473868868488_" gradientUnits="userSpaceOnUse" x1="523.9464" y1="255.8933" x2="727.3071" y2="255.8933">
		<stop  offset="2.306561e-07" style="stop-color:#C2E6F8"/>
		<stop  offset="0.2091" style="stop-color:#E9D7D8"/>
		<stop  offset="0.5291" style="stop-color:#D1CDE0"/>
		<stop  offset="0.804" style="stop-color:#C1C7E4"/>
		<stop  offset="1" style="stop-color:#BBC5E6"/>
	</linearGradient>
	<path style="fill:url(#SVGID_00000021803072330975647630000013517034473868868488_);" d="M648,247.5c1.4-14.4-13.5-19.9-10.7-30.6
		c3.3-13,28.9-21.3,47.5-16.1c3.5,1,1.1,0.9,20.7,10.7c14.7,7.4,19.9,9.4,21.4,14.6c1.1,3.6,0.1,7.7-5.4,16.1
		c-11.6,18-22,22.8-36,38.3c-14,15.6-9.5,17.5-17.6,23c-15.9,10.8-28-0.1-62,1.6c-32.8,1.6-41.9,12.8-60.5,4.5
		c-1.8-0.8-21.4-9.8-21.4-23c0-1,0.1-4.8,2.6-8.3c5-6.9,16.3-8,55.6-3.9c26.4,2.7,30.4,4.2,38.7,1.2
		C632.3,271.5,646.8,261,648,247.5z"/>
</g>
</svg>
