<?xml version="1.0" encoding="utf-8"?>
<!-- Generator: Adobe Illustrator 27.9.0, SVG Export Plug-In . SVG Version: 6.00 Build 0)  -->
<svg version="1.1" id="Слой_1" xmlns="http://www.w3.org/2000/svg" xmlns:xlink="http://www.w3.org/1999/xlink" x="0px" y="0px"
	 viewBox="0 0 505 656" style="enable-background:new 0 0 505 656;" xml:space="preserve">
<style type="text/css">
	.st0{fill:url(#SVGID_1_);}
	.st1{fill:#BCE3FA;}
	.st2{fill:#8AA2FA;}
	.st3{fill:#0F0D0D;}
	.st4{fill:#FFFFFF;}
</style>
<g>
	
		<radialGradient id="SVGID_1_" cx="224.3047" cy="567.6669" r="167.8416" gradientTransform="matrix(1 0 0 0.4828 0 293.5804)" gradientUnits="userSpaceOnUse">
		<stop  offset="2.395275e-07" style="stop-color:#000000"/>
		<stop  offset="9.793953e-02" style="stop-color:#070607;stop-opacity:0.9021"/>
		<stop  offset="0.238" style="stop-color:#19181A;stop-opacity:0.762"/>
		<stop  offset="0.4035" style="stop-color:#383539;stop-opacity:0.5965"/>
		<stop  offset="0.5884" style="stop-color:#625E64;stop-opacity:0.4116"/>
		<stop  offset="0.7894" style="stop-color:#99939B;stop-opacity:0.2106"/>
		<stop  offset="1" style="stop-color:#DAD1DD;stop-opacity:0"/>
	</radialGradient>
	<ellipse class="st0" cx="224.3" cy="567.7" rx="224" ry="87.9"/>
	<g>
		<path d="M95,418c2.9-25.5,9-50.4,17.6-74.3c6.8-19,15.1-37.6,19.7-57.3c1.5-41.4,8-82.6,19.5-122.3c1.7-6,3.7-12.2,6.4-17.9
			c-0.9-2.5-1.6-5-2.2-7.6c-0.7-0.5-1.3-1-1.9-1.5c-7.6-6.9-8.1-46.4-4.4-55.3c7.6-17.9,15.3-36.1,27.5-51.3
			c6.4-7.9,15.5-15.5,25.5-13.7c7,1.2,12.5,6.7,15.9,13c3.4,6.2,5,13.2,7.4,19.9c0,0,0,0,0,0c3.6-0.6,7.1-1.1,10.7-1.5
			c7-0.8,14.1-1.1,21.1-0.5C284.6,31.4,323,9.2,332.3,2.3c10-7.4,2.3,10,0.3,14.7c-2.1,4.7-5.4,8.6-8.4,12.8
			c-9.7,13.7-14.8,30.7-14.3,47.5c3.4,3.3,6.4,6.8,8.7,11c5,9.2,5.6,20.1,5.9,30.5c0.5,15.2,0.7,30.4,0.7,45.5
			c0,11.4-0.3,23.3-5.4,33.5c-3.5,6.9-8.9,12.4-15.4,16.6c1.8,12.4,2,25.4,4.3,37.7c4.3,23,15.8,43.4,25.4,64.4
			c18,38.9,30.2,80.9,36,123.9c3.4,25.3,4,53.1-6,75.5c16.5-1.9,33-3,49.5-1.8c25.2,1.8,50.5,9.2,70.2,25c8.7,7,16.3,15.8,19.5,26.5
			c3.2,10.7,1.1,23.4-7.2,30.9c-8.3,7.6-20.6,8.5-31.9,9c-9.1,0.4-18.8,0.6-26.6-4.1c-7.8-4.7-12-16.5-5.8-23.2
			c4.3-4.7,11.5-5,17.9-6c6.3-1,13.7-4.2,14.4-10.6c0.6-5.2-3.6-9.7-8-12.4c-9.6-6-21.3-7.5-32.6-8.4c-25.5-2.2-51.1-2.6-76.6-1.2
			c-8.3,7.2-18.1,12.4-28.4,15.8c-2.9,3.7-5.2,7.9-7.3,12.1c-4.4,9.2-7.5,19.1-12.7,27.8c-4.1,6.9-9.9,13.2-17.1,16.6
			c2.3,7.2,2.1,12.9-3.4,18c-9.5,8.9-24.8,12.3-35.8,5.6c-12.9-7.9-15.2-25-14.1-40.7c-0.5,0-0.9-0.1-1.4-0.1
			c-0.1,4.6-0.2,9.2-0.3,13.8c-0.2,8.8-0.6,17.9-4.6,25.6c-4.1,7.8-20.5,8.8-28.9,6.3c-12.5-3.7-27.3-23.4-13-34.6
			c0.7-0.5,1.3-1.2,1.9-1.8c-0.3,0-0.7,0.2-1,0.2c-6.7,0.7-14.3-1.6-17.4-7.6c-2.4-4.6-1.6-10-0.7-15.1c1.7-9.8,3.3-19.5,5-29.3
			c-24.3-8.3-46.9-23.7-60.1-47.1C93.2,479.6,91.6,447.7,95,418z"/>
		<g>
			<path class="st1" d="M319.6,123.9c1.3,0.9,2.1,2.4,2.6,3.9c1.3,4.3,0.5,9.3-2.3,12.9c-2.8,3.6-7.6,5.6-12,4.8
				c-1-3.7-1.5-7.6-0.9-11.4c0.7-3.8,2.7-7.4,6-9.5C315,123.3,317.6,122.7,319.6,123.9z"/>
			<path class="st2" d="M318.8,123.5c-1.9-0.7-4.1-0.1-5.8,1c-3.2,2.1-5.3,5.7-6,9.5c-0.7,3.8-0.2,7.7,0.9,11.4
				c3.3,0.6,6.7-0.3,9.4-2.3c0.3-0.6,0.5-1.2,0.7-1.8c1.5-4.7,1.9-9.7,1.6-14.6C319.5,125.7,319.3,124.5,318.8,123.5z"/>
			<path class="st3" d="M312.4,130.1c0.2-1.1,0.5-2.3,1.3-3.1c0.8-0.8,2.3-1.1,3.1-0.3c1.5,1.9,2.1,4.6,1.4,6.9
				c-0.6,2.4-2.5,7.7-4.6,5.4C311.6,136.8,312,133.1,312.4,130.1z"/>
			<path class="st4" d="M313.2,127.7c-1.4-0.1-1.9,1.2-2.3,2.3c-0.3,1.1-0.2,2.3,0.6,3.2c0.8,0.9,2.8-0.7,3.2-2
				C315.1,129.8,314.6,127.7,313.2,127.7z"/>
		</g>
		<g>
			<path class="st1" d="M277,143.8c0,0-1.7-11.3-9-11.7c-10.3-0.5-22.4,9.2-22.4,9.2s7.5,12.2,15.1,12.4
				C271.5,154.1,277,143.8,277,143.8z"/>
			<path class="st2" d="M268,132.2c-3.6-0.2-7.4,0.9-10.8,2.4c-1.1,4.1-1.7,8.4-1.6,12.6c0,2,0.3,4,1.4,5.6c0.1,0.1,0.1,0.1,0.2,0.2
				c1.1,0.5,2.3,0.8,3.4,0.8c2.9,0.1,5.4-0.6,7.5-1.6c1.6-1.7,2.7-4,3.4-6.3c0.9-2.9,1.4-6,1.3-9.1c0-0.8-0.1-1.6-0.2-2.4
				C271.5,133.1,269.9,132.2,268,132.2z"/>
			<path class="st3" d="M264.9,135c-2.3,1.3-2.4,4.3-2.5,5.7c-0.1,2.9,0.9,7.1,2.9,7.4c1.9,0.3,3.9-2.9,4.7-5.3
				c1.2-3.8-0.4-7.1-0.9-8C268.6,134.6,266.7,134,264.9,135z"/>
			<path class="st4" d="M262.1,141.8c1.2-0.1,2.4-0.9,3-2c0.5-1.1,0.3-2.6-0.5-3.5c-0.4-0.4-0.9-0.8-1.5-0.8c-2.7-0.2-2.9,2-3.2,3
				s-0.3,2.1,0.4,2.8C260.6,141.7,261.4,141.8,262.1,141.8z"/>
		</g>
	</g>
</g>
</svg>
