<?xml version="1.0" encoding="utf-8"?>
<!-- Generator: Adobe Illustrator 27.9.0, SVG Export Plug-In . SVG Version: 6.00 Build 0)  -->
<svg version="1.1" id="Слой_1" xmlns="http://www.w3.org/2000/svg" xmlns:xlink="http://www.w3.org/1999/xlink" x="0px" y="0px"
	 viewBox="0 0 762 830" style="enable-background:new 0 0 762 830;" xml:space="preserve">
<style type="text/css">
	.st0{clip-path:url(#SVGID_00000142140398321454957490000015921246526122213524_);}
	.st1{fill:url(#SVGID_00000169545721066829130770000013676114258535399808_);}
	.st2{fill:#BCE3FA;}
	.st3{fill:#FFFFFF;}
</style>
<g>
	<defs>
		<rect id="SVGID_1_" x="0.5" y="0.2" width="761" height="829.7"/>
	</defs>
	<clipPath id="SVGID_00000060748449019586191390000016695223851378095521_">
		<use xlink:href="#SVGID_1_"  style="overflow:visible;"/>
	</clipPath>
	<g style="clip-path:url(#SVGID_00000060748449019586191390000016695223851378095521_);">
		
			<radialGradient id="SVGID_00000085226716996564691770000004903429761854516927_" cx="506.0297" cy="402.3589" r="498.0937" gradientTransform="matrix(0.9012 0.4334 -0.3382 0.7032 186.0873 -99.9098)" gradientUnits="userSpaceOnUse">
			<stop  offset="0.2344" style="stop-color:#FFFFFF"/>
			<stop  offset="1" style="stop-color:#FFFFFF;stop-opacity:0"/>
		</radialGradient>
		<path style="fill:url(#SVGID_00000085226716996564691770000004903429761854516927_);" d="M1041.9,645
			c-90.1,198.8-403,251.4-698.9,117.3S-119.9,358.5-29.8,159.7s403-251.4,698.9-117.3S1131.9,446.2,1041.9,645z"/>
		<g>
			<path d="M60.4,31.6c18.8-10.6,60.3,39,76.9,38.2c16.6-0.8,54.6-13.2,86.8-4.2C257.6,29.5,282.6,6,299,12.9
				c16.4,6.9-7.4,71.4-0.8,104.1c1.2,5.5,2,10.7,2.8,15.8c58.3,50.9,126.5,58.5,196.2,72.1c79.4,15.6,160.5,20.1,240.4,33.2
				s160.2,35.5,226,82.3c66,46.9,107.9,97.4,108.9,178.3c0.5,40.9-1,112.8,28,141.8c16.9,16.8,47.6,35.9,71.4,36.2
				c88,1.3,96.7,44.6,84.1,64.7c-11.7,18.6-37.7,21.1-59.7,18.6c-62-7.2-122.5-25.8-161.7-74.4c-35.9-44.6-52.1-102.2-50.8-170.4
				c-25.1,26.1-38.5,63.5-34.7,99.7c1.7,14.9,5.9,30.2,3.2,44.9c-3,15.8-13.6,28.8-23.6,41.2c-16.9,20.4-34.5,41.6-58.1,53.6
				c-15.8,8-34.9,11.1-51.6,6.9c-20.1,12.1-40.7,21.4-59.1,25.1c-20.4,4.2-55.8,13.2-71-1c-42.9-40,45.4-45.1,71.2-56.3
				s42.9-46.1,26-68.5c-13.6-17.9-22.6-22.6-41.2-35.2c-27-18.1-161.5,2-271.8-122c-18.9,70.5-6.4,117.8-11.1,195.4
				c-0.7,11.2-9.9,38.9-16.1,48.3c-12.2,18.4-38.4,19.3-60.3,18.4c-11.4-0.5-30,4.9-33.7-13.1c-1.5-7.4,3-13.9,9-19.3
				c-13.9,1.7-27.6,4.5-39.7-2.3c-5.2-3-10.2-6.9-12.7-12.4c-2.5-5.4-2.2-12.6,2.3-16.6c5.5-5.2,15.1-3.9,20.8-8.9
				c4.7-4.2,5-11.2,5-17.6c-0.5-53.8-7.2-107.6-19.8-159.9c-32.2-23.8-66-34.7-104.2-80.1c-35.5-42.2-49.1-74.9-60.2-123
				c-7-30.3-27.1-41.6-41.4-59.3c-20.3-14.4-31.3-31.8-39.7-57c-5.5-17.1,4.7-58.8,4.7-58.8S41.6,42.2,60.4,31.6z"/>
			<path class="st2" d="M166,180.8c-15.2-29.3-42.7-15.4-47.3-9C122.2,191.5,154.6,203.7,166,180.8z"/>
			<path d="M147,163.7c-2.8-0.8-5.9-1-8.5-0.8c0,2.3,0,5,0.3,7.9c1.2,9.4,3.9,14.9,6.4,14.6c2.5-0.3,4-6.4,2.8-15.8
				C147.9,167.5,147.4,165.5,147,163.7z"/>
			<path class="st3" d="M143.5,171.7c0.3,2.5-1.5,4.7-3.9,4.9c-2.5,0.3-4.7-1.5-4.9-3.9c-0.3-2.5,1.5-4.7,3.9-4.9
				C141.2,167.5,143.3,169.4,143.5,171.7z"/>
			<path class="st2" d="M215.9,177.3c8-30.8,38.2-20.6,44.1-14.9C261.1,182.4,232.5,198.7,215.9,177.3z"/>
			<path d="M232.1,157.5c0,1.7,0.2,3.4,0.3,5.2c1.2,9.2,4,16.4,6.5,16.1c2.5-0.3,3.7-8,2.5-17.3c-0.2-2-0.5-3.9-1-5.5
				C237.8,156.1,234.8,156.5,232.1,157.5z"/>
			<path class="st3" d="M237.5,164.9c0.3,2.5-1.5,4.7-3.9,4.9c-2.5,0.3-4.7-1.5-4.9-3.9c-0.3-2.5,1.5-4.7,3.9-4.9
				C235,160.7,237.2,162.3,237.5,164.9z"/>
		</g>
	</g>
</g>
</svg>
